SplineFontDB: 3.2
FontName: AurebeshVectors-Fulldot
FullName: Aurebesh Vectors Fulldot
FamilyName: Aurebesh Vectors
Weight: Book
Copyright: CC-0 public domain
Version: 1.0
ItalicAngle: 0
UnderlinePosition: 52
UnderlineWidth: 35
Ascent: 1000
Descent: 0
InvalidEm: 0
sfntRevision: 0x00010000
LayerCount: 2
Layer: 0 1 "Back" 1
Layer: 1 1 "Fore" 0
XUID: [1021 178 1911899458 27371]
StyleMap: 0x0040
FSType: 4
OS2Version: 2
OS2_WeightWidthSlopeOnly: 0
OS2_UseTypoMetrics: 0
CreationTime: 1594234218
ModificationTime: 1594234883
PfmFamily: 81
TTFWeight: 400
TTFWidth: 5
LineGap: 0
VLineGap: 0
Panose: 0 0 4 0 0 0 0 0 0 0
OS2TypoAscent: 714
OS2TypoAOffset: 0
OS2TypoDescent: 0
OS2TypoDOffset: 0
OS2TypoLinegap: 0
OS2WinAscent: 1286
OS2WinAOffset: 0
OS2WinDescent: 0
OS2WinDOffset: 0
HheadAscent: 1286
HheadAOffset: 0
HheadDescent: 0
HheadDOffset: 0
OS2SubXSize: 357
OS2SubYSize: 357
OS2SubXOff: 0
OS2SubYOff: 0
OS2SupXSize: 357
OS2SupYSize: 357
OS2SupXOff: 0
OS2SupYOff: 357
OS2StrikeYSize: 36
OS2StrikeYPos: 143
OS2CapHeight: 1000
OS2XHeight: 714
OS2Vendor: 'FSTR'
OS2CodePages: 00000001.00000000
OS2UnicodeRanges: 80000001.00000000.00000000.00000000
MarkAttachClasses: 1
DEI: 91125
ShortTable: maxp 16
  1
  0
  83
  374
  22
  0
  0
  2
  0
  0
  0
  0
  0
  0
  0
  0
EndShort
LangName: 1033 "Copyright endersmith 2020+AAogHAAA-AurebeshWargames-Halfdot" "" "" "AurebeshVectors:Fulldot" "" "Version 1.0" "" "" "" "" "" "" "" "Creative Commons CC0 Public Domain Dedication" "http://creativecommons.org/publicdomain/zero/1.0/"
Encoding: UnicodeBmp
UnicodeInterp: none
NameList: AGL For New Fonts
DisplaySize: -72
AntiAlias: 1
FitToEm: 0
WinInfo: 0 25 10
BeginPrivate: 0
EndPrivate
BeginChars: 65539 82

StartChar: .notdef
Encoding: 65536 -1 0
Width: 691
VWidth: 714
Flags: W
LayerCount: 2
Fore
SplineSet
525 17 m 1,0,-1
 274 350 l 1,1,-1
 24 17 l 1,2,-1
 525 17 l 1,0,-1
17 24 m 1,3,-1
 268 357 l 1,4,-1
 17 690 l 1,5,-1
 17 24 l 1,6,-1
 17 24 l 1,3,-1
532 24 m 1,7,-1
 532 690 l 1,8,-1
 281 357 l 1,9,-1
 532 24 l 1,10,-1
 532 24 l 1,7,-1
274 364 m 1,11,-1
 525 697 l 1,12,-1
 24 697 l 1,13,-1
 274 364 l 1,14,-1
 274 364 l 1,11,-1
0 0 m 1,15,-1
 0 714 l 1,16,-1
 549 714 l 1,17,-1
 549 0 l 1,18,-1
 0 0 l 1,15,-1
EndSplineSet
Validated: 5
EndChar

StartChar: exclam
Encoding: 33 33 4
Width: 999
VWidth: 714
Flags: W
LayerCount: 2
Fore
SplineSet
214 143 m 1,0,1
 184 143 184 143 164 164 c 256,2,3
 143 185 143 185 143 214 c 256,4,5
 143 244 143 244 164 265 c 256,6,7
 185 286 185 286 214 286 c 256,8,9
 244 286 244 286 265 265 c 256,10,11
 286 244 286 244 286 214 c 256,12,13
 286 184 286 184 265 164 c 256,14,15
 244 143 244 143 214 143 c 1,16,-1
 214 143 l 1,0,1
357 143 m 1,17,18
 327 143 327 143 306 164 c 256,19,20
 285 185 285 185 286 214 c 256,21,22
 286 244 286 244 306 265 c 256,23,24
 327 286 327 286 357 286 c 0,25,26
 386 286 386 286 407 265 c 256,27,28
 428 244 428 244 429 214 c 256,29,30
 429 184 429 184 407 164 c 256,31,32
 386 143 386 143 357 143 c 1,33,-1
 357 143 l 1,17,18
500 286 m 1,34,35
 470 286 470 286 449 306 c 256,36,37
 428 327 428 327 429 357 c 0,38,39
 429 386 429 386 449 407 c 256,40,41
 470 428 470 428 500 429 c 256,42,43
 530 429 530 429 551 407 c 256,44,45
 572 386 572 386 571 357 c 0,46,47
 571 327 571 327 551 306 c 256,48,49
 530 285 530 285 500 286 c 1,50,-1
 500 286 l 1,34,35
643 286 m 1,51,52
 613 286 613 286 592 306 c 256,53,54
 571 327 571 327 571 357 c 0,55,56
 571 386 571 386 592 407 c 256,57,58
 613 428 613 428 643 429 c 0,59,60
 672 429 672 429 694 407 c 0,61,62
 715 386 715 386 714 357 c 0,63,64
 714 327 714 327 694 306 c 0,65,66
 673 285 673 285 643 286 c 1,67,-1
 643 286 l 1,51,52
214 571 m 1,68,69
 184 571 184 571 164 592 c 256,70,71
 143 613 143 613 143 643 c 0,72,73
 143 672 143 672 164 694 c 0,74,75
 185 715 185 715 214 714 c 256,76,77
 244 714 244 714 265 694 c 0,78,79
 286 673 286 673 286 643 c 0,80,81
 286 613 286 613 265 592 c 256,82,83
 244 571 244 571 214 571 c 1,84,-1
 214 571 l 1,68,69
357 571 m 1,85,86
 327 571 327 571 306 592 c 256,87,88
 285 613 285 613 286 643 c 0,89,90
 286 672 286 672 306 694 c 0,91,92
 327 715 327 715 357 714 c 0,93,94
 386 714 386 714 407 694 c 0,95,96
 428 673 428 673 429 643 c 0,97,98
 429 613 429 613 407 592 c 256,99,100
 386 571 386 571 357 571 c 1,101,-1
 357 571 l 1,85,86
500 714 m 1,102,103
 470 714 470 714 449 735 c 0,104,105
 428 756 428 756 429 786 c 0,106,107
 429 816 429 816 449 836 c 256,108,109
 470 857 470 857 500 857 c 256,110,111
 530 857 530 857 551 836 c 256,112,113
 572 815 572 815 571 786 c 0,114,115
 571 757 571 757 551 735 c 0,116,117
 530 714 530 714 500 714 c 1,118,-1
 500 714 l 1,102,103
643 714 m 1,119,120
 613 714 613 714 592 735 c 0,121,122
 571 756 571 756 571 786 c 0,123,124
 571 816 571 816 592 836 c 256,125,126
 613 857 613 857 643 857 c 0,127,128
 672 857 672 857 694 836 c 0,129,130
 715 815 715 815 714 786 c 0,131,132
 714 757 714 757 694 735 c 0,133,134
 673 714 673 714 643 714 c 1,135,-1
 643 714 l 1,119,120
EndSplineSet
Validated: 37
EndChar

StartChar: quotedbl
Encoding: 34 34 5
Width: 999
VWidth: 714
Flags: W
LayerCount: 2
Fore
SplineSet
357 571 m 1,0,1
 327 571 327 571 306 592 c 256,2,3
 285 613 285 613 286 643 c 0,4,5
 286 672 286 672 306 694 c 0,6,7
 327 715 327 715 357 714 c 0,8,9
 386 714 386 714 407 694 c 0,10,11
 428 673 428 673 429 643 c 0,12,13
 429 613 429 613 407 592 c 256,14,15
 386 571 386 571 357 571 c 1,16,-1
 357 571 l 1,0,1
500 571 m 1,17,18
 470 571 470 571 449 592 c 256,19,20
 428 613 428 613 429 643 c 0,21,22
 429 672 429 672 449 694 c 0,23,24
 470 715 470 715 500 714 c 256,25,26
 530 714 530 714 551 694 c 0,27,28
 572 673 572 673 571 643 c 0,29,30
 571 613 571 613 551 592 c 256,31,32
 530 571 530 571 500 571 c 1,33,-1
 500 571 l 1,17,18
214 714 m 1,34,35
 184 714 184 714 164 735 c 0,36,37
 143 756 143 756 143 786 c 0,38,39
 143 816 143 816 164 836 c 256,40,41
 185 857 185 857 214 857 c 256,42,43
 244 857 244 857 265 836 c 256,44,45
 286 815 286 815 286 786 c 0,46,47
 286 757 286 757 265 735 c 0,48,49
 244 714 244 714 214 714 c 1,50,-1
 214 714 l 1,34,35
643 714 m 1,51,52
 613 714 613 714 592 735 c 0,53,54
 571 756 571 756 571 786 c 0,55,56
 571 816 571 816 592 836 c 256,57,58
 613 857 613 857 643 857 c 0,59,60
 672 857 672 857 694 836 c 0,61,62
 715 815 715 815 714 786 c 0,63,64
 714 757 714 757 694 735 c 0,65,66
 673 714 673 714 643 714 c 1,67,-1
 643 714 l 1,51,52
214 857 m 1,68,69
 184 857 184 857 164 878 c 256,70,71
 143 899 143 899 143 929 c 256,72,73
 143 959 143 959 164 979 c 256,74,75
 185 1000 185 1000 214 1000 c 256,76,77
 244 1000 244 1000 265 979 c 256,78,79
 286 958 286 958 286 929 c 256,80,81
 286 899 286 899 265 878 c 256,82,83
 244 857 244 857 214 857 c 1,84,-1
 214 857 l 1,68,69
643 857 m 1,85,86
 613 857 613 857 592 878 c 256,87,88
 571 899 571 899 571 929 c 256,89,90
 571 959 571 959 592 979 c 256,91,92
 613 1000 613 1000 643 1000 c 0,93,94
 672 1000 672 1000 694 979 c 0,95,96
 715 958 715 958 714 929 c 256,97,98
 714 899 714 899 694 878 c 0,99,100
 673 857 673 857 643 857 c 1,101,-1
 643 857 l 1,85,86
EndSplineSet
Validated: 37
EndChar

StartChar: dollar
Encoding: 36 36 6
Width: 999
VWidth: 714
Flags: W
LayerCount: 2
Fore
SplineSet
500 143 m 1,0,1
 470 143 470 143 449 164 c 256,2,3
 428 185 428 185 429 214 c 256,4,5
 429 244 429 244 449 265 c 256,6,7
 470 286 470 286 500 286 c 256,8,9
 530 286 530 286 551 265 c 256,10,11
 572 244 572 244 571 214 c 256,12,13
 571 184 571 184 551 164 c 256,14,15
 530 143 530 143 500 143 c 1,16,-1
 500 143 l 1,0,1
500 286 m 1,17,18
 470 286 470 286 449 306 c 256,19,20
 428 327 428 327 429 357 c 0,21,22
 429 386 429 386 449 407 c 256,23,24
 470 428 470 428 500 429 c 256,25,26
 530 429 530 429 551 407 c 256,27,28
 572 386 572 386 571 357 c 0,29,30
 571 327 571 327 551 306 c 256,31,32
 530 285 530 285 500 286 c 1,33,-1
 500 286 l 1,17,18
643 429 m 1,34,35
 613 429 613 429 592 449 c 256,36,37
 571 470 571 470 571 500 c 256,38,39
 571 530 571 530 592 551 c 256,40,41
 613 572 613 572 643 571 c 0,42,43
 672 571 672 571 694 551 c 0,44,45
 715 530 715 530 714 500 c 256,46,47
 714 470 714 470 694 449 c 0,48,49
 673 428 673 428 643 429 c 1,50,-1
 643 429 l 1,34,35
357 571 m 1,51,52
 327 571 327 571 306 592 c 256,53,54
 285 613 285 613 286 643 c 0,55,56
 286 672 286 672 306 694 c 0,57,58
 327 715 327 715 357 714 c 0,59,60
 386 714 386 714 407 694 c 0,61,62
 428 673 428 673 429 643 c 0,63,64
 429 613 429 613 407 592 c 256,65,66
 386 571 386 571 357 571 c 1,67,-1
 357 571 l 1,51,52
643 571 m 1,68,69
 613 571 613 571 592 592 c 256,70,71
 571 613 571 613 571 643 c 0,72,73
 571 672 571 672 592 694 c 0,74,75
 613 715 613 715 643 714 c 0,76,77
 672 714 672 714 694 694 c 0,78,79
 715 673 715 673 714 643 c 0,80,81
 714 613 714 613 694 592 c 0,82,83
 673 571 673 571 643 571 c 1,84,-1
 643 571 l 1,68,69
214 714 m 1,85,86
 184 714 184 714 164 735 c 0,87,88
 143 756 143 756 143 786 c 0,89,90
 143 816 143 816 164 836 c 256,91,92
 185 857 185 857 214 857 c 256,93,94
 244 857 244 857 265 836 c 256,95,96
 286 815 286 815 286 786 c 0,97,98
 286 757 286 757 265 735 c 0,99,100
 244 714 244 714 214 714 c 1,101,-1
 214 714 l 1,85,86
357 714 m 1,102,103
 327 714 327 714 306 735 c 0,104,105
 285 756 285 756 286 786 c 0,106,107
 286 816 286 816 306 836 c 256,108,109
 327 857 327 857 357 857 c 0,110,111
 386 857 386 857 407 836 c 256,112,113
 428 815 428 815 429 786 c 0,114,115
 429 757 429 757 407 735 c 0,116,117
 386 714 386 714 357 714 c 1,118,-1
 357 714 l 1,102,103
500 714 m 1,119,120
 470 714 470 714 449 735 c 0,121,122
 428 756 428 756 429 786 c 0,123,124
 429 816 429 816 449 836 c 256,125,126
 470 857 470 857 500 857 c 256,127,128
 530 857 530 857 551 836 c 256,129,130
 572 815 572 815 571 786 c 0,131,132
 571 757 571 757 551 735 c 0,133,134
 530 714 530 714 500 714 c 1,135,-1
 500 714 l 1,119,120
643 714 m 1,136,137
 613 714 613 714 592 735 c 0,138,139
 571 756 571 756 571 786 c 0,140,141
 571 816 571 816 592 836 c 256,142,143
 613 857 613 857 643 857 c 0,144,145
 672 857 672 857 694 836 c 0,146,147
 715 815 715 815 714 786 c 0,148,149
 714 757 714 757 694 735 c 0,150,151
 673 714 673 714 643 714 c 1,152,-1
 643 714 l 1,136,137
786 714 m 1,153,154
 757 714 757 714 735 735 c 0,155,156
 714 756 714 756 714 786 c 0,157,158
 714 816 714 816 735 836 c 0,159,160
 756 857 756 857 786 857 c 0,161,162
 816 857 816 857 836 836 c 256,163,164
 857 815 857 815 857 786 c 0,165,166
 857 757 857 757 836 735 c 0,167,168
 815 714 815 714 786 714 c 1,169,-1
 786 714 l 1,153,154
357 857 m 1,170,171
 327 857 327 857 306 878 c 256,172,173
 285 899 285 899 286 929 c 256,174,175
 286 959 286 959 306 979 c 256,176,177
 327 1000 327 1000 357 1000 c 0,178,179
 386 1000 386 1000 407 979 c 256,180,181
 428 958 428 958 429 929 c 256,182,183
 429 899 429 899 407 878 c 256,184,185
 386 857 386 857 357 857 c 1,186,-1
 357 857 l 1,170,171
EndSplineSet
Validated: 37
EndChar

StartChar: quotesingle
Encoding: 39 39 7
Width: 999
VWidth: 714
Flags: W
LayerCount: 2
Fore
SplineSet
500 571 m 1,0,1
 470 571 470 571 449 592 c 256,2,3
 428 613 428 613 429 643 c 0,4,5
 429 672 429 672 449 694 c 0,6,7
 470 715 470 715 500 714 c 256,8,9
 530 714 530 714 551 694 c 0,10,11
 572 673 572 673 571 643 c 0,12,13
 571 613 571 613 551 592 c 256,14,15
 530 571 530 571 500 571 c 1,16,-1
 500 571 l 1,0,1
500 714 m 1,17,18
 470 714 470 714 449 735 c 0,19,20
 428 756 428 756 429 786 c 0,21,22
 429 816 429 816 449 836 c 256,23,24
 470 857 470 857 500 857 c 256,25,26
 530 857 530 857 551 836 c 256,27,28
 572 815 572 815 571 786 c 0,29,30
 571 757 571 757 551 735 c 0,31,32
 530 714 530 714 500 714 c 1,33,-1
 500 714 l 1,17,18
357 857 m 1,34,35
 327 857 327 857 306 878 c 256,36,37
 285 899 285 899 286 929 c 256,38,39
 286 959 286 959 306 979 c 256,40,41
 327 1000 327 1000 357 1000 c 0,42,43
 386 1000 386 1000 407 979 c 256,44,45
 428 958 428 958 429 929 c 256,46,47
 429 899 429 899 407 878 c 256,48,49
 386 857 386 857 357 857 c 1,50,-1
 357 857 l 1,34,35
500 857 m 1,51,52
 470 857 470 857 449 878 c 256,53,54
 428 899 428 899 429 929 c 256,55,56
 429 959 429 959 449 979 c 256,57,58
 470 1000 470 1000 500 1000 c 256,59,60
 530 1000 530 1000 551 979 c 256,61,62
 572 958 572 958 571 929 c 256,63,64
 571 899 571 899 551 878 c 256,65,66
 530 857 530 857 500 857 c 1,67,-1
 500 857 l 1,51,52
EndSplineSet
Validated: 37
EndChar

StartChar: parenleft
Encoding: 40 40 8
Width: 999
VWidth: 714
Flags: W
LayerCount: 2
Fore
SplineSet
786 0 m 1,0,1
 757 0 757 0 735 21 c 0,2,3
 714 42 714 42 714 71 c 0,4,5
 714 101 714 101 735 121 c 0,6,7
 756 142 756 142 786 143 c 0,8,9
 816 143 816 143 836 121 c 256,10,11
 857 100 857 100 857 71 c 0,12,13
 857 42 857 42 836 21 c 0,14,15
 815 0 815 0 786 0 c 1,16,-1
 786 0 l 1,0,1
786 143 m 1,17,18
 757 143 757 143 735 164 c 0,19,20
 714 185 714 185 714 214 c 256,21,22
 714 244 714 244 735 265 c 0,23,24
 756 286 756 286 786 286 c 0,25,26
 816 286 816 286 836 265 c 256,27,28
 857 244 857 244 857 214 c 256,29,30
 857 184 857 184 836 164 c 256,31,32
 815 143 815 143 786 143 c 1,33,-1
 786 143 l 1,17,18
786 286 m 1,34,35
 757 286 757 286 735 306 c 0,36,37
 714 327 714 327 714 357 c 0,38,39
 714 386 714 386 735 407 c 0,40,41
 756 428 756 428 786 429 c 0,42,43
 816 429 816 429 836 407 c 256,44,45
 857 386 857 386 857 357 c 0,46,47
 857 327 857 327 836 306 c 256,48,49
 815 285 815 285 786 286 c 1,50,-1
 786 286 l 1,34,35
357 429 m 1,51,52
 327 429 327 429 306 449 c 256,53,54
 285 470 285 470 286 500 c 256,55,56
 286 530 286 530 306 551 c 256,57,58
 327 572 327 572 357 571 c 0,59,60
 386 571 386 571 407 551 c 256,61,62
 428 530 428 530 429 500 c 256,63,64
 429 470 429 470 407 449 c 256,65,66
 386 428 386 428 357 429 c 1,67,-1
 357 429 l 1,51,52
500 429 m 1,68,69
 470 429 470 429 449 449 c 256,70,71
 428 470 428 470 429 500 c 256,72,73
 429 530 429 530 449 551 c 256,74,75
 470 572 470 572 500 571 c 256,76,77
 530 571 530 571 551 551 c 256,78,79
 572 530 572 530 571 500 c 256,80,81
 571 470 571 470 551 449 c 256,82,83
 530 428 530 428 500 429 c 1,84,-1
 500 429 l 1,68,69
643 429 m 1,85,86
 613 429 613 429 592 449 c 256,87,88
 571 470 571 470 571 500 c 256,89,90
 571 530 571 530 592 551 c 256,91,92
 613 572 613 572 643 571 c 0,93,94
 672 571 672 571 694 551 c 0,95,96
 715 530 715 530 714 500 c 256,97,98
 714 470 714 470 694 449 c 0,99,100
 673 428 673 428 643 429 c 1,101,-1
 643 429 l 1,85,86
786 429 m 1,102,103
 757 429 757 429 735 449 c 0,104,105
 714 470 714 470 714 500 c 256,106,107
 714 530 714 530 735 551 c 0,108,109
 756 572 756 572 786 571 c 0,110,111
 816 571 816 571 836 551 c 256,112,113
 857 530 857 530 857 500 c 256,114,115
 857 470 857 470 836 449 c 256,116,117
 815 428 815 428 786 429 c 1,118,-1
 786 429 l 1,102,103
786 571 m 1,119,120
 757 571 757 571 735 592 c 0,121,122
 714 613 714 613 714 643 c 0,123,124
 714 672 714 672 735 694 c 0,125,126
 756 715 756 715 786 714 c 0,127,128
 816 714 816 714 836 694 c 0,129,130
 857 673 857 673 857 643 c 0,131,132
 857 613 857 613 836 592 c 256,133,134
 815 571 815 571 786 571 c 1,135,-1
 786 571 l 1,119,120
786 714 m 1,136,137
 757 714 757 714 735 735 c 0,138,139
 714 756 714 756 714 786 c 0,140,141
 714 816 714 816 735 836 c 0,142,143
 756 857 756 857 786 857 c 0,144,145
 816 857 816 857 836 836 c 256,146,147
 857 815 857 815 857 786 c 0,148,149
 857 757 857 757 836 735 c 0,150,151
 815 714 815 714 786 714 c 1,152,-1
 786 714 l 1,136,137
786 857 m 1,153,154
 757 857 757 857 735 878 c 0,155,156
 714 899 714 899 714 929 c 256,157,158
 714 959 714 959 735 979 c 0,159,160
 756 1000 756 1000 786 1000 c 4,161,162
 816 1000 816 1000 836 979 c 256,163,164
 857 958 857 958 857 929 c 256,165,166
 857 899 857 899 836 878 c 256,167,168
 815 857 815 857 786 857 c 1,169,-1
 786 857 l 1,153,154
EndSplineSet
Validated: 37
EndChar

StartChar: parenright
Encoding: 41 41 9
Width: 999
VWidth: 714
Flags: W
LayerCount: 2
Fore
SplineSet
71 0 m 1,0,1
 42 0 42 0 21 21 c 0,2,3
 0 42 0 42 0 71 c 0,4,5
 0 101 0 101 21 121 c 0,6,7
 42 142 42 142 71 143 c 0,8,9
 101 143 101 143 121 121 c 256,10,11
 142 100 142 100 143 71 c 0,12,13
 143 42 143 42 121 21 c 0,14,15
 100 0 100 0 71 0 c 1,16,-1
 71 0 l 1,0,1
71 143 m 1,17,18
 42 143 42 143 21 164 c 0,19,20
 0 185 0 185 0 214 c 256,21,22
 0 244 0 244 21 265 c 0,23,24
 42 286 42 286 71 286 c 0,25,26
 101 286 101 286 121 265 c 256,27,28
 142 244 142 244 143 214 c 256,29,30
 143 184 143 184 121 164 c 256,31,32
 100 143 100 143 71 143 c 1,33,-1
 71 143 l 1,17,18
71 286 m 1,34,35
 42 286 42 286 21 306 c 0,36,37
 0 327 0 327 0 357 c 0,38,39
 0 386 0 386 21 407 c 0,40,41
 42 428 42 428 71 429 c 0,42,43
 101 429 101 429 121 407 c 256,44,45
 142 386 142 386 143 357 c 0,46,47
 143 327 143 327 121 306 c 256,48,49
 100 285 100 285 71 286 c 1,50,-1
 71 286 l 1,34,35
71 429 m 1,51,52
 42 429 42 429 21 449 c 0,53,54
 0 470 0 470 0 500 c 256,55,56
 0 530 0 530 21 551 c 0,57,58
 42 572 42 572 71 571 c 0,59,60
 101 571 101 571 121 551 c 256,61,62
 142 530 142 530 143 500 c 256,63,64
 143 470 143 470 121 449 c 256,65,66
 100 428 100 428 71 429 c 1,67,-1
 71 429 l 1,51,52
214 429 m 1,68,69
 184 429 184 429 164 449 c 256,70,71
 143 470 143 470 143 500 c 256,72,73
 143 530 143 530 164 551 c 256,74,75
 185 572 185 572 214 571 c 256,76,77
 244 571 244 571 265 551 c 256,78,79
 286 530 286 530 286 500 c 256,80,81
 286 470 286 470 265 449 c 256,82,83
 244 428 244 428 214 429 c 1,84,-1
 214 429 l 1,68,69
357 429 m 1,85,86
 327 429 327 429 306 449 c 256,87,88
 285 470 285 470 286 500 c 256,89,90
 286 530 286 530 306 551 c 256,91,92
 327 572 327 572 357 571 c 0,93,94
 386 571 386 571 407 551 c 256,95,96
 428 530 428 530 429 500 c 256,97,98
 429 470 429 470 407 449 c 256,99,100
 386 428 386 428 357 429 c 1,101,-1
 357 429 l 1,85,86
500 429 m 1,102,103
 470 429 470 429 449 449 c 256,104,105
 428 470 428 470 429 500 c 256,106,107
 429 530 429 530 449 551 c 256,108,109
 470 572 470 572 500 571 c 256,110,111
 530 571 530 571 551 551 c 256,112,113
 572 530 572 530 571 500 c 256,114,115
 571 470 571 470 551 449 c 256,116,117
 530 428 530 428 500 429 c 1,118,-1
 500 429 l 1,102,103
71 571 m 1,119,120
 42 571 42 571 21 592 c 0,121,122
 0 613 0 613 0 643 c 0,123,124
 0 672 0 672 21 694 c 0,125,126
 42 715 42 715 71 714 c 0,127,128
 101 714 101 714 121 694 c 0,129,130
 142 673 142 673 143 643 c 0,131,132
 143 613 143 613 121 592 c 256,133,134
 100 571 100 571 71 571 c 1,135,-1
 71 571 l 1,119,120
71 714 m 1,136,137
 42 714 42 714 21 735 c 0,138,139
 0 756 0 756 0 786 c 0,140,141
 0 816 0 816 21 836 c 0,142,143
 42 857 42 857 71 857 c 0,144,145
 101 857 101 857 121 836 c 256,146,147
 142 815 142 815 143 786 c 0,148,149
 143 757 143 757 121 735 c 0,150,151
 100 714 100 714 71 714 c 1,152,-1
 71 714 l 1,136,137
71 857 m 1,153,154
 42 857 42 857 21 878 c 0,155,156
 0 899 0 899 0 929 c 256,157,158
 0 959 0 959 21 979 c 0,159,160
 42 1000 42 1000 71 1000 c 0,161,162
 101 1000 101 1000 121 979 c 256,163,164
 142 958 142 958 143 929 c 256,165,166
 143 899 143 899 121 878 c 256,167,168
 100 857 100 857 71 857 c 1,169,-1
 71 857 l 1,153,154
EndSplineSet
Validated: 37
EndChar

StartChar: comma
Encoding: 44 44 10
Width: 999
VWidth: 714
Flags: W
LayerCount: 2
Fore
SplineSet
357 0 m 1,0,1
 327 0 327 0 306 21 c 0,2,3
 285 42 285 42 286 71 c 0,4,5
 286 101 286 101 306 121 c 256,6,7
 327 142 327 142 357 143 c 0,8,9
 386 143 386 143 407 121 c 256,10,11
 428 100 428 100 429 71 c 0,12,13
 429 42 429 42 407 21 c 0,14,15
 386 0 386 0 357 0 c 1,16,-1
 357 0 l 1,0,1
357 143 m 1,17,18
 327 143 327 143 306 164 c 256,19,20
 285 185 285 185 286 214 c 256,21,22
 286 244 286 244 306 265 c 256,23,24
 327 286 327 286 357 286 c 0,25,26
 386 286 386 286 407 265 c 256,27,28
 428 244 428 244 429 214 c 256,29,30
 429 184 429 184 407 164 c 256,31,32
 386 143 386 143 357 143 c 1,33,-1
 357 143 l 1,17,18
EndSplineSet
Validated: 37
EndChar

StartChar: period
Encoding: 46 46 11
Width: 999
VWidth: 714
Flags: W
LayerCount: 2
Fore
SplineSet
214 0 m 1,0,1
 184 0 184 0 164 21 c 0,2,3
 143 42 143 42 143 71 c 0,4,5
 143 101 143 101 164 121 c 256,6,7
 185 142 185 142 214 143 c 256,8,9
 244 143 244 143 265 121 c 256,10,11
 286 100 286 100 286 71 c 0,12,13
 286 42 286 42 265 21 c 0,14,15
 244 0 244 0 214 0 c 1,16,-1
 214 0 l 1,0,1
500 0 m 1,17,18
 470 0 470 0 449 21 c 0,19,20
 428 42 428 42 429 71 c 0,21,22
 429 101 429 101 449 121 c 256,23,24
 470 142 470 142 500 143 c 256,25,26
 530 143 530 143 551 121 c 256,27,28
 572 100 572 100 571 71 c 0,29,30
 571 42 571 42 551 21 c 0,31,32
 530 0 530 0 500 0 c 1,33,-1
 500 0 l 1,17,18
214 143 m 1,34,35
 184 143 184 143 164 164 c 256,36,37
 143 185 143 185 143 214 c 256,38,39
 143 244 143 244 164 265 c 256,40,41
 185 286 185 286 214 286 c 256,42,43
 244 286 244 286 265 265 c 256,44,45
 286 244 286 244 286 214 c 256,46,47
 286 184 286 184 265 164 c 256,48,49
 244 143 244 143 214 143 c 1,50,-1
 214 143 l 1,34,35
500 143 m 1,51,52
 470 143 470 143 449 164 c 256,53,54
 428 185 428 185 429 214 c 256,55,56
 429 244 429 244 449 265 c 256,57,58
 470 286 470 286 500 286 c 256,59,60
 530 286 530 286 551 265 c 256,61,62
 572 244 572 244 571 214 c 256,63,64
 571 184 571 184 551 164 c 256,65,66
 530 143 530 143 500 143 c 1,67,-1
 500 143 l 1,51,52
EndSplineSet
Validated: 37
EndChar

StartChar: zero
Encoding: 48 48 12
Width: 999
VWidth: 714
Flags: W
LayerCount: 2
Fore
SplineSet
643 286 m 1,0,1
 613 286 613 286 592 306 c 256,2,3
 571 327 571 327 571 357 c 0,4,5
 571 386 571 386 592 407 c 256,6,7
 613 428 613 428 643 429 c 0,8,9
 672 429 672 429 694 407 c 0,10,11
 715 386 715 386 714 357 c 0,12,13
 714 327 714 327 694 306 c 0,14,15
 673 285 673 285 643 286 c 1,16,-1
 643 286 l 1,0,1
71 571 m 1,17,18
 42 571 42 571 21 592 c 0,19,20
 0 613 0 613 0 643 c 0,21,22
 0 672 0 672 21 694 c 0,23,24
 42 715 42 715 71 714 c 0,25,26
 101 714 101 714 121 694 c 0,27,28
 142 673 142 673 143 643 c 0,29,30
 143 613 143 613 121 592 c 256,31,32
 100 571 100 571 71 571 c 1,33,-1
 71 571 l 1,17,18
214 571 m 1,34,35
 184 571 184 571 164 592 c 256,36,37
 143 613 143 613 143 643 c 0,38,39
 143 672 143 672 164 694 c 0,40,41
 185 715 185 715 214 714 c 256,42,43
 244 714 244 714 265 694 c 0,44,45
 286 673 286 673 286 643 c 0,46,47
 286 613 286 613 265 592 c 256,48,49
 244 571 244 571 214 571 c 1,50,-1
 214 571 l 1,34,35
71 857 m 1,51,52
 42 857 42 857 21 878 c 0,53,54
 0 899 0 899 0 929 c 256,55,56
 0 959 0 959 21 979 c 0,57,58
 42 1000 42 1000 71 1000 c 0,59,60
 101 1000 101 1000 121 979 c 256,61,62
 142 958 142 958 143 929 c 256,63,64
 143 899 143 899 121 878 c 256,65,66
 100 857 100 857 71 857 c 1,67,-1
 71 857 l 1,51,52
214 857 m 1,68,69
 184 857 184 857 164 878 c 256,70,71
 143 899 143 899 143 929 c 256,72,73
 143 959 143 959 164 979 c 256,74,75
 185 1000 185 1000 214 1000 c 256,76,77
 244 1000 244 1000 265 979 c 256,78,79
 286 958 286 958 286 929 c 256,80,81
 286 899 286 899 265 878 c 256,82,83
 244 857 244 857 214 857 c 1,84,-1
 214 857 l 1,68,69
EndSplineSet
Validated: 37
EndChar

StartChar: one
Encoding: 49 49 13
Width: 999
VWidth: 714
Flags: W
LayerCount: 2
Fore
SplineSet
643 286 m 1,0,1
 613 286 613 286 592 306 c 256,2,3
 571 327 571 327 571 357 c 0,4,5
 571 386 571 386 592 407 c 256,6,7
 613 428 613 428 643 429 c 0,8,9
 672 429 672 429 694 407 c 0,10,11
 715 386 715 386 714 357 c 0,12,13
 714 327 714 327 694 306 c 0,14,15
 673 285 673 285 643 286 c 1,16,-1
 643 286 l 1,0,1
786 286 m 1,17,18
 757 286 757 286 735 306 c 0,19,20
 714 327 714 327 714 357 c 0,21,22
 714 386 714 386 735 407 c 0,23,24
 756 428 756 428 786 429 c 0,25,26
 816 429 816 429 836 407 c 256,27,28
 857 386 857 386 857 357 c 0,29,30
 857 327 857 327 836 306 c 256,31,32
 815 285 815 285 786 286 c 1,33,-1
 786 286 l 1,17,18
214 571 m 1,34,35
 184 571 184 571 164 592 c 256,36,37
 143 613 143 613 143 643 c 0,38,39
 143 672 143 672 164 694 c 0,40,41
 185 715 185 715 214 714 c 256,42,43
 244 714 244 714 265 694 c 0,44,45
 286 673 286 673 286 643 c 0,46,47
 286 613 286 613 265 592 c 256,48,49
 244 571 244 571 214 571 c 1,50,-1
 214 571 l 1,34,35
214 714 m 1,51,52
 184 714 184 714 164 735 c 0,53,54
 143 756 143 756 143 786 c 0,55,56
 143 816 143 816 164 836 c 256,57,58
 185 857 185 857 214 857 c 256,59,60
 244 857 244 857 265 836 c 256,61,62
 286 815 286 815 286 786 c 0,63,64
 286 757 286 757 265 735 c 0,65,66
 244 714 244 714 214 714 c 1,67,-1
 214 714 l 1,51,52
214 857 m 1,68,69
 184 857 184 857 164 878 c 256,70,71
 143 899 143 899 143 929 c 256,72,73
 143 959 143 959 164 979 c 256,74,75
 185 1000 185 1000 214 1000 c 256,76,77
 244 1000 244 1000 265 979 c 256,78,79
 286 958 286 958 286 929 c 256,80,81
 286 899 286 899 265 878 c 256,82,83
 244 857 244 857 214 857 c 1,84,-1
 214 857 l 1,68,69
EndSplineSet
Validated: 37
EndChar

StartChar: two
Encoding: 50 50 14
Width: 999
VWidth: 714
Flags: W
LayerCount: 2
Fore
SplineSet
786 143 m 1,0,1
 757 143 757 143 735 164 c 0,2,3
 714 185 714 185 714 214 c 256,4,5
 714 244 714 244 735 265 c 0,6,7
 756 286 756 286 786 286 c 0,8,9
 816 286 816 286 836 265 c 256,10,11
 857 244 857 244 857 214 c 256,12,13
 857 184 857 184 836 164 c 256,14,15
 815 143 815 143 786 143 c 1,16,-1
 786 143 l 1,0,1
643 286 m 1,17,18
 613 286 613 286 592 306 c 256,19,20
 571 327 571 327 571 357 c 0,21,22
 571 386 571 386 592 407 c 256,23,24
 613 428 613 428 643 429 c 0,25,26
 672 429 672 429 694 407 c 0,27,28
 715 386 715 386 714 357 c 0,29,30
 714 327 714 327 694 306 c 0,31,32
 673 285 673 285 643 286 c 1,33,-1
 643 286 l 1,17,18
786 286 m 1,34,35
 757 286 757 286 735 306 c 0,36,37
 714 327 714 327 714 357 c 0,38,39
 714 386 714 386 735 407 c 0,40,41
 756 428 756 428 786 429 c 0,42,43
 816 429 816 429 836 407 c 256,44,45
 857 386 857 386 857 357 c 0,46,47
 857 327 857 327 836 306 c 256,48,49
 815 285 815 285 786 286 c 1,50,-1
 786 286 l 1,34,35
71 571 m 1,51,52
 42 571 42 571 21 592 c 0,53,54
 0 613 0 613 0 643 c 0,55,56
 0 672 0 672 21 694 c 0,57,58
 42 715 42 715 71 714 c 0,59,60
 101 714 101 714 121 694 c 0,61,62
 142 673 142 673 143 643 c 0,63,64
 143 613 143 613 121 592 c 256,65,66
 100 571 100 571 71 571 c 1,67,-1
 71 571 l 1,51,52
214 571 m 1,68,69
 184 571 184 571 164 592 c 256,70,71
 143 613 143 613 143 643 c 0,72,73
 143 672 143 672 164 694 c 0,74,75
 185 715 185 715 214 714 c 256,76,77
 244 714 244 714 265 694 c 0,78,79
 286 673 286 673 286 643 c 0,80,81
 286 613 286 613 265 592 c 256,82,83
 244 571 244 571 214 571 c 1,84,-1
 214 571 l 1,68,69
214 714 m 1,85,86
 184 714 184 714 164 735 c 0,87,88
 143 756 143 756 143 786 c 0,89,90
 143 816 143 816 164 836 c 256,91,92
 185 857 185 857 214 857 c 256,93,94
 244 857 244 857 265 836 c 256,95,96
 286 815 286 815 286 786 c 0,97,98
 286 757 286 757 265 735 c 0,99,100
 244 714 244 714 214 714 c 1,101,-1
 214 714 l 1,85,86
71 857 m 1,102,103
 42 857 42 857 21 878 c 0,104,105
 0 899 0 899 0 929 c 256,106,107
 0 959 0 959 21 979 c 0,108,109
 42 1000 42 1000 71 1000 c 0,110,111
 101 1000 101 1000 121 979 c 256,112,113
 142 958 142 958 143 929 c 256,114,115
 143 899 143 899 121 878 c 256,116,117
 100 857 100 857 71 857 c 1,118,-1
 71 857 l 1,102,103
EndSplineSet
Validated: 37
EndChar

StartChar: three
Encoding: 51 51 15
Width: 999
VWidth: 714
Flags: W
LayerCount: 2
Fore
SplineSet
786 0 m 1,0,1
 757 0 757 0 735 21 c 0,2,3
 714 42 714 42 714 71 c 0,4,5
 714 101 714 101 735 121 c 0,6,7
 756 142 756 142 786 143 c 0,8,9
 816 143 816 143 836 121 c 256,10,11
 857 100 857 100 857 71 c 0,12,13
 857 42 857 42 836 21 c 0,14,15
 815 0 815 0 786 0 c 1,16,-1
 786 0 l 1,0,1
786 143 m 1,17,18
 757 143 757 143 735 164 c 0,19,20
 714 185 714 185 714 214 c 256,21,22
 714 244 714 244 735 265 c 0,23,24
 756 286 756 286 786 286 c 0,25,26
 816 286 816 286 836 265 c 256,27,28
 857 244 857 244 857 214 c 256,29,30
 857 184 857 184 836 164 c 256,31,32
 815 143 815 143 786 143 c 1,33,-1
 786 143 l 1,17,18
643 286 m 1,34,35
 613 286 613 286 592 306 c 256,36,37
 571 327 571 327 571 357 c 0,38,39
 571 386 571 386 592 407 c 256,40,41
 613 428 613 428 643 429 c 0,42,43
 672 429 672 429 694 407 c 0,44,45
 715 386 715 386 714 357 c 0,46,47
 714 327 714 327 694 306 c 0,48,49
 673 285 673 285 643 286 c 1,50,-1
 643 286 l 1,34,35
786 286 m 1,51,52
 757 286 757 286 735 306 c 0,53,54
 714 327 714 327 714 357 c 0,55,56
 714 386 714 386 735 407 c 0,57,58
 756 428 756 428 786 429 c 0,59,60
 816 429 816 429 836 407 c 256,61,62
 857 386 857 386 857 357 c 0,63,64
 857 327 857 327 836 306 c 256,65,66
 815 285 815 285 786 286 c 1,67,-1
 786 286 l 1,51,52
71 571 m 1,68,69
 42 571 42 571 21 592 c 0,70,71
 0 613 0 613 0 643 c 0,72,73
 0 672 0 672 21 694 c 0,74,75
 42 715 42 715 71 714 c 0,76,77
 101 714 101 714 121 694 c 0,78,79
 142 673 142 673 143 643 c 0,80,81
 143 613 143 613 121 592 c 256,82,83
 100 571 100 571 71 571 c 1,84,-1
 71 571 l 1,68,69
214 571 m 1,85,86
 184 571 184 571 164 592 c 256,87,88
 143 613 143 613 143 643 c 0,89,90
 143 672 143 672 164 694 c 0,91,92
 185 715 185 715 214 714 c 256,93,94
 244 714 244 714 265 694 c 0,95,96
 286 673 286 673 286 643 c 0,97,98
 286 613 286 613 265 592 c 256,99,100
 244 571 244 571 214 571 c 1,101,-1
 214 571 l 1,85,86
214 714 m 1,102,103
 184 714 184 714 164 735 c 0,104,105
 143 756 143 756 143 786 c 0,106,107
 143 816 143 816 164 836 c 256,108,109
 185 857 185 857 214 857 c 256,110,111
 244 857 244 857 265 836 c 256,112,113
 286 815 286 815 286 786 c 0,114,115
 286 757 286 757 265 735 c 0,116,117
 244 714 244 714 214 714 c 1,118,-1
 214 714 l 1,102,103
71 857 m 1,119,120
 42 857 42 857 21 878 c 0,121,122
 0 899 0 899 0 929 c 256,123,124
 0 959 0 959 21 979 c 0,125,126
 42 1000 42 1000 71 1000 c 0,127,128
 101 1000 101 1000 121 979 c 256,129,130
 142 958 142 958 143 929 c 256,131,132
 143 899 143 899 121 878 c 256,133,134
 100 857 100 857 71 857 c 1,135,-1
 71 857 l 1,119,120
214 857 m 1,136,137
 184 857 184 857 164 878 c 256,138,139
 143 899 143 899 143 929 c 256,140,141
 143 959 143 959 164 979 c 256,142,143
 185 1000 185 1000 214 1000 c 256,144,145
 244 1000 244 1000 265 979 c 256,146,147
 286 958 286 958 286 929 c 256,148,149
 286 899 286 899 265 878 c 256,150,151
 244 857 244 857 214 857 c 1,152,-1
 214 857 l 1,136,137
EndSplineSet
Validated: 37
EndChar

StartChar: four
Encoding: 52 52 16
Width: 999
VWidth: 714
Flags: W
LayerCount: 2
Fore
SplineSet
643 143 m 1,0,1
 613 143 613 143 592 164 c 256,2,3
 571 185 571 185 571 214 c 256,4,5
 571 244 571 244 592 265 c 256,6,7
 613 286 613 286 643 286 c 0,8,9
 672 286 672 286 694 265 c 0,10,11
 715 244 715 244 714 214 c 256,12,13
 714 184 714 184 694 164 c 0,14,15
 673 143 673 143 643 143 c 1,16,-1
 643 143 l 1,0,1
643 286 m 1,17,18
 613 286 613 286 592 306 c 256,19,20
 571 327 571 327 571 357 c 0,21,22
 571 386 571 386 592 407 c 256,23,24
 613 428 613 428 643 429 c 0,25,26
 672 429 672 429 694 407 c 0,27,28
 715 386 715 386 714 357 c 0,29,30
 714 327 714 327 694 306 c 0,31,32
 673 285 673 285 643 286 c 1,33,-1
 643 286 l 1,17,18
786 286 m 1,34,35
 757 286 757 286 735 306 c 0,36,37
 714 327 714 327 714 357 c 0,38,39
 714 386 714 386 735 407 c 0,40,41
 756 428 756 428 786 429 c 0,42,43
 816 429 816 429 836 407 c 256,44,45
 857 386 857 386 857 357 c 0,46,47
 857 327 857 327 836 306 c 256,48,49
 815 285 815 285 786 286 c 1,50,-1
 786 286 l 1,34,35
214 571 m 1,51,52
 184 571 184 571 164 592 c 256,53,54
 143 613 143 613 143 643 c 0,55,56
 143 672 143 672 164 694 c 0,57,58
 185 715 185 715 214 714 c 256,59,60
 244 714 244 714 265 694 c 0,61,62
 286 673 286 673 286 643 c 0,63,64
 286 613 286 613 265 592 c 256,65,66
 244 571 244 571 214 571 c 1,67,-1
 214 571 l 1,51,52
71 714 m 1,68,69
 42 714 42 714 21 735 c 0,70,71
 0 756 0 756 0 786 c 0,72,73
 0 816 0 816 21 836 c 0,74,75
 42 857 42 857 71 857 c 0,76,77
 101 857 101 857 121 836 c 256,78,79
 142 815 142 815 143 786 c 0,80,81
 143 757 143 757 121 735 c 0,82,83
 100 714 100 714 71 714 c 1,84,-1
 71 714 l 1,68,69
214 714 m 1,85,86
 184 714 184 714 164 735 c 0,87,88
 143 756 143 756 143 786 c 0,89,90
 143 816 143 816 164 836 c 256,91,92
 185 857 185 857 214 857 c 256,93,94
 244 857 244 857 265 836 c 256,95,96
 286 815 286 815 286 786 c 0,97,98
 286 757 286 757 265 735 c 0,99,100
 244 714 244 714 214 714 c 1,101,-1
 214 714 l 1,85,86
71 857 m 1,102,103
 42 857 42 857 21 878 c 0,104,105
 0 899 0 899 0 929 c 256,106,107
 0 959 0 959 21 979 c 0,108,109
 42 1000 42 1000 71 1000 c 0,110,111
 101 1000 101 1000 121 979 c 256,112,113
 142 958 142 958 143 929 c 256,114,115
 143 899 143 899 121 878 c 256,116,117
 100 857 100 857 71 857 c 1,118,-1
 71 857 l 1,102,103
EndSplineSet
Validated: 37
EndChar

StartChar: five
Encoding: 53 53 17
Width: 999
VWidth: 714
Flags: W
LayerCount: 2
Fore
SplineSet
643 143 m 1,0,1
 613 143 613 143 592 164 c 256,2,3
 571 185 571 185 571 214 c 256,4,5
 571 244 571 244 592 265 c 256,6,7
 613 286 613 286 643 286 c 0,8,9
 672 286 672 286 694 265 c 0,10,11
 715 244 715 244 714 214 c 256,12,13
 714 184 714 184 694 164 c 0,14,15
 673 143 673 143 643 143 c 1,16,-1
 643 143 l 1,0,1
786 143 m 1,17,18
 757 143 757 143 735 164 c 0,19,20
 714 185 714 185 714 214 c 256,21,22
 714 244 714 244 735 265 c 0,23,24
 756 286 756 286 786 286 c 0,25,26
 816 286 816 286 836 265 c 256,27,28
 857 244 857 244 857 214 c 256,29,30
 857 184 857 184 836 164 c 256,31,32
 815 143 815 143 786 143 c 1,33,-1
 786 143 l 1,17,18
643 286 m 1,34,35
 613 286 613 286 592 306 c 256,36,37
 571 327 571 327 571 357 c 0,38,39
 571 386 571 386 592 407 c 256,40,41
 613 428 613 428 643 429 c 0,42,43
 672 429 672 429 694 407 c 0,44,45
 715 386 715 386 714 357 c 0,46,47
 714 327 714 327 694 306 c 0,48,49
 673 285 673 285 643 286 c 1,50,-1
 643 286 l 1,34,35
786 286 m 1,51,52
 757 286 757 286 735 306 c 0,53,54
 714 327 714 327 714 357 c 0,55,56
 714 386 714 386 735 407 c 0,57,58
 756 428 756 428 786 429 c 0,59,60
 816 429 816 429 836 407 c 256,61,62
 857 386 857 386 857 357 c 0,63,64
 857 327 857 327 836 306 c 256,65,66
 815 285 815 285 786 286 c 1,67,-1
 786 286 l 1,51,52
214 571 m 1,68,69
 184 571 184 571 164 592 c 256,70,71
 143 613 143 613 143 643 c 0,72,73
 143 672 143 672 164 694 c 0,74,75
 185 715 185 715 214 714 c 256,76,77
 244 714 244 714 265 694 c 0,78,79
 286 673 286 673 286 643 c 0,80,81
 286 613 286 613 265 592 c 256,82,83
 244 571 244 571 214 571 c 1,84,-1
 214 571 l 1,68,69
71 714 m 1,85,86
 42 714 42 714 21 735 c 0,87,88
 0 756 0 756 0 786 c 0,89,90
 0 816 0 816 21 836 c 0,91,92
 42 857 42 857 71 857 c 0,93,94
 101 857 101 857 121 836 c 256,95,96
 142 815 142 815 143 786 c 0,97,98
 143 757 143 757 121 735 c 0,99,100
 100 714 100 714 71 714 c 1,101,-1
 71 714 l 1,85,86
71 857 m 1,102,103
 42 857 42 857 21 878 c 0,104,105
 0 899 0 899 0 929 c 256,106,107
 0 959 0 959 21 979 c 0,108,109
 42 1000 42 1000 71 1000 c 0,110,111
 101 1000 101 1000 121 979 c 256,112,113
 142 958 142 958 143 929 c 256,114,115
 143 899 143 899 121 878 c 256,116,117
 100 857 100 857 71 857 c 1,118,-1
 71 857 l 1,102,103
214 857 m 1,119,120
 184 857 184 857 164 878 c 256,121,122
 143 899 143 899 143 929 c 256,123,124
 143 959 143 959 164 979 c 256,125,126
 185 1000 185 1000 214 1000 c 256,127,128
 244 1000 244 1000 265 979 c 256,129,130
 286 958 286 958 286 929 c 256,131,132
 286 899 286 899 265 878 c 256,133,134
 244 857 244 857 214 857 c 1,135,-1
 214 857 l 1,119,120
EndSplineSet
Validated: 37
EndChar

StartChar: six
Encoding: 54 54 18
Width: 999
VWidth: 714
Flags: W
LayerCount: 2
Fore
SplineSet
786 0 m 1,0,1
 757 0 757 0 735 21 c 0,2,3
 714 42 714 42 714 71 c 0,4,5
 714 101 714 101 735 121 c 0,6,7
 756 142 756 142 786 143 c 0,8,9
 816 143 816 143 836 121 c 256,10,11
 857 100 857 100 857 71 c 0,12,13
 857 42 857 42 836 21 c 0,14,15
 815 0 815 0 786 0 c 1,16,-1
 786 0 l 1,0,1
643 143 m 1,17,18
 613 143 613 143 592 164 c 256,19,20
 571 185 571 185 571 214 c 256,21,22
 571 244 571 244 592 265 c 256,23,24
 613 286 613 286 643 286 c 0,25,26
 672 286 672 286 694 265 c 0,27,28
 715 244 715 244 714 214 c 256,29,30
 714 184 714 184 694 164 c 0,31,32
 673 143 673 143 643 143 c 1,33,-1
 643 143 l 1,17,18
786 143 m 1,34,35
 757 143 757 143 735 164 c 0,36,37
 714 185 714 185 714 214 c 256,38,39
 714 244 714 244 735 265 c 0,40,41
 756 286 756 286 786 286 c 0,42,43
 816 286 816 286 836 265 c 256,44,45
 857 244 857 244 857 214 c 256,46,47
 857 184 857 184 836 164 c 256,48,49
 815 143 815 143 786 143 c 1,50,-1
 786 143 l 1,34,35
643 286 m 1,51,52
 613 286 613 286 592 306 c 256,53,54
 571 327 571 327 571 357 c 0,55,56
 571 386 571 386 592 407 c 256,57,58
 613 428 613 428 643 429 c 0,59,60
 672 429 672 429 694 407 c 0,61,62
 715 386 715 386 714 357 c 0,63,64
 714 327 714 327 694 306 c 0,65,66
 673 285 673 285 643 286 c 1,67,-1
 643 286 l 1,51,52
786 286 m 1,68,69
 757 286 757 286 735 306 c 0,70,71
 714 327 714 327 714 357 c 0,72,73
 714 386 714 386 735 407 c 0,74,75
 756 428 756 428 786 429 c 0,76,77
 816 429 816 429 836 407 c 256,78,79
 857 386 857 386 857 357 c 0,80,81
 857 327 857 327 836 306 c 256,82,83
 815 285 815 285 786 286 c 1,84,-1
 786 286 l 1,68,69
71 571 m 1,85,86
 42 571 42 571 21 592 c 0,87,88
 0 613 0 613 0 643 c 0,89,90
 0 672 0 672 21 694 c 0,91,92
 42 715 42 715 71 714 c 0,93,94
 101 714 101 714 121 694 c 0,95,96
 142 673 142 673 143 643 c 0,97,98
 143 613 143 613 121 592 c 256,99,100
 100 571 100 571 71 571 c 1,101,-1
 71 571 l 1,85,86
214 571 m 1,102,103
 184 571 184 571 164 592 c 256,104,105
 143 613 143 613 143 643 c 0,106,107
 143 672 143 672 164 694 c 0,108,109
 185 715 185 715 214 714 c 256,110,111
 244 714 244 714 265 694 c 0,112,113
 286 673 286 673 286 643 c 0,114,115
 286 613 286 613 265 592 c 256,116,117
 244 571 244 571 214 571 c 1,118,-1
 214 571 l 1,102,103
71 714 m 1,119,120
 42 714 42 714 21 735 c 0,121,122
 0 756 0 756 0 786 c 0,123,124
 0 816 0 816 21 836 c 0,125,126
 42 857 42 857 71 857 c 0,127,128
 101 857 101 857 121 836 c 256,129,130
 142 815 142 815 143 786 c 0,131,132
 143 757 143 757 121 735 c 0,133,134
 100 714 100 714 71 714 c 1,135,-1
 71 714 l 1,119,120
214 714 m 1,136,137
 184 714 184 714 164 735 c 0,138,139
 143 756 143 756 143 786 c 0,140,141
 143 816 143 816 164 836 c 256,142,143
 185 857 185 857 214 857 c 256,144,145
 244 857 244 857 265 836 c 256,146,147
 286 815 286 815 286 786 c 0,148,149
 286 757 286 757 265 735 c 0,150,151
 244 714 244 714 214 714 c 1,152,-1
 214 714 l 1,136,137
71 857 m 1,153,154
 42 857 42 857 21 878 c 0,155,156
 0 899 0 899 0 929 c 256,157,158
 0 959 0 959 21 979 c 0,159,160
 42 1000 42 1000 71 1000 c 0,161,162
 101 1000 101 1000 121 979 c 256,163,164
 142 958 142 958 143 929 c 256,165,166
 143 899 143 899 121 878 c 256,167,168
 100 857 100 857 71 857 c 1,169,-1
 71 857 l 1,153,154
EndSplineSet
Validated: 37
EndChar

StartChar: seven
Encoding: 55 55 19
Width: 999
VWidth: 714
Flags: W
LayerCount: 2
Fore
SplineSet
643 0 m 1,0,1
 613 0 613 0 592 21 c 0,2,3
 571 42 571 42 571 71 c 0,4,5
 571 101 571 101 592 121 c 256,6,7
 613 142 613 142 643 143 c 0,8,9
 672 143 672 143 694 121 c 0,10,11
 715 100 715 100 714 71 c 0,12,13
 714 42 714 42 694 21 c 0,14,15
 673 0 673 0 643 0 c 1,16,-1
 643 0 l 1,0,1
643 143 m 1,17,18
 613 143 613 143 592 164 c 256,19,20
 571 185 571 185 571 214 c 256,21,22
 571 244 571 244 592 265 c 256,23,24
 613 286 613 286 643 286 c 0,25,26
 672 286 672 286 694 265 c 0,27,28
 715 244 715 244 714 214 c 256,29,30
 714 184 714 184 694 164 c 0,31,32
 673 143 673 143 643 143 c 1,33,-1
 643 143 l 1,17,18
643 286 m 1,34,35
 613 286 613 286 592 306 c 256,36,37
 571 327 571 327 571 357 c 0,38,39
 571 386 571 386 592 407 c 256,40,41
 613 428 613 428 643 429 c 0,42,43
 672 429 672 429 694 407 c 0,44,45
 715 386 715 386 714 357 c 0,46,47
 714 327 714 327 694 306 c 0,48,49
 673 285 673 285 643 286 c 1,50,-1
 643 286 l 1,34,35
786 286 m 1,51,52
 757 286 757 286 735 306 c 0,53,54
 714 327 714 327 714 357 c 0,55,56
 714 386 714 386 735 407 c 0,57,58
 756 428 756 428 786 429 c 0,59,60
 816 429 816 429 836 407 c 256,61,62
 857 386 857 386 857 357 c 0,63,64
 857 327 857 327 836 306 c 256,65,66
 815 285 815 285 786 286 c 1,67,-1
 786 286 l 1,51,52
71 571 m 1,68,69
 42 571 42 571 21 592 c 0,70,71
 0 613 0 613 0 643 c 0,72,73
 0 672 0 672 21 694 c 0,74,75
 42 715 42 715 71 714 c 0,76,77
 101 714 101 714 121 694 c 0,78,79
 142 673 142 673 143 643 c 0,80,81
 143 613 143 613 121 592 c 256,82,83
 100 571 100 571 71 571 c 1,84,-1
 71 571 l 1,68,69
214 714 m 1,85,86
 184 714 184 714 164 735 c 0,87,88
 143 756 143 756 143 786 c 0,89,90
 143 816 143 816 164 836 c 256,91,92
 185 857 185 857 214 857 c 256,93,94
 244 857 244 857 265 836 c 256,95,96
 286 815 286 815 286 786 c 0,97,98
 286 757 286 757 265 735 c 0,99,100
 244 714 244 714 214 714 c 1,101,-1
 214 714 l 1,85,86
71 857 m 1,102,103
 42 857 42 857 21 878 c 0,104,105
 0 899 0 899 0 929 c 256,106,107
 0 959 0 959 21 979 c 0,108,109
 42 1000 42 1000 71 1000 c 0,110,111
 101 1000 101 1000 121 979 c 256,112,113
 142 958 142 958 143 929 c 256,114,115
 143 899 143 899 121 878 c 256,116,117
 100 857 100 857 71 857 c 1,118,-1
 71 857 l 1,102,103
214 857 m 1,119,120
 184 857 184 857 164 878 c 256,121,122
 143 899 143 899 143 929 c 256,123,124
 143 959 143 959 164 979 c 256,125,126
 185 1000 185 1000 214 1000 c 256,127,128
 244 1000 244 1000 265 979 c 256,129,130
 286 958 286 958 286 929 c 256,131,132
 286 899 286 899 265 878 c 256,133,134
 244 857 244 857 214 857 c 1,135,-1
 214 857 l 1,119,120
EndSplineSet
Validated: 37
EndChar

StartChar: eight
Encoding: 56 56 20
Width: 999
VWidth: 714
Flags: W
LayerCount: 2
Fore
SplineSet
643 0 m 1,0,1
 613 0 613 0 592 21 c 0,2,3
 571 42 571 42 571 71 c 0,4,5
 571 101 571 101 592 121 c 256,6,7
 613 142 613 142 643 143 c 0,8,9
 672 143 672 143 694 121 c 0,10,11
 715 100 715 100 714 71 c 0,12,13
 714 42 714 42 694 21 c 0,14,15
 673 0 673 0 643 0 c 1,16,-1
 643 0 l 1,0,1
643 143 m 1,17,18
 613 143 613 143 592 164 c 256,19,20
 571 185 571 185 571 214 c 256,21,22
 571 244 571 244 592 265 c 256,23,24
 613 286 613 286 643 286 c 0,25,26
 672 286 672 286 694 265 c 0,27,28
 715 244 715 244 714 214 c 256,29,30
 714 184 714 184 694 164 c 0,31,32
 673 143 673 143 643 143 c 1,33,-1
 643 143 l 1,17,18
786 143 m 1,34,35
 757 143 757 143 735 164 c 0,36,37
 714 185 714 185 714 214 c 256,38,39
 714 244 714 244 735 265 c 0,40,41
 756 286 756 286 786 286 c 0,42,43
 816 286 816 286 836 265 c 256,44,45
 857 244 857 244 857 214 c 256,46,47
 857 184 857 184 836 164 c 256,48,49
 815 143 815 143 786 143 c 1,50,-1
 786 143 l 1,34,35
643 286 m 1,51,52
 613 286 613 286 592 306 c 256,53,54
 571 327 571 327 571 357 c 0,55,56
 571 386 571 386 592 407 c 256,57,58
 613 428 613 428 643 429 c 0,59,60
 672 429 672 429 694 407 c 0,61,62
 715 386 715 386 714 357 c 0,63,64
 714 327 714 327 694 306 c 0,65,66
 673 285 673 285 643 286 c 1,67,-1
 643 286 l 1,51,52
786 286 m 1,68,69
 757 286 757 286 735 306 c 0,70,71
 714 327 714 327 714 357 c 0,72,73
 714 386 714 386 735 407 c 0,74,75
 756 428 756 428 786 429 c 0,76,77
 816 429 816 429 836 407 c 256,78,79
 857 386 857 386 857 357 c 0,80,81
 857 327 857 327 836 306 c 256,82,83
 815 285 815 285 786 286 c 1,84,-1
 786 286 l 1,68,69
71 571 m 1,85,86
 42 571 42 571 21 592 c 0,87,88
 0 613 0 613 0 643 c 0,89,90
 0 672 0 672 21 694 c 0,91,92
 42 715 42 715 71 714 c 0,93,94
 101 714 101 714 121 694 c 0,95,96
 142 673 142 673 143 643 c 0,97,98
 143 613 143 613 121 592 c 256,99,100
 100 571 100 571 71 571 c 1,101,-1
 71 571 l 1,85,86
214 571 m 1,102,103
 184 571 184 571 164 592 c 256,104,105
 143 613 143 613 143 643 c 0,106,107
 143 672 143 672 164 694 c 0,108,109
 185 715 185 715 214 714 c 256,110,111
 244 714 244 714 265 694 c 0,112,113
 286 673 286 673 286 643 c 0,114,115
 286 613 286 613 265 592 c 256,116,117
 244 571 244 571 214 571 c 1,118,-1
 214 571 l 1,102,103
71 714 m 1,119,120
 42 714 42 714 21 735 c 0,121,122
 0 756 0 756 0 786 c 0,123,124
 0 816 0 816 21 836 c 0,125,126
 42 857 42 857 71 857 c 0,127,128
 101 857 101 857 121 836 c 256,129,130
 142 815 142 815 143 786 c 0,131,132
 143 757 143 757 121 735 c 0,133,134
 100 714 100 714 71 714 c 1,135,-1
 71 714 l 1,119,120
214 714 m 1,136,137
 184 714 184 714 164 735 c 0,138,139
 143 756 143 756 143 786 c 0,140,141
 143 816 143 816 164 836 c 256,142,143
 185 857 185 857 214 857 c 256,144,145
 244 857 244 857 265 836 c 256,146,147
 286 815 286 815 286 786 c 0,148,149
 286 757 286 757 265 735 c 0,150,151
 244 714 244 714 214 714 c 1,152,-1
 214 714 l 1,136,137
71 857 m 1,153,154
 42 857 42 857 21 878 c 0,155,156
 0 899 0 899 0 929 c 256,157,158
 0 959 0 959 21 979 c 0,159,160
 42 1000 42 1000 71 1000 c 0,161,162
 101 1000 101 1000 121 979 c 256,163,164
 142 958 142 958 143 929 c 256,165,166
 143 899 143 899 121 878 c 256,167,168
 100 857 100 857 71 857 c 1,169,-1
 71 857 l 1,153,154
214 857 m 1,170,171
 184 857 184 857 164 878 c 256,172,173
 143 899 143 899 143 929 c 256,174,175
 143 959 143 959 164 979 c 256,176,177
 185 1000 185 1000 214 1000 c 256,178,179
 244 1000 244 1000 265 979 c 256,180,181
 286 958 286 958 286 929 c 256,182,183
 286 899 286 899 265 878 c 256,184,185
 244 857 244 857 214 857 c 1,186,-1
 214 857 l 1,170,171
EndSplineSet
Validated: 37
EndChar

StartChar: nine
Encoding: 57 57 21
Width: 999
VWidth: 714
Flags: W
LayerCount: 2
Fore
SplineSet
643 0 m 1,0,1
 613 0 613 0 592 21 c 0,2,3
 571 42 571 42 571 71 c 0,4,5
 571 101 571 101 592 121 c 256,6,7
 613 142 613 142 643 143 c 0,8,9
 672 143 672 143 694 121 c 0,10,11
 715 100 715 100 714 71 c 0,12,13
 714 42 714 42 694 21 c 0,14,15
 673 0 673 0 643 0 c 1,16,-1
 643 0 l 1,0,1
786 0 m 1,17,18
 757 0 757 0 735 21 c 0,19,20
 714 42 714 42 714 71 c 0,21,22
 714 101 714 101 735 121 c 0,23,24
 756 142 756 142 786 143 c 0,25,26
 816 143 816 143 836 121 c 256,27,28
 857 100 857 100 857 71 c 0,29,30
 857 42 857 42 836 21 c 0,31,32
 815 0 815 0 786 0 c 1,33,-1
 786 0 l 1,17,18
643 143 m 1,34,35
 613 143 613 143 592 164 c 256,36,37
 571 185 571 185 571 214 c 256,38,39
 571 244 571 244 592 265 c 256,40,41
 613 286 613 286 643 286 c 0,42,43
 672 286 672 286 694 265 c 0,44,45
 715 244 715 244 714 214 c 256,46,47
 714 184 714 184 694 164 c 0,48,49
 673 143 673 143 643 143 c 1,50,-1
 643 143 l 1,34,35
786 143 m 1,51,52
 757 143 757 143 735 164 c 0,53,54
 714 185 714 185 714 214 c 256,55,56
 714 244 714 244 735 265 c 0,57,58
 756 286 756 286 786 286 c 0,59,60
 816 286 816 286 836 265 c 256,61,62
 857 244 857 244 857 214 c 256,63,64
 857 184 857 184 836 164 c 256,65,66
 815 143 815 143 786 143 c 1,67,-1
 786 143 l 1,51,52
643 286 m 1,68,69
 613 286 613 286 592 306 c 256,70,71
 571 327 571 327 571 357 c 0,72,73
 571 386 571 386 592 407 c 256,74,75
 613 428 613 428 643 429 c 0,76,77
 672 429 672 429 694 407 c 0,78,79
 715 386 715 386 714 357 c 0,80,81
 714 327 714 327 694 306 c 0,82,83
 673 285 673 285 643 286 c 1,84,-1
 643 286 l 1,68,69
786 286 m 1,85,86
 757 286 757 286 735 306 c 0,87,88
 714 327 714 327 714 357 c 0,89,90
 714 386 714 386 735 407 c 0,91,92
 756 428 756 428 786 429 c 0,93,94
 816 429 816 429 836 407 c 256,95,96
 857 386 857 386 857 357 c 0,97,98
 857 327 857 327 836 306 c 256,99,100
 815 285 815 285 786 286 c 1,101,-1
 786 286 l 1,85,86
214 571 m 1,102,103
 184 571 184 571 164 592 c 256,104,105
 143 613 143 613 143 643 c 0,106,107
 143 672 143 672 164 694 c 0,108,109
 185 715 185 715 214 714 c 256,110,111
 244 714 244 714 265 694 c 0,112,113
 286 673 286 673 286 643 c 0,114,115
 286 613 286 613 265 592 c 256,116,117
 244 571 244 571 214 571 c 1,118,-1
 214 571 l 1,102,103
71 714 m 1,119,120
 42 714 42 714 21 735 c 0,121,122
 0 756 0 756 0 786 c 0,123,124
 0 816 0 816 21 836 c 0,125,126
 42 857 42 857 71 857 c 0,127,128
 101 857 101 857 121 836 c 256,129,130
 142 815 142 815 143 786 c 0,131,132
 143 757 143 757 121 735 c 0,133,134
 100 714 100 714 71 714 c 1,135,-1
 71 714 l 1,119,120
214 714 m 1,136,137
 184 714 184 714 164 735 c 0,138,139
 143 756 143 756 143 786 c 0,140,141
 143 816 143 816 164 836 c 256,142,143
 185 857 185 857 214 857 c 256,144,145
 244 857 244 857 265 836 c 256,146,147
 286 815 286 815 286 786 c 0,148,149
 286 757 286 757 265 735 c 0,150,151
 244 714 244 714 214 714 c 1,152,-1
 214 714 l 1,136,137
71 857 m 1,153,154
 42 857 42 857 21 878 c 0,155,156
 0 899 0 899 0 929 c 256,157,158
 0 959 0 959 21 979 c 0,159,160
 42 1000 42 1000 71 1000 c 0,161,162
 101 1000 101 1000 121 979 c 256,163,164
 142 958 142 958 143 929 c 256,165,166
 143 899 143 899 121 878 c 256,167,168
 100 857 100 857 71 857 c 1,169,-1
 71 857 l 1,153,154
214 857 m 1,170,171
 184 857 184 857 164 878 c 256,172,173
 143 899 143 899 143 929 c 256,174,175
 143 959 143 959 164 979 c 256,176,177
 185 1000 185 1000 214 1000 c 256,178,179
 244 1000 244 1000 265 979 c 256,180,181
 286 958 286 958 286 929 c 256,182,183
 286 899 286 899 265 878 c 256,184,185
 244 857 244 857 214 857 c 1,186,-1
 214 857 l 1,170,171
EndSplineSet
Validated: 37
EndChar

StartChar: colon
Encoding: 58 58 22
Width: 999
VWidth: 714
Flags: W
LayerCount: 2
Fore
SplineSet
71 0 m 1,0,1
 42 0 42 0 21 21 c 0,2,3
 0 42 0 42 0 71 c 0,4,5
 0 101 0 101 21 121 c 0,6,7
 42 142 42 142 71 143 c 0,8,9
 101 143 101 143 121 121 c 256,10,11
 142 100 142 100 143 71 c 0,12,13
 143 42 143 42 121 21 c 0,14,15
 100 0 100 0 71 0 c 1,16,-1
 71 0 l 1,0,1
214 0 m 1,17,18
 184 0 184 0 164 21 c 0,19,20
 143 42 143 42 143 71 c 0,21,22
 143 101 143 101 164 121 c 256,23,24
 185 142 185 142 214 143 c 256,25,26
 244 143 244 143 265 121 c 256,27,28
 286 100 286 100 286 71 c 0,29,30
 286 42 286 42 265 21 c 0,31,32
 244 0 244 0 214 0 c 1,33,-1
 214 0 l 1,17,18
357 0 m 1,34,35
 327 0 327 0 306 21 c 0,36,37
 285 42 285 42 286 71 c 0,38,39
 286 101 286 101 306 121 c 256,40,41
 327 142 327 142 357 143 c 0,42,43
 386 143 386 143 407 121 c 256,44,45
 428 100 428 100 429 71 c 0,46,47
 429 42 429 42 407 21 c 0,48,49
 386 0 386 0 357 0 c 1,50,-1
 357 0 l 1,34,35
500 0 m 1,51,52
 470 0 470 0 449 21 c 0,53,54
 428 42 428 42 429 71 c 0,55,56
 429 101 429 101 449 121 c 256,57,58
 470 142 470 142 500 143 c 256,59,60
 530 143 530 143 551 121 c 256,61,62
 572 100 572 100 571 71 c 0,63,64
 571 42 571 42 551 21 c 0,65,66
 530 0 530 0 500 0 c 1,67,-1
 500 0 l 1,51,52
643 0 m 1,68,69
 613 0 613 0 592 21 c 0,70,71
 571 42 571 42 571 71 c 0,72,73
 571 101 571 101 592 121 c 256,74,75
 613 142 613 142 643 143 c 0,76,77
 672 143 672 143 694 121 c 0,78,79
 715 100 715 100 714 71 c 0,80,81
 714 42 714 42 694 21 c 0,82,83
 673 0 673 0 643 0 c 1,84,-1
 643 0 l 1,68,69
500 143 m 1,85,86
 470 143 470 143 449 164 c 256,87,88
 428 185 428 185 429 214 c 256,89,90
 429 244 429 244 449 265 c 256,91,92
 470 286 470 286 500 286 c 256,93,94
 530 286 530 286 551 265 c 256,95,96
 572 244 572 244 571 214 c 256,97,98
 571 184 571 184 551 164 c 256,99,100
 530 143 530 143 500 143 c 1,101,-1
 500 143 l 1,85,86
357 286 m 1,102,103
 327 286 327 286 306 306 c 256,104,105
 285 327 285 327 286 357 c 0,106,107
 286 386 286 386 306 407 c 256,108,109
 327 428 327 428 357 429 c 0,110,111
 386 429 386 429 407 407 c 256,112,113
 428 386 428 386 429 357 c 0,114,115
 429 327 429 327 407 306 c 256,116,117
 386 285 386 285 357 286 c 1,118,-1
 357 286 l 1,102,103
214 429 m 1,119,120
 184 429 184 429 164 449 c 256,121,122
 143 470 143 470 143 500 c 256,123,124
 143 530 143 530 164 551 c 256,125,126
 185 572 185 572 214 571 c 256,127,128
 244 571 244 571 265 551 c 256,129,130
 286 530 286 530 286 500 c 256,131,132
 286 470 286 470 265 449 c 256,133,134
 244 428 244 428 214 429 c 1,135,-1
 214 429 l 1,119,120
71 571 m 1,136,137
 42 571 42 571 21 592 c 0,138,139
 0 613 0 613 0 643 c 0,140,141
 0 672 0 672 21 694 c 0,142,143
 42 715 42 715 71 714 c 0,144,145
 101 714 101 714 121 694 c 0,146,147
 142 673 142 673 143 643 c 0,148,149
 143 613 143 613 121 592 c 256,150,151
 100 571 100 571 71 571 c 1,152,-1
 71 571 l 1,136,137
EndSplineSet
Validated: 37
EndChar

StartChar: semicolon
Encoding: 59 59 23
Width: 999
VWidth: 714
Flags: W
LayerCount: 2
Fore
SplineSet
357 0 m 1,0,1
 327 0 327 0 306 21 c 0,2,3
 285 42 285 42 286 71 c 0,4,5
 286 101 286 101 306 121 c 256,6,7
 327 142 327 142 357 143 c 0,8,9
 386 143 386 143 407 121 c 256,10,11
 428 100 428 100 429 71 c 0,12,13
 429 42 429 42 407 21 c 0,14,15
 386 0 386 0 357 0 c 1,16,-1
 357 0 l 1,0,1
357 143 m 1,17,18
 327 143 327 143 306 164 c 256,19,20
 285 185 285 185 286 214 c 256,21,22
 286 244 286 244 306 265 c 256,23,24
 327 286 327 286 357 286 c 0,25,26
 386 286 386 286 407 265 c 256,27,28
 428 244 428 244 429 214 c 256,29,30
 429 184 429 184 407 164 c 256,31,32
 386 143 386 143 357 143 c 1,33,-1
 357 143 l 1,17,18
357 286 m 1,34,35
 327 286 327 286 306 306 c 256,36,37
 285 327 285 327 286 357 c 0,38,39
 286 386 286 386 306 407 c 256,40,41
 327 428 327 428 357 429 c 0,42,43
 386 429 386 429 407 407 c 256,44,45
 428 386 428 386 429 357 c 0,46,47
 429 327 429 327 407 306 c 256,48,49
 386 285 386 285 357 286 c 1,50,-1
 357 286 l 1,34,35
357 429 m 1,51,52
 327 429 327 429 306 449 c 256,53,54
 285 470 285 470 286 500 c 256,55,56
 286 530 286 530 306 551 c 256,57,58
 327 572 327 572 357 571 c 0,59,60
 386 571 386 571 407 551 c 256,61,62
 428 530 428 530 429 500 c 256,63,64
 429 470 429 470 407 449 c 256,65,66
 386 428 386 428 357 429 c 1,67,-1
 357 429 l 1,51,52
357 571 m 1,68,69
 327 571 327 571 306 592 c 256,70,71
 285 613 285 613 286 643 c 0,72,73
 286 672 286 672 306 694 c 0,74,75
 327 715 327 715 357 714 c 0,76,77
 386 714 386 714 407 694 c 0,78,79
 428 673 428 673 429 643 c 0,80,81
 429 613 429 613 407 592 c 256,82,83
 386 571 386 571 357 571 c 1,84,-1
 357 571 l 1,68,69
357 714 m 1,85,86
 327 714 327 714 306 735 c 0,87,88
 285 756 285 756 286 786 c 0,89,90
 286 816 286 816 306 836 c 256,91,92
 327 857 327 857 357 857 c 0,93,94
 386 857 386 857 407 836 c 256,95,96
 428 815 428 815 429 786 c 0,97,98
 429 757 429 757 407 735 c 0,99,100
 386 714 386 714 357 714 c 1,101,-1
 357 714 l 1,85,86
357 857 m 1,102,103
 327 857 327 857 306 878 c 256,104,105
 285 899 285 899 286 929 c 256,106,107
 286 959 286 959 306 979 c 256,108,109
 327 1000 327 1000 357 1000 c 0,110,111
 386 1000 386 1000 407 979 c 256,112,113
 428 958 428 958 429 929 c 256,114,115
 429 899 429 899 407 878 c 256,116,117
 386 857 386 857 357 857 c 1,118,-1
 357 857 l 1,102,103
EndSplineSet
Validated: 37
EndChar

StartChar: question
Encoding: 63 63 24
Width: 999
VWidth: 714
Flags: W
LayerCount: 2
Fore
SplineSet
357 0 m 1,0,1
 327 0 327 0 306 21 c 0,2,3
 285 42 285 42 286 71 c 0,4,5
 286 101 286 101 306 121 c 256,6,7
 327 142 327 142 357 143 c 0,8,9
 386 143 386 143 407 121 c 256,10,11
 428 100 428 100 429 71 c 0,12,13
 429 42 429 42 407 21 c 0,14,15
 386 0 386 0 357 0 c 1,16,-1
 357 0 l 1,0,1
500 143 m 1,17,18
 470 143 470 143 449 164 c 256,19,20
 428 185 428 185 429 214 c 256,21,22
 429 244 429 244 449 265 c 256,23,24
 470 286 470 286 500 286 c 256,25,26
 530 286 530 286 551 265 c 256,27,28
 572 244 572 244 571 214 c 256,29,30
 571 184 571 184 551 164 c 256,31,32
 530 143 530 143 500 143 c 1,33,-1
 500 143 l 1,17,18
643 286 m 1,34,35
 613 286 613 286 592 306 c 256,36,37
 571 327 571 327 571 357 c 0,38,39
 571 386 571 386 592 407 c 256,40,41
 613 428 613 428 643 429 c 0,42,43
 672 429 672 429 694 407 c 0,44,45
 715 386 715 386 714 357 c 0,46,47
 714 327 714 327 694 306 c 0,48,49
 673 285 673 285 643 286 c 1,50,-1
 643 286 l 1,34,35
643 429 m 1,51,52
 613 429 613 429 592 449 c 256,53,54
 571 470 571 470 571 500 c 256,55,56
 571 530 571 530 592 551 c 256,57,58
 613 572 613 572 643 571 c 0,59,60
 672 571 672 571 694 551 c 0,61,62
 715 530 715 530 714 500 c 256,63,64
 714 470 714 470 694 449 c 0,65,66
 673 428 673 428 643 429 c 1,67,-1
 643 429 l 1,51,52
214 571 m 1,68,69
 184 571 184 571 164 592 c 256,70,71
 143 613 143 613 143 643 c 0,72,73
 143 672 143 672 164 694 c 0,74,75
 185 715 185 715 214 714 c 256,76,77
 244 714 244 714 265 694 c 0,78,79
 286 673 286 673 286 643 c 0,80,81
 286 613 286 613 265 592 c 256,82,83
 244 571 244 571 214 571 c 1,84,-1
 214 571 l 1,68,69
643 571 m 1,85,86
 613 571 613 571 592 592 c 256,87,88
 571 613 571 613 571 643 c 0,89,90
 571 672 571 672 592 694 c 0,91,92
 613 715 613 715 643 714 c 0,93,94
 672 714 672 714 694 694 c 0,95,96
 715 673 715 673 714 643 c 0,97,98
 714 613 714 613 694 592 c 0,99,100
 673 571 673 571 643 571 c 1,101,-1
 643 571 l 1,85,86
214 714 m 1,102,103
 184 714 184 714 164 735 c 0,104,105
 143 756 143 756 143 786 c 0,106,107
 143 816 143 816 164 836 c 256,108,109
 185 857 185 857 214 857 c 256,110,111
 244 857 244 857 265 836 c 256,112,113
 286 815 286 815 286 786 c 0,114,115
 286 757 286 757 265 735 c 0,116,117
 244 714 244 714 214 714 c 1,118,-1
 214 714 l 1,102,103
643 714 m 1,119,120
 613 714 613 714 592 735 c 0,121,122
 571 756 571 756 571 786 c 0,123,124
 571 816 571 816 592 836 c 256,125,126
 613 857 613 857 643 857 c 0,127,128
 672 857 672 857 694 836 c 0,129,130
 715 815 715 815 714 786 c 0,131,132
 714 757 714 757 694 735 c 0,133,134
 673 714 673 714 643 714 c 1,135,-1
 643 714 l 1,119,120
357 857 m 1,136,137
 327 857 327 857 306 878 c 256,138,139
 285 899 285 899 286 929 c 256,140,141
 286 959 286 959 306 979 c 256,142,143
 327 1000 327 1000 357 1000 c 0,144,145
 386 1000 386 1000 407 979 c 256,146,147
 428 958 428 958 429 929 c 256,148,149
 429 899 429 899 407 878 c 256,150,151
 386 857 386 857 357 857 c 1,152,-1
 357 857 l 1,136,137
500 857 m 1,153,154
 470 857 470 857 449 878 c 256,155,156
 428 899 428 899 429 929 c 256,157,158
 429 959 429 959 449 979 c 256,159,160
 470 1000 470 1000 500 1000 c 256,161,162
 530 1000 530 1000 551 979 c 256,163,164
 572 958 572 958 571 929 c 256,165,166
 571 899 571 899 551 878 c 256,167,168
 530 857 530 857 500 857 c 1,169,-1
 500 857 l 1,153,154
EndSplineSet
Validated: 37
EndChar

StartChar: A
Encoding: 65 65 25
Width: 999
VWidth: 714
Flags: W
LayerCount: 2
Fore
SplineSet
71 0 m 1,0,1
 42 0 42 0 21 21 c 0,2,3
 0 42 0 42 0 71 c 0,4,5
 0 101 0 101 21 121 c 0,6,7
 42 142 42 142 71 143 c 0,8,9
 101 143 101 143 121 121 c 256,10,11
 142 100 142 100 143 71 c 0,12,13
 143 42 143 42 121 21 c 0,14,15
 100 0 100 0 71 0 c 1,16,-1
 71 0 l 1,0,1
786 0 m 1,17,18
 757 0 757 0 735 21 c 0,19,20
 714 42 714 42 714 71 c 0,21,22
 714 101 714 101 735 121 c 0,23,24
 756 142 756 142 786 143 c 0,25,26
 816 143 816 143 836 121 c 256,27,28
 857 100 857 100 857 71 c 0,29,30
 857 42 857 42 836 21 c 0,31,32
 815 0 815 0 786 0 c 1,33,-1
 786 0 l 1,17,18
71 143 m 1,34,35
 42 143 42 143 21 164 c 0,36,37
 0 185 0 185 0 214 c 256,38,39
 0 244 0 244 21 265 c 0,40,41
 42 286 42 286 71 286 c 0,42,43
 101 286 101 286 121 265 c 256,44,45
 142 244 142 244 143 214 c 256,46,47
 143 184 143 184 121 164 c 256,48,49
 100 143 100 143 71 143 c 1,50,-1
 71 143 l 1,34,35
643 143 m 1,51,52
 613 143 613 143 592 164 c 256,53,54
 571 185 571 185 571 214 c 256,55,56
 571 244 571 244 592 265 c 256,57,58
 613 286 613 286 643 286 c 0,59,60
 672 286 672 286 694 265 c 0,61,62
 715 244 715 244 714 214 c 256,63,64
 714 184 714 184 694 164 c 0,65,66
 673 143 673 143 643 143 c 1,67,-1
 643 143 l 1,51,52
71 286 m 1,68,69
 42 286 42 286 21 306 c 0,70,71
 0 327 0 327 0 357 c 0,72,73
 0 386 0 386 21 407 c 0,74,75
 42 428 42 428 71 429 c 0,76,77
 101 429 101 429 121 407 c 256,78,79
 142 386 142 386 143 357 c 0,80,81
 143 327 143 327 121 306 c 256,82,83
 100 285 100 285 71 286 c 1,84,-1
 71 286 l 1,68,69
214 286 m 1,85,86
 184 286 184 286 164 306 c 256,87,88
 143 327 143 327 143 357 c 0,89,90
 143 386 143 386 164 407 c 256,91,92
 185 428 185 428 214 429 c 256,93,94
 244 429 244 429 265 407 c 256,95,96
 286 386 286 386 286 357 c 0,97,98
 286 327 286 327 265 306 c 256,99,100
 244 285 244 285 214 286 c 1,101,-1
 214 286 l 1,85,86
357 286 m 1,102,103
 327 286 327 286 306 306 c 256,104,105
 285 327 285 327 286 357 c 0,106,107
 286 386 286 386 306 407 c 256,108,109
 327 428 327 428 357 429 c 0,110,111
 386 429 386 429 407 407 c 256,112,113
 428 386 428 386 429 357 c 0,114,115
 429 327 429 327 407 306 c 256,116,117
 386 285 386 285 357 286 c 1,118,-1
 357 286 l 1,102,103
500 286 m 1,119,120
 470 286 470 286 449 306 c 256,121,122
 428 327 428 327 429 357 c 0,123,124
 429 386 429 386 449 407 c 256,125,126
 470 428 470 428 500 429 c 256,127,128
 530 429 530 429 551 407 c 256,129,130
 572 386 572 386 571 357 c 0,131,132
 571 327 571 327 551 306 c 256,133,134
 530 285 530 285 500 286 c 1,135,-1
 500 286 l 1,119,120
71 571 m 1,136,137
 42 571 42 571 21 592 c 0,138,139
 0 613 0 613 0 643 c 0,140,141
 0 672 0 672 21 694 c 0,142,143
 42 715 42 715 71 714 c 0,144,145
 101 714 101 714 121 694 c 0,146,147
 142 673 142 673 143 643 c 0,148,149
 143 613 143 613 121 592 c 256,150,151
 100 571 100 571 71 571 c 1,152,-1
 71 571 l 1,136,137
214 571 m 1,153,154
 184 571 184 571 164 592 c 256,155,156
 143 613 143 613 143 643 c 0,157,158
 143 672 143 672 164 694 c 0,159,160
 185 715 185 715 214 714 c 256,161,162
 244 714 244 714 265 694 c 0,163,164
 286 673 286 673 286 643 c 0,165,166
 286 613 286 613 265 592 c 256,167,168
 244 571 244 571 214 571 c 1,169,-1
 214 571 l 1,153,154
357 571 m 1,170,171
 327 571 327 571 306 592 c 256,172,173
 285 613 285 613 286 643 c 0,174,175
 286 672 286 672 306 694 c 0,176,177
 327 715 327 715 357 714 c 0,178,179
 386 714 386 714 407 694 c 0,180,181
 428 673 428 673 429 643 c 0,182,183
 429 613 429 613 407 592 c 256,184,185
 386 571 386 571 357 571 c 1,186,-1
 357 571 l 1,170,171
500 571 m 1,187,188
 470 571 470 571 449 592 c 256,189,190
 428 613 428 613 429 643 c 0,191,192
 429 672 429 672 449 694 c 0,193,194
 470 715 470 715 500 714 c 256,195,196
 530 714 530 714 551 694 c 0,197,198
 572 673 572 673 571 643 c 0,199,200
 571 613 571 613 551 592 c 256,201,202
 530 571 530 571 500 571 c 1,203,-1
 500 571 l 1,187,188
71 714 m 1,204,205
 42 714 42 714 21 735 c 0,206,207
 0 756 0 756 0 786 c 0,208,209
 0 816 0 816 21 836 c 0,210,211
 42 857 42 857 71 857 c 0,212,213
 101 857 101 857 121 836 c 256,214,215
 142 815 142 815 143 786 c 0,216,217
 143 757 143 757 121 735 c 0,218,219
 100 714 100 714 71 714 c 1,220,-1
 71 714 l 1,204,205
643 714 m 1,221,222
 613 714 613 714 592 735 c 0,223,224
 571 756 571 756 571 786 c 0,225,226
 571 816 571 816 592 836 c 256,227,228
 613 857 613 857 643 857 c 0,229,230
 672 857 672 857 694 836 c 0,231,232
 715 815 715 815 714 786 c 0,233,234
 714 757 714 757 694 735 c 0,235,236
 673 714 673 714 643 714 c 1,237,-1
 643 714 l 1,221,222
71 857 m 1,238,239
 42 857 42 857 21 878 c 0,240,241
 0 899 0 899 0 929 c 256,242,243
 0 959 0 959 21 979 c 0,244,245
 42 1000 42 1000 71 1000 c 0,246,247
 101 1000 101 1000 121 979 c 256,248,249
 142 958 142 958 143 929 c 256,250,251
 143 899 143 899 121 878 c 256,252,253
 100 857 100 857 71 857 c 1,254,-1
 71 857 l 1,238,239
786 857 m 1,255,256
 757 857 757 857 735 878 c 0,257,258
 714 899 714 899 714 929 c 256,259,260
 714 959 714 959 735 979 c 0,261,262
 756 1000 756 1000 786 1000 c 0,263,264
 816 1000 816 1000 836 979 c 256,265,266
 857 958 857 958 857 929 c 256,267,268
 857 899 857 899 836 878 c 256,269,270
 815 857 815 857 786 857 c 1,271,-1
 786 857 l 1,255,256
EndSplineSet
Validated: 37
EndChar

StartChar: B
Encoding: 66 66 26
Width: 999
VWidth: 714
Flags: W
LayerCount: 2
Fore
SplineSet
214 0 m 1,0,1
 184 0 184 0 164 21 c 0,2,3
 143 42 143 42 143 71 c 0,4,5
 143 101 143 101 164 121 c 256,6,7
 185 142 185 142 214 143 c 256,8,9
 244 143 244 143 265 121 c 256,10,11
 286 100 286 100 286 71 c 0,12,13
 286 42 286 42 265 21 c 0,14,15
 244 0 244 0 214 0 c 1,16,-1
 214 0 l 1,0,1
357 0 m 1,17,18
 327 0 327 0 306 21 c 0,19,20
 285 42 285 42 286 71 c 0,21,22
 286 101 286 101 306 121 c 256,23,24
 327 142 327 142 357 143 c 0,25,26
 386 143 386 143 407 121 c 256,27,28
 428 100 428 100 429 71 c 0,29,30
 429 42 429 42 407 21 c 0,31,32
 386 0 386 0 357 0 c 1,33,-1
 357 0 l 1,17,18
500 0 m 1,34,35
 470 0 470 0 449 21 c 0,36,37
 428 42 428 42 429 71 c 0,38,39
 429 101 429 101 449 121 c 256,40,41
 470 142 470 142 500 143 c 256,42,43
 530 143 530 143 551 121 c 256,44,45
 572 100 572 100 571 71 c 0,46,47
 571 42 571 42 551 21 c 0,48,49
 530 0 530 0 500 0 c 1,50,-1
 500 0 l 1,34,35
643 0 m 1,51,52
 613 0 613 0 592 21 c 0,53,54
 571 42 571 42 571 71 c 0,55,56
 571 101 571 101 592 121 c 256,57,58
 613 142 613 142 643 143 c 0,59,60
 672 143 672 143 694 121 c 0,61,62
 715 100 715 100 714 71 c 0,63,64
 714 42 714 42 694 21 c 0,65,66
 673 0 673 0 643 0 c 1,67,-1
 643 0 l 1,51,52
71 143 m 1,68,69
 42 143 42 143 21 164 c 0,70,71
 0 185 0 185 0 214 c 256,72,73
 0 244 0 244 21 265 c 0,74,75
 42 286 42 286 71 286 c 0,76,77
 101 286 101 286 121 265 c 256,78,79
 142 244 142 244 143 214 c 256,80,81
 143 184 143 184 121 164 c 256,82,83
 100 143 100 143 71 143 c 1,84,-1
 71 143 l 1,68,69
786 143 m 1,85,86
 757 143 757 143 735 164 c 0,87,88
 714 185 714 185 714 214 c 256,89,90
 714 244 714 244 735 265 c 0,91,92
 756 286 756 286 786 286 c 0,93,94
 816 286 816 286 836 265 c 256,95,96
 857 244 857 244 857 214 c 256,97,98
 857 184 857 184 836 164 c 256,99,100
 815 143 815 143 786 143 c 1,101,-1
 786 143 l 1,85,86
214 429 m 1,102,103
 184 429 184 429 164 449 c 256,104,105
 143 470 143 470 143 500 c 256,106,107
 143 530 143 530 164 551 c 256,108,109
 185 572 185 572 214 571 c 256,110,111
 244 571 244 571 265 551 c 256,112,113
 286 530 286 530 286 500 c 256,114,115
 286 470 286 470 265 449 c 256,116,117
 244 428 244 428 214 429 c 1,118,-1
 214 429 l 1,102,103
357 429 m 1,119,120
 327 429 327 429 306 449 c 256,121,122
 285 470 285 470 286 500 c 256,123,124
 286 530 286 530 306 551 c 256,125,126
 327 572 327 572 357 571 c 0,127,128
 386 571 386 571 407 551 c 256,129,130
 428 530 428 530 429 500 c 256,131,132
 429 470 429 470 407 449 c 256,133,134
 386 428 386 428 357 429 c 1,135,-1
 357 429 l 1,119,120
500 429 m 1,136,137
 470 429 470 429 449 449 c 256,138,139
 428 470 428 470 429 500 c 256,140,141
 429 530 429 530 449 551 c 256,142,143
 470 572 470 572 500 571 c 256,144,145
 530 571 530 571 551 551 c 256,146,147
 572 530 572 530 571 500 c 256,148,149
 571 470 571 470 551 449 c 256,150,151
 530 428 530 428 500 429 c 1,152,-1
 500 429 l 1,136,137
643 429 m 1,153,154
 613 429 613 429 592 449 c 256,155,156
 571 470 571 470 571 500 c 256,157,158
 571 530 571 530 592 551 c 256,159,160
 613 572 613 572 643 571 c 0,161,162
 672 571 672 571 694 551 c 0,163,164
 715 530 715 530 714 500 c 256,165,166
 714 470 714 470 694 449 c 0,167,168
 673 428 673 428 643 429 c 1,169,-1
 643 429 l 1,153,154
71 714 m 1,170,171
 42 714 42 714 21 735 c 0,172,173
 0 756 0 756 0 786 c 0,174,175
 0 816 0 816 21 836 c 0,176,177
 42 857 42 857 71 857 c 0,178,179
 101 857 101 857 121 836 c 256,180,181
 142 815 142 815 143 786 c 0,182,183
 143 757 143 757 121 735 c 0,184,185
 100 714 100 714 71 714 c 1,186,-1
 71 714 l 1,170,171
786 714 m 1,187,188
 757 714 757 714 735 735 c 0,189,190
 714 756 714 756 714 786 c 0,191,192
 714 816 714 816 735 836 c 0,193,194
 756 857 756 857 786 857 c 0,195,196
 816 857 816 857 836 836 c 256,197,198
 857 815 857 815 857 786 c 0,199,200
 857 757 857 757 836 735 c 0,201,202
 815 714 815 714 786 714 c 1,203,-1
 786 714 l 1,187,188
214 857 m 1,204,205
 184 857 184 857 164 878 c 256,206,207
 143 899 143 899 143 929 c 256,208,209
 143 959 143 959 164 979 c 256,210,211
 185 1000 185 1000 214 1000 c 256,212,213
 244 1000 244 1000 265 979 c 256,214,215
 286 958 286 958 286 929 c 256,216,217
 286 899 286 899 265 878 c 256,218,219
 244 857 244 857 214 857 c 1,220,-1
 214 857 l 1,204,205
357 857 m 1,221,222
 327 857 327 857 306 878 c 256,223,224
 285 899 285 899 286 929 c 256,225,226
 286 959 286 959 306 979 c 256,227,228
 327 1000 327 1000 357 1000 c 0,229,230
 386 1000 386 1000 407 979 c 256,231,232
 428 958 428 958 429 929 c 256,233,234
 429 899 429 899 407 878 c 256,235,236
 386 857 386 857 357 857 c 1,237,-1
 357 857 l 1,221,222
500 857 m 1,238,239
 470 857 470 857 449 878 c 256,240,241
 428 899 428 899 429 929 c 256,242,243
 429 959 429 959 449 979 c 256,244,245
 470 1000 470 1000 500 1000 c 256,246,247
 530 1000 530 1000 551 979 c 256,248,249
 572 958 572 958 571 929 c 256,250,251
 571 899 571 899 551 878 c 256,252,253
 530 857 530 857 500 857 c 1,254,-1
 500 857 l 1,238,239
643 857 m 1,255,256
 613 857 613 857 592 878 c 256,257,258
 571 899 571 899 571 929 c 256,259,260
 571 959 571 959 592 979 c 256,261,262
 613 1000 613 1000 643 1000 c 0,263,264
 672 1000 672 1000 694 979 c 0,265,266
 715 958 715 958 714 929 c 256,267,268
 714 899 714 899 694 878 c 0,269,270
 673 857 673 857 643 857 c 1,271,-1
 643 857 l 1,255,256
EndSplineSet
Validated: 37
EndChar

StartChar: C
Encoding: 67 67 27
Width: 999
VWidth: 714
Flags: W
LayerCount: 2
Fore
SplineSet
786 0 m 1,0,1
 757 0 757 0 735 21 c 0,2,3
 714 42 714 42 714 71 c 0,4,5
 714 101 714 101 735 121 c 0,6,7
 756 142 756 142 786 143 c 0,8,9
 816 143 816 143 836 121 c 256,10,11
 857 100 857 100 857 71 c 0,12,13
 857 42 857 42 836 21 c 0,14,15
 815 0 815 0 786 0 c 1,16,-1
 786 0 l 1,0,1
786 143 m 1,17,18
 757 143 757 143 735 164 c 0,19,20
 714 185 714 185 714 214 c 256,21,22
 714 244 714 244 735 265 c 0,23,24
 756 286 756 286 786 286 c 0,25,26
 816 286 816 286 836 265 c 256,27,28
 857 244 857 244 857 214 c 256,29,30
 857 184 857 184 836 164 c 256,31,32
 815 143 815 143 786 143 c 1,33,-1
 786 143 l 1,17,18
214 286 m 1,34,35
 184 286 184 286 164 306 c 256,36,37
 143 327 143 327 143 357 c 0,38,39
 143 386 143 386 164 407 c 256,40,41
 185 428 185 428 214 429 c 256,42,43
 244 429 244 429 265 407 c 256,44,45
 286 386 286 386 286 357 c 0,46,47
 286 327 286 327 265 306 c 256,48,49
 244 285 244 285 214 286 c 1,50,-1
 214 286 l 1,34,35
500 286 m 1,51,52
 470 286 470 286 449 306 c 256,53,54
 428 327 428 327 429 357 c 0,55,56
 429 386 429 386 449 407 c 256,57,58
 470 428 470 428 500 429 c 256,59,60
 530 429 530 429 551 407 c 256,61,62
 572 386 572 386 571 357 c 0,63,64
 571 327 571 327 551 306 c 256,65,66
 530 285 530 285 500 286 c 1,67,-1
 500 286 l 1,51,52
786 286 m 1,68,69
 757 286 757 286 735 306 c 0,70,71
 714 327 714 327 714 357 c 0,72,73
 714 386 714 386 735 407 c 0,74,75
 756 428 756 428 786 429 c 0,76,77
 816 429 816 429 836 407 c 256,78,79
 857 386 857 386 857 357 c 0,80,81
 857 327 857 327 836 306 c 256,82,83
 815 285 815 285 786 286 c 1,84,-1
 786 286 l 1,68,69
214 429 m 1,85,86
 184 429 184 429 164 449 c 256,87,88
 143 470 143 470 143 500 c 256,89,90
 143 530 143 530 164 551 c 256,91,92
 185 572 185 572 214 571 c 256,93,94
 244 571 244 571 265 551 c 256,95,96
 286 530 286 530 286 500 c 256,97,98
 286 470 286 470 265 449 c 256,99,100
 244 428 244 428 214 429 c 1,101,-1
 214 429 l 1,85,86
500 429 m 1,102,103
 470 429 470 429 449 449 c 256,104,105
 428 470 428 470 429 500 c 256,106,107
 429 530 429 530 449 551 c 256,108,109
 470 572 470 572 500 571 c 256,110,111
 530 571 530 571 551 551 c 256,112,113
 572 530 572 530 571 500 c 256,114,115
 571 470 571 470 551 449 c 256,116,117
 530 428 530 428 500 429 c 1,118,-1
 500 429 l 1,102,103
786 429 m 1,119,120
 757 429 757 429 735 449 c 0,121,122
 714 470 714 470 714 500 c 256,123,124
 714 530 714 530 735 551 c 0,125,126
 756 572 756 572 786 571 c 0,127,128
 816 571 816 571 836 551 c 256,129,130
 857 530 857 530 857 500 c 256,131,132
 857 470 857 470 836 449 c 256,133,134
 815 428 815 428 786 429 c 1,135,-1
 786 429 l 1,119,120
214 571 m 1,136,137
 184 571 184 571 164 592 c 256,138,139
 143 613 143 613 143 643 c 0,140,141
 143 672 143 672 164 694 c 0,142,143
 185 715 185 715 214 714 c 256,144,145
 244 714 244 714 265 694 c 0,146,147
 286 673 286 673 286 643 c 0,148,149
 286 613 286 613 265 592 c 256,150,151
 244 571 244 571 214 571 c 1,152,-1
 214 571 l 1,136,137
500 571 m 1,153,154
 470 571 470 571 449 592 c 256,155,156
 428 613 428 613 429 643 c 0,157,158
 429 672 429 672 449 694 c 0,159,160
 470 715 470 715 500 714 c 256,161,162
 530 714 530 714 551 694 c 0,163,164
 572 673 572 673 571 643 c 0,165,166
 571 613 571 613 551 592 c 256,167,168
 530 571 530 571 500 571 c 1,169,-1
 500 571 l 1,153,154
786 571 m 1,170,171
 757 571 757 571 735 592 c 0,172,173
 714 613 714 613 714 643 c 0,174,175
 714 672 714 672 735 694 c 0,176,177
 756 715 756 715 786 714 c 0,178,179
 816 714 816 714 836 694 c 0,180,181
 857 673 857 673 857 643 c 0,182,183
 857 613 857 613 836 592 c 256,184,185
 815 571 815 571 786 571 c 1,186,-1
 786 571 l 1,170,171
214 714 m 1,187,188
 184 714 184 714 164 735 c 0,189,190
 143 756 143 756 143 786 c 0,191,192
 143 816 143 816 164 836 c 256,193,194
 185 857 185 857 214 857 c 256,195,196
 244 857 244 857 265 836 c 256,197,198
 286 815 286 815 286 786 c 0,199,200
 286 757 286 757 265 735 c 0,201,202
 244 714 244 714 214 714 c 1,203,-1
 214 714 l 1,187,188
71 857 m 1,204,205
 42 857 42 857 21 878 c 0,206,207
 0 899 0 899 0 929 c 256,208,209
 0 959 0 959 21 979 c 0,210,211
 42 1000 42 1000 71 1000 c 0,212,213
 101 1000 101 1000 121 979 c 256,214,215
 142 958 142 958 143 929 c 256,216,217
 143 899 143 899 121 878 c 256,218,219
 100 857 100 857 71 857 c 1,220,-1
 71 857 l 1,204,205
214 857 m 1,221,222
 184 857 184 857 164 878 c 256,223,224
 143 899 143 899 143 929 c 256,225,226
 143 959 143 959 164 979 c 256,227,228
 185 1000 185 1000 214 1000 c 256,229,230
 244 1000 244 1000 265 979 c 256,231,232
 286 958 286 958 286 929 c 256,233,234
 286 899 286 899 265 878 c 256,235,236
 244 857 244 857 214 857 c 1,237,-1
 214 857 l 1,221,222
EndSplineSet
Validated: 37
EndChar

StartChar: D
Encoding: 68 68 28
Width: 999
VWidth: 714
Flags: W
LayerCount: 2
Fore
SplineSet
357 0 m 1,0,1
 327 0 327 0 306 21 c 0,2,3
 285 42 285 42 286 71 c 0,4,5
 286 101 286 101 306 121 c 256,6,7
 327 142 327 142 357 143 c 0,8,9
 386 143 386 143 407 121 c 256,10,11
 428 100 428 100 429 71 c 0,12,13
 429 42 429 42 407 21 c 0,14,15
 386 0 386 0 357 0 c 1,16,-1
 357 0 l 1,0,1
357 143 m 1,17,18
 327 143 327 143 306 164 c 256,19,20
 285 185 285 185 286 214 c 256,21,22
 286 244 286 244 306 265 c 256,23,24
 327 286 327 286 357 286 c 0,25,26
 386 286 386 286 407 265 c 256,27,28
 428 244 428 244 429 214 c 256,29,30
 429 184 429 184 407 164 c 256,31,32
 386 143 386 143 357 143 c 1,33,-1
 357 143 l 1,17,18
500 286 m 1,34,35
 470 286 470 286 449 306 c 256,36,37
 428 327 428 327 429 357 c 0,38,39
 429 386 429 386 449 407 c 256,40,41
 470 428 470 428 500 429 c 256,42,43
 530 429 530 429 551 407 c 256,44,45
 572 386 572 386 571 357 c 0,46,47
 571 327 571 327 551 306 c 256,48,49
 530 285 530 285 500 286 c 1,50,-1
 500 286 l 1,34,35
214 429 m 1,51,52
 184 429 184 429 164 449 c 256,53,54
 143 470 143 470 143 500 c 256,55,56
 143 530 143 530 164 551 c 256,57,58
 185 572 185 572 214 571 c 256,59,60
 244 571 244 571 265 551 c 256,61,62
 286 530 286 530 286 500 c 256,63,64
 286 470 286 470 265 449 c 256,65,66
 244 428 244 428 214 429 c 1,67,-1
 214 429 l 1,51,52
357 429 m 1,68,69
 327 429 327 429 306 449 c 256,70,71
 285 470 285 470 286 500 c 256,72,73
 286 530 286 530 306 551 c 256,74,75
 327 572 327 572 357 571 c 0,76,77
 386 571 386 571 407 551 c 256,78,79
 428 530 428 530 429 500 c 256,80,81
 429 470 429 470 407 449 c 256,82,83
 386 428 386 428 357 429 c 1,84,-1
 357 429 l 1,68,69
500 429 m 1,85,86
 470 429 470 429 449 449 c 256,87,88
 428 470 428 470 429 500 c 256,89,90
 429 530 429 530 449 551 c 256,91,92
 470 572 470 572 500 571 c 256,93,94
 530 571 530 571 551 551 c 256,95,96
 572 530 572 530 571 500 c 256,97,98
 571 470 571 470 551 449 c 256,99,100
 530 428 530 428 500 429 c 1,101,-1
 500 429 l 1,85,86
643 571 m 1,102,103
 613 571 613 571 592 592 c 256,104,105
 571 613 571 613 571 643 c 0,106,107
 571 672 571 672 592 694 c 0,108,109
 613 715 613 715 643 714 c 0,110,111
 672 714 672 714 694 694 c 0,112,113
 715 673 715 673 714 643 c 0,114,115
 714 613 714 613 694 592 c 0,116,117
 673 571 673 571 643 571 c 1,118,-1
 643 571 l 1,102,103
643 714 m 1,119,120
 613 714 613 714 592 735 c 0,121,122
 571 756 571 756 571 786 c 0,123,124
 571 816 571 816 592 836 c 256,125,126
 613 857 613 857 643 857 c 0,127,128
 672 857 672 857 694 836 c 0,129,130
 715 815 715 815 714 786 c 0,131,132
 714 757 714 757 694 735 c 0,133,134
 673 714 673 714 643 714 c 1,135,-1
 643 714 l 1,119,120
71 857 m 1,136,137
 42 857 42 857 21 878 c 0,138,139
 0 899 0 899 0 929 c 256,140,141
 0 959 0 959 21 979 c 0,142,143
 42 1000 42 1000 71 1000 c 0,144,145
 101 1000 101 1000 121 979 c 256,146,147
 142 958 142 958 143 929 c 256,148,149
 143 899 143 899 121 878 c 256,150,151
 100 857 100 857 71 857 c 1,152,-1
 71 857 l 1,136,137
214 857 m 1,153,154
 184 857 184 857 164 878 c 256,155,156
 143 899 143 899 143 929 c 256,157,158
 143 959 143 959 164 979 c 256,159,160
 185 1000 185 1000 214 1000 c 256,161,162
 244 1000 244 1000 265 979 c 256,163,164
 286 958 286 958 286 929 c 256,165,166
 286 899 286 899 265 878 c 256,167,168
 244 857 244 857 214 857 c 1,169,-1
 214 857 l 1,153,154
357 857 m 1,170,171
 327 857 327 857 306 878 c 256,172,173
 285 899 285 899 286 929 c 256,174,175
 286 959 286 959 306 979 c 256,176,177
 327 1000 327 1000 357 1000 c 0,178,179
 386 1000 386 1000 407 979 c 256,180,181
 428 958 428 958 429 929 c 256,182,183
 429 899 429 899 407 878 c 256,184,185
 386 857 386 857 357 857 c 1,186,-1
 357 857 l 1,170,171
500 857 m 1,187,188
 470 857 470 857 449 878 c 256,189,190
 428 899 428 899 429 929 c 256,191,192
 429 959 429 959 449 979 c 256,193,194
 470 1000 470 1000 500 1000 c 256,195,196
 530 1000 530 1000 551 979 c 256,197,198
 572 958 572 958 571 929 c 256,199,200
 571 899 571 899 551 878 c 256,201,202
 530 857 530 857 500 857 c 1,203,-1
 500 857 l 1,187,188
643 857 m 1,204,205
 613 857 613 857 592 878 c 256,206,207
 571 899 571 899 571 929 c 256,208,209
 571 959 571 959 592 979 c 256,210,211
 613 1000 613 1000 643 1000 c 0,212,213
 672 1000 672 1000 694 979 c 0,214,215
 715 958 715 958 714 929 c 256,216,217
 714 899 714 899 694 878 c 0,218,219
 673 857 673 857 643 857 c 1,220,-1
 643 857 l 1,204,205
786 857 m 1,221,222
 757 857 757 857 735 878 c 0,223,224
 714 899 714 899 714 929 c 256,225,226
 714 959 714 959 735 979 c 0,227,228
 756 1000 756 1000 786 1000 c 0,229,230
 816 1000 816 1000 836 979 c 256,231,232
 857 958 857 958 857 929 c 256,233,234
 857 899 857 899 836 878 c 256,235,236
 815 857 815 857 786 857 c 1,237,-1
 786 857 l 1,221,222
EndSplineSet
Validated: 37
EndChar

StartChar: E
Encoding: 69 69 29
Width: 999
VWidth: 714
Flags: W
LayerCount: 2
Fore
SplineSet
214 0 m 1,0,1
 184 0 184 0 164 21 c 0,2,3
 143 42 143 42 143 71 c 0,4,5
 143 101 143 101 164 121 c 256,6,7
 185 142 185 142 214 143 c 256,8,9
 244 143 244 143 265 121 c 256,10,11
 286 100 286 100 286 71 c 0,12,13
 286 42 286 42 265 21 c 0,14,15
 244 0 244 0 214 0 c 1,16,-1
 214 0 l 1,0,1
643 0 m 1,17,18
 613 0 613 0 592 21 c 0,19,20
 571 42 571 42 571 71 c 0,21,22
 571 101 571 101 592 121 c 256,23,24
 613 142 613 142 643 143 c 0,25,26
 672 143 672 143 694 121 c 0,27,28
 715 100 715 100 714 71 c 0,29,30
 714 42 714 42 694 21 c 0,31,32
 673 0 673 0 643 0 c 1,33,-1
 643 0 l 1,17,18
214 143 m 1,34,35
 184 143 184 143 164 164 c 256,36,37
 143 185 143 185 143 214 c 256,38,39
 143 244 143 244 164 265 c 256,40,41
 185 286 185 286 214 286 c 256,42,43
 244 286 244 286 265 265 c 256,44,45
 286 244 286 244 286 214 c 256,46,47
 286 184 286 184 265 164 c 256,48,49
 244 143 244 143 214 143 c 1,50,-1
 214 143 l 1,34,35
643 143 m 1,51,52
 613 143 613 143 592 164 c 256,53,54
 571 185 571 185 571 214 c 256,55,56
 571 244 571 244 592 265 c 256,57,58
 613 286 613 286 643 286 c 0,59,60
 672 286 672 286 694 265 c 0,61,62
 715 244 715 244 714 214 c 256,63,64
 714 184 714 184 694 164 c 0,65,66
 673 143 673 143 643 143 c 1,67,-1
 643 143 l 1,51,52
71 286 m 1,68,69
 42 286 42 286 21 306 c 0,70,71
 0 327 0 327 0 357 c 0,72,73
 0 386 0 386 21 407 c 0,74,75
 42 428 42 428 71 429 c 0,76,77
 101 429 101 429 121 407 c 256,78,79
 142 386 142 386 143 357 c 0,80,81
 143 327 143 327 121 306 c 256,82,83
 100 285 100 285 71 286 c 1,84,-1
 71 286 l 1,68,69
357 286 m 1,85,86
 327 286 327 286 306 306 c 256,87,88
 285 327 285 327 286 357 c 0,89,90
 286 386 286 386 306 407 c 256,91,92
 327 428 327 428 357 429 c 0,93,94
 386 429 386 429 407 407 c 256,95,96
 428 386 428 386 429 357 c 0,97,98
 429 327 429 327 407 306 c 256,99,100
 386 285 386 285 357 286 c 1,101,-1
 357 286 l 1,85,86
643 286 m 1,102,103
 613 286 613 286 592 306 c 256,104,105
 571 327 571 327 571 357 c 0,106,107
 571 386 571 386 592 407 c 256,108,109
 613 428 613 428 643 429 c 0,110,111
 672 429 672 429 694 407 c 0,112,113
 715 386 715 386 714 357 c 0,114,115
 714 327 714 327 694 306 c 0,116,117
 673 285 673 285 643 286 c 1,118,-1
 643 286 l 1,102,103
71 429 m 1,119,120
 42 429 42 429 21 449 c 0,121,122
 0 470 0 470 0 500 c 256,123,124
 0 530 0 530 21 551 c 0,125,126
 42 572 42 572 71 571 c 0,127,128
 101 571 101 571 121 551 c 256,129,130
 142 530 142 530 143 500 c 256,131,132
 143 470 143 470 121 449 c 256,133,134
 100 428 100 428 71 429 c 1,135,-1
 71 429 l 1,119,120
357 429 m 1,136,137
 327 429 327 429 306 449 c 256,138,139
 285 470 285 470 286 500 c 256,140,141
 286 530 286 530 306 551 c 256,142,143
 327 572 327 572 357 571 c 0,144,145
 386 571 386 571 407 551 c 256,146,147
 428 530 428 530 429 500 c 256,148,149
 429 470 429 470 407 449 c 256,150,151
 386 428 386 428 357 429 c 1,152,-1
 357 429 l 1,136,137
643 429 m 1,153,154
 613 429 613 429 592 449 c 256,155,156
 571 470 571 470 571 500 c 256,157,158
 571 530 571 530 592 551 c 256,159,160
 613 572 613 572 643 571 c 0,161,162
 672 571 672 571 694 551 c 0,163,164
 715 530 715 530 714 500 c 256,165,166
 714 470 714 470 694 449 c 0,167,168
 673 428 673 428 643 429 c 1,169,-1
 643 429 l 1,153,154
71 571 m 1,170,171
 42 571 42 571 21 592 c 0,172,173
 0 613 0 613 0 643 c 0,174,175
 0 672 0 672 21 694 c 0,176,177
 42 715 42 715 71 714 c 0,178,179
 101 714 101 714 121 694 c 0,180,181
 142 673 142 673 143 643 c 0,182,183
 143 613 143 613 121 592 c 256,184,185
 100 571 100 571 71 571 c 1,186,-1
 71 571 l 1,170,171
357 571 m 1,187,188
 327 571 327 571 306 592 c 256,189,190
 285 613 285 613 286 643 c 0,191,192
 286 672 286 672 306 694 c 0,193,194
 327 715 327 715 357 714 c 0,195,196
 386 714 386 714 407 694 c 0,197,198
 428 673 428 673 429 643 c 0,199,200
 429 613 429 613 407 592 c 256,201,202
 386 571 386 571 357 571 c 1,203,-1
 357 571 l 1,187,188
643 571 m 1,204,205
 613 571 613 571 592 592 c 256,206,207
 571 613 571 613 571 643 c 0,208,209
 571 672 571 672 592 694 c 0,210,211
 613 715 613 715 643 714 c 0,212,213
 672 714 672 714 694 694 c 0,214,215
 715 673 715 673 714 643 c 0,216,217
 714 613 714 613 694 592 c 0,218,219
 673 571 673 571 643 571 c 1,220,-1
 643 571 l 1,204,205
71 714 m 1,221,222
 42 714 42 714 21 735 c 0,223,224
 0 756 0 756 0 786 c 0,225,226
 0 816 0 816 21 836 c 0,227,228
 42 857 42 857 71 857 c 0,229,230
 101 857 101 857 121 836 c 256,231,232
 142 815 142 815 143 786 c 0,233,234
 143 757 143 757 121 735 c 0,235,236
 100 714 100 714 71 714 c 1,237,-1
 71 714 l 1,221,222
357 714 m 1,238,239
 327 714 327 714 306 735 c 0,240,241
 285 756 285 756 286 786 c 0,242,243
 286 816 286 816 306 836 c 256,244,245
 327 857 327 857 357 857 c 0,246,247
 386 857 386 857 407 836 c 256,248,249
 428 815 428 815 429 786 c 0,250,251
 429 757 429 757 407 735 c 0,252,253
 386 714 386 714 357 714 c 1,254,-1
 357 714 l 1,238,239
643 714 m 1,255,256
 613 714 613 714 592 735 c 0,257,258
 571 756 571 756 571 786 c 0,259,260
 571 816 571 816 592 836 c 256,261,262
 613 857 613 857 643 857 c 0,263,264
 672 857 672 857 694 836 c 0,265,266
 715 815 715 815 714 786 c 0,267,268
 714 757 714 757 694 735 c 0,269,270
 673 714 673 714 643 714 c 1,271,-1
 643 714 l 1,255,256
71 857 m 1,272,273
 42 857 42 857 21 878 c 0,274,275
 0 899 0 899 0 929 c 256,276,277
 0 959 0 959 21 979 c 0,278,279
 42 1000 42 1000 71 1000 c 0,280,281
 101 1000 101 1000 121 979 c 256,282,283
 142 958 142 958 143 929 c 256,284,285
 143 899 143 899 121 878 c 256,286,287
 100 857 100 857 71 857 c 1,288,-1
 71 857 l 1,272,273
357 857 m 1,289,290
 327 857 327 857 306 878 c 256,291,292
 285 899 285 899 286 929 c 256,293,294
 286 959 286 959 306 979 c 256,295,296
 327 1000 327 1000 357 1000 c 0,297,298
 386 1000 386 1000 407 979 c 256,299,300
 428 958 428 958 429 929 c 256,301,302
 429 899 429 899 407 878 c 256,303,304
 386 857 386 857 357 857 c 1,305,-1
 357 857 l 1,289,290
500 857 m 1,306,307
 470 857 470 857 449 878 c 256,308,309
 428 899 428 899 429 929 c 256,310,311
 429 959 429 959 449 979 c 256,312,313
 470 1000 470 1000 500 1000 c 256,314,315
 530 1000 530 1000 551 979 c 256,316,317
 572 958 572 958 571 929 c 256,318,319
 571 899 571 899 551 878 c 256,320,321
 530 857 530 857 500 857 c 1,322,-1
 500 857 l 1,306,307
643 857 m 1,323,324
 613 857 613 857 592 878 c 256,325,326
 571 899 571 899 571 929 c 256,327,328
 571 959 571 959 592 979 c 256,329,330
 613 1000 613 1000 643 1000 c 0,331,332
 672 1000 672 1000 694 979 c 0,333,334
 715 958 715 958 714 929 c 256,335,336
 714 899 714 899 694 878 c 0,337,338
 673 857 673 857 643 857 c 1,339,-1
 643 857 l 1,323,324
786 857 m 1,340,341
 757 857 757 857 735 878 c 0,342,343
 714 899 714 899 714 929 c 256,344,345
 714 959 714 959 735 979 c 0,346,347
 756 1000 756 1000 786 1000 c 0,348,349
 816 1000 816 1000 836 979 c 256,350,351
 857 958 857 958 857 929 c 256,352,353
 857 899 857 899 836 878 c 256,354,355
 815 857 815 857 786 857 c 1,356,-1
 786 857 l 1,340,341
EndSplineSet
Validated: 37
EndChar

StartChar: F
Encoding: 70 70 30
Width: 999
VWidth: 714
Flags: W
LayerCount: 2
Fore
SplineSet
214 0 m 1,0,1
 184 0 184 0 164 21 c 0,2,3
 143 42 143 42 143 71 c 0,4,5
 143 101 143 101 164 121 c 256,6,7
 185 142 185 142 214 143 c 256,8,9
 244 143 244 143 265 121 c 256,10,11
 286 100 286 100 286 71 c 128,-1,13
 286 42 286 42 265 21 c 128,-1,15
 244 0 244 0 214 0 c 1,16,-1
 214 0 l 1,0,1
357 0 m 1,17,18
 327 0 327 0 306 21 c 128,-1,20
 285 42 285 42 286 71 c 0,21,22
 286 101 286 101 306 121 c 256,23,24
 327 142 327 142 357 143 c 0,25,26
 386 143 386 143 407 121 c 256,27,28
 428 100 428 100 429 71 c 0,29,30
 429 42 429 42 407 21 c 0,31,32
 386 0 386 0 357 0 c 1,33,-1
 357 0 l 1,17,18
643 0 m 1,34,35
 613 0 613 0 592 21 c 128,-1,37
 571 42 571 42 571 71 c 0,38,39
 571 101 571 101 592 121 c 256,40,41
 613 142 613 142 643 143 c 0,42,43
 672 143 672 143 694 121 c 0,44,45
 715 100 715 100 714 71 c 0,46,47
 714 42 714 42 694 21 c 0,48,49
 673 0 673 0 643 0 c 1,50,-1
 643 0 l 1,34,35
786 0 m 1,51,52
 757 0 757 0 735 21 c 0,53,54
 714 42 714 42 714 71 c 0,55,56
 714 101 714 101 735 121 c 0,57,58
 756 142 756 142 786 143 c 0,59,60
 816 143 816 143 836 121 c 256,61,62
 857 100 857 100 857 71 c 128,-1,64
 857 42 857 42 836 21 c 128,-1,66
 815 0 815 0 786 0 c 1,67,-1
 786 0 l 1,51,52
71 143 m 1,68,69
 42 143 42 143 21 164 c 128,-1,71
 0 185 0 185 0 214 c 256,72,73
 0 244 0 244 21 265 c 128,-1,75
 42 286 42 286 71 286 c 0,76,77
 101 286 101 286 121 265 c 256,78,79
 142 244 142 244 143 214 c 256,80,81
 143 184 143 184 121 164 c 256,82,83
 100 143 100 143 71 143 c 1,84,-1
 71 143 l 1,68,69
500 143 m 1,85,86
 470 143 470 143 449 164 c 256,87,88
 428 185 428 185 429 214 c 256,89,90
 429 244 429 244 449 265 c 256,91,92
 470 286 470 286 500 286 c 256,93,94
 530 286 530 286 551 265 c 256,95,96
 572 244 572 244 571 214 c 256,97,98
 571 184 571 184 551 164 c 256,99,100
 530 143 530 143 500 143 c 1,101,-1
 500 143 l 1,85,86
71 286 m 1,102,103
 42 286 42 286 21 306 c 0,104,105
 0 327 0 327 0 357 c 0,106,107
 0 386 0 386 21 407 c 128,-1,109
 42 428 42 428 71 429 c 0,110,111
 101 429 101 429 121 407 c 256,112,113
 142 386 142 386 143 357 c 0,114,115
 143 327 143 327 121 306 c 256,116,117
 100 285 100 285 71 286 c 1,118,-1
 71 286 l 1,102,103
500 286 m 1,119,120
 470 286 470 286 449 306 c 256,121,122
 428 327 428 327 429 357 c 0,123,124
 429 386 429 386 449 407 c 256,125,126
 470 428 470 428 500 429 c 256,127,128
 530 429 530 429 551 407 c 256,129,130
 572 386 572 386 571 357 c 0,131,132
 571 327 571 327 551 306 c 256,133,134
 530 285 530 285 500 286 c 1,135,-1
 500 286 l 1,119,120
71 429 m 1,136,137
 42 429 42 429 21 449 c 0,138,139
 0 470 0 470 0 500 c 256,140,141
 0 530 0 530 21 551 c 128,-1,143
 42 572 42 572 71 571 c 0,144,145
 101 571 101 571 121 551 c 256,146,147
 142 530 142 530 143 500 c 256,148,149
 143 470 143 470 121 449 c 256,150,151
 100 428 100 428 71 429 c 1,152,-1
 71 429 l 1,136,137
214 429 m 1,153,154
 184 429 184 429 164 449 c 256,155,156
 143 470 143 470 143 500 c 256,157,158
 143 530 143 530 164 551 c 256,159,160
 185 572 185 572 214 571 c 256,161,162
 244 571 244 571 265 551 c 256,163,164
 286 530 286 530 286 500 c 256,165,166
 286 470 286 470 265 449 c 256,167,168
 244 428 244 428 214 429 c 1,169,-1
 214 429 l 1,153,154
357 429 m 1,170,171
 327 429 327 429 306 449 c 256,172,173
 285 470 285 470 286 500 c 256,174,175
 286 530 286 530 306 551 c 256,176,177
 327 572 327 572 357 571 c 0,178,179
 386 571 386 571 407 551 c 256,180,181
 428 530 428 530 429 500 c 256,182,183
 429 470 429 470 407 449 c 256,184,185
 386 428 386 428 357 429 c 1,186,-1
 357 429 l 1,170,171
500 429 m 1,187,188
 470 429 470 429 449 449 c 256,189,190
 428 470 428 470 429 500 c 256,191,192
 429 530 429 530 449 551 c 256,193,194
 470 572 470 572 500 571 c 256,195,196
 530 571 530 571 551 551 c 256,197,198
 572 530 572 530 571 500 c 256,199,200
 571 470 571 470 551 449 c 256,201,202
 530 428 530 428 500 429 c 1,203,-1
 500 429 l 1,187,188
643 429 m 1,204,205
 613 429 613 429 592 449 c 256,206,207
 571 470 571 470 571 500 c 256,208,209
 571 530 571 530 592 551 c 256,210,211
 613 572 613 572 643 571 c 0,212,213
 672 571 672 571 694 551 c 0,214,215
 715 530 715 530 714 500 c 256,216,217
 714 470 714 470 694 449 c 0,218,219
 673 428 673 428 643 429 c 1,220,-1
 643 429 l 1,204,205
500 571 m 1,221,222
 470 571 470 571 449 592 c 256,223,224
 428 613 428 613 429 643 c 0,225,226
 429 672 429 672 449 694 c 0,227,228
 470 715 470 715 500 714 c 256,229,230
 530 714 530 714 551 694 c 0,231,232
 572 673 572 673 571 643 c 0,233,234
 571 613 571 613 551 592 c 256,235,236
 530 571 530 571 500 571 c 1,237,-1
 500 571 l 1,221,222
786 571 m 1,238,239
 757 571 757 571 735 592 c 0,240,241
 714 613 714 613 714 643 c 0,242,243
 714 672 714 672 735 694 c 0,244,245
 756 715 756 715 786 714 c 0,246,247
 816 714 816 714 836 694 c 0,248,249
 857 673 857 673 857 643 c 128,-1,251
 857 613 857 613 836 592 c 256,252,253
 815 571 815 571 786 571 c 1,254,-1
 786 571 l 1,238,239
500 714 m 1,255,256
 470 714 470 714 449 735 c 128,-1,258
 428 756 428 756 429 786 c 0,259,260
 429 816 429 816 449 836 c 256,261,262
 470 857 470 857 500 857 c 256,263,264
 530 857 530 857 551 836 c 256,265,266
 572 815 572 815 571 786 c 0,267,268
 571 757 571 757 551 735 c 0,269,270
 530 714 530 714 500 714 c 1,271,-1
 500 714 l 1,255,256
500 857 m 1,272,273
 470 857 470 857 449 878 c 256,274,275
 428 899 428 899 429 929 c 256,276,277
 429 959 429 959 449 979 c 256,278,279
 470 1000 470 1000 500 1000 c 256,280,281
 530 1000 530 1000 551 979 c 256,282,283
 572 958 572 958 571 929 c 256,284,285
 571 899 571 899 551 878 c 256,286,287
 530 857 530 857 500 857 c 1,288,-1
 500 857 l 1,272,273
EndSplineSet
Validated: 37
EndChar

StartChar: G
Encoding: 71 71 31
Width: 999
VWidth: 714
Flags: W
LayerCount: 2
Fore
SplineSet
71 0 m 1,0,1
 42 0 42 0 21 21 c 0,2,3
 0 42 0 42 0 71 c 0,4,5
 0 101 0 101 21 121 c 0,6,7
 42 142 42 142 71 143 c 0,8,9
 101 143 101 143 121 121 c 256,10,11
 142 100 142 100 143 71 c 0,12,13
 143 42 143 42 121 21 c 0,14,15
 100 0 100 0 71 0 c 1,16,-1
 71 0 l 1,0,1
214 0 m 1,17,18
 184 0 184 0 164 21 c 0,19,20
 143 42 143 42 143 71 c 0,21,22
 143 101 143 101 164 121 c 256,23,24
 185 142 185 142 214 143 c 256,25,26
 244 143 244 143 265 121 c 256,27,28
 286 100 286 100 286 71 c 0,29,30
 286 42 286 42 265 21 c 0,31,32
 244 0 244 0 214 0 c 1,33,-1
 214 0 l 1,17,18
357 0 m 1,34,35
 327 0 327 0 306 21 c 0,36,37
 285 42 285 42 286 71 c 0,38,39
 286 101 286 101 306 121 c 256,40,41
 327 142 327 142 357 143 c 0,42,43
 386 143 386 143 407 121 c 256,44,45
 428 100 428 100 429 71 c 0,46,47
 429 42 429 42 407 21 c 0,48,49
 386 0 386 0 357 0 c 1,50,-1
 357 0 l 1,34,35
71 143 m 1,51,52
 42 143 42 143 21 164 c 0,53,54
 0 185 0 185 0 214 c 256,55,56
 0 244 0 244 21 265 c 0,57,58
 42 286 42 286 71 286 c 0,59,60
 101 286 101 286 121 265 c 256,61,62
 142 244 142 244 143 214 c 256,63,64
 143 184 143 184 121 164 c 256,65,66
 100 143 100 143 71 143 c 1,67,-1
 71 143 l 1,51,52
500 143 m 1,68,69
 470 143 470 143 449 164 c 256,70,71
 428 185 428 185 429 214 c 256,72,73
 429 244 429 244 449 265 c 256,74,75
 470 286 470 286 500 286 c 256,76,77
 530 286 530 286 551 265 c 256,78,79
 572 244 572 244 571 214 c 256,80,81
 571 184 571 184 551 164 c 256,82,83
 530 143 530 143 500 143 c 1,84,-1
 500 143 l 1,68,69
71 286 m 1,85,86
 42 286 42 286 21 306 c 0,87,88
 0 327 0 327 0 357 c 0,89,90
 0 386 0 386 21 407 c 0,91,92
 42 428 42 428 71 429 c 0,93,94
 101 429 101 429 121 407 c 256,95,96
 142 386 142 386 143 357 c 0,97,98
 143 327 143 327 121 306 c 256,99,100
 100 285 100 285 71 286 c 1,101,-1
 71 286 l 1,85,86
643 286 m 1,102,103
 613 286 613 286 592 306 c 256,104,105
 571 327 571 327 571 357 c 0,106,107
 571 386 571 386 592 407 c 256,108,109
 613 428 613 428 643 429 c 0,110,111
 672 429 672 429 694 407 c 0,112,113
 715 386 715 386 714 357 c 0,114,115
 714 327 714 327 694 306 c 0,116,117
 673 285 673 285 643 286 c 1,118,-1
 643 286 l 1,102,103
71 429 m 1,119,120
 42 429 42 429 21 449 c 0,121,122
 0 470 0 470 0 500 c 256,123,124
 0 530 0 530 21 551 c 0,125,126
 42 572 42 572 71 571 c 0,127,128
 101 571 101 571 121 551 c 256,129,130
 142 530 142 530 143 500 c 256,131,132
 143 470 143 470 121 449 c 256,133,134
 100 428 100 428 71 429 c 1,135,-1
 71 429 l 1,119,120
786 429 m 1,136,137
 757 429 757 429 735 449 c 0,138,139
 714 470 714 470 714 500 c 256,140,141
 714 530 714 530 735 551 c 0,142,143
 756 572 756 572 786 571 c 0,144,145
 816 571 816 571 836 551 c 256,146,147
 857 530 857 530 857 500 c 256,148,149
 857 470 857 470 836 449 c 256,150,151
 815 428 815 428 786 429 c 1,152,-1
 786 429 l 1,136,137
71 571 m 1,153,154
 42 571 42 571 21 592 c 0,155,156
 0 613 0 613 0 643 c 0,157,158
 0 672 0 672 21 694 c 0,159,160
 42 715 42 715 71 714 c 0,161,162
 101 714 101 714 121 694 c 0,163,164
 142 673 142 673 143 643 c 0,165,166
 143 613 143 613 121 592 c 256,167,168
 100 571 100 571 71 571 c 1,169,-1
 71 571 l 1,153,154
357 571 m 1,170,171
 327 571 327 571 306 592 c 256,172,173
 285 613 285 613 286 643 c 0,174,175
 286 672 286 672 306 694 c 0,176,177
 327 715 327 715 357 714 c 0,178,179
 386 714 386 714 407 694 c 0,180,181
 428 673 428 673 429 643 c 0,182,183
 429 613 429 613 407 592 c 256,184,185
 386 571 386 571 357 571 c 1,186,-1
 357 571 l 1,170,171
786 571 m 1,187,188
 757 571 757 571 735 592 c 0,189,190
 714 613 714 613 714 643 c 0,191,192
 714 672 714 672 735 694 c 0,193,194
 756 715 756 715 786 714 c 0,195,196
 816 714 816 714 836 694 c 0,197,198
 857 673 857 673 857 643 c 0,199,200
 857 613 857 613 836 592 c 256,201,202
 815 571 815 571 786 571 c 1,203,-1
 786 571 l 1,187,188
71 714 m 1,204,205
 42 714 42 714 21 735 c 0,206,207
 0 756 0 756 0 786 c 0,208,209
 0 816 0 816 21 836 c 0,210,211
 42 857 42 857 71 857 c 0,212,213
 101 857 101 857 121 836 c 256,214,215
 142 815 142 815 143 786 c 0,216,217
 143 757 143 757 121 735 c 0,218,219
 100 714 100 714 71 714 c 1,220,-1
 71 714 l 1,204,205
357 714 m 1,221,222
 327 714 327 714 306 735 c 0,223,224
 285 756 285 756 286 786 c 0,225,226
 286 816 286 816 306 836 c 256,227,228
 327 857 327 857 357 857 c 0,229,230
 386 857 386 857 407 836 c 256,231,232
 428 815 428 815 429 786 c 0,233,234
 429 757 429 757 407 735 c 0,235,236
 386 714 386 714 357 714 c 1,237,-1
 357 714 l 1,221,222
786 714 m 1,238,239
 757 714 757 714 735 735 c 0,240,241
 714 756 714 756 714 786 c 0,242,243
 714 816 714 816 735 836 c 0,244,245
 756 857 756 857 786 857 c 0,246,247
 816 857 816 857 836 836 c 256,248,249
 857 815 857 815 857 786 c 0,250,251
 857 757 857 757 836 735 c 0,252,253
 815 714 815 714 786 714 c 1,254,-1
 786 714 l 1,238,239
71 857 m 1,255,256
 42 857 42 857 21 878 c 0,257,258
 0 899 0 899 0 929 c 256,259,260
 0 959 0 959 21 979 c 0,261,262
 42 1000 42 1000 71 1000 c 0,263,264
 101 1000 101 1000 121 979 c 256,265,266
 142 958 142 958 143 929 c 256,267,268
 143 899 143 899 121 878 c 256,269,270
 100 857 100 857 71 857 c 1,271,-1
 71 857 l 1,255,256
357 857 m 1,272,273
 327 857 327 857 306 878 c 256,274,275
 285 899 285 899 286 929 c 256,276,277
 286 959 286 959 306 979 c 256,278,279
 327 1000 327 1000 357 1000 c 0,280,281
 386 1000 386 1000 407 979 c 256,282,283
 428 958 428 958 429 929 c 256,284,285
 429 899 429 899 407 878 c 256,286,287
 386 857 386 857 357 857 c 1,288,-1
 357 857 l 1,272,273
500 857 m 1,289,290
 470 857 470 857 449 878 c 256,291,292
 428 899 428 899 429 929 c 256,293,294
 429 959 429 959 449 979 c 256,295,296
 470 1000 470 1000 500 1000 c 256,297,298
 530 1000 530 1000 551 979 c 256,299,300
 572 958 572 958 571 929 c 256,301,302
 571 899 571 899 551 878 c 256,303,304
 530 857 530 857 500 857 c 1,305,-1
 500 857 l 1,289,290
643 857 m 1,306,307
 613 857 613 857 592 878 c 256,308,309
 571 899 571 899 571 929 c 256,310,311
 571 959 571 959 592 979 c 256,312,313
 613 1000 613 1000 643 1000 c 0,314,315
 672 1000 672 1000 694 979 c 0,316,317
 715 958 715 958 714 929 c 256,318,319
 714 899 714 899 694 878 c 0,320,321
 673 857 673 857 643 857 c 1,322,-1
 643 857 l 1,306,307
786 857 m 1,323,324
 757 857 757 857 735 878 c 0,325,326
 714 899 714 899 714 929 c 256,327,328
 714 959 714 959 735 979 c 0,329,330
 756 1000 756 1000 786 1000 c 0,331,332
 816 1000 816 1000 836 979 c 256,333,334
 857 958 857 958 857 929 c 256,335,336
 857 899 857 899 836 878 c 256,337,338
 815 857 815 857 786 857 c 1,339,-1
 786 857 l 1,323,324
EndSplineSet
Validated: 37
EndChar

StartChar: H
Encoding: 72 72 32
Width: 999
VWidth: 714
Flags: W
LayerCount: 2
Fore
SplineSet
71 0 m 1,0,1
 42 0 42 0 21 21 c 0,2,3
 0 42 0 42 0 71 c 0,4,5
 0 101 0 101 21 121 c 0,6,7
 42 142 42 142 71 143 c 0,8,9
 101 143 101 143 121 121 c 256,10,11
 142 100 142 100 143 71 c 0,12,13
 143 42 143 42 121 21 c 0,14,15
 100 0 100 0 71 0 c 1,16,-1
 71 0 l 1,0,1
214 0 m 1,17,18
 184 0 184 0 164 21 c 0,19,20
 143 42 143 42 143 71 c 0,21,22
 143 101 143 101 164 121 c 256,23,24
 185 142 185 142 214 143 c 256,25,26
 244 143 244 143 265 121 c 256,27,28
 286 100 286 100 286 71 c 0,29,30
 286 42 286 42 265 21 c 0,31,32
 244 0 244 0 214 0 c 1,33,-1
 214 0 l 1,17,18
357 0 m 1,34,35
 327 0 327 0 306 21 c 0,36,37
 285 42 285 42 286 71 c 0,38,39
 286 101 286 101 306 121 c 256,40,41
 327 142 327 142 357 143 c 0,42,43
 386 143 386 143 407 121 c 256,44,45
 428 100 428 100 429 71 c 0,46,47
 429 42 429 42 407 21 c 0,48,49
 386 0 386 0 357 0 c 1,50,-1
 357 0 l 1,34,35
500 0 m 1,51,52
 470 0 470 0 449 21 c 0,53,54
 428 42 428 42 429 71 c 0,55,56
 429 101 429 101 449 121 c 256,57,58
 470 142 470 142 500 143 c 256,59,60
 530 143 530 143 551 121 c 256,61,62
 572 100 572 100 571 71 c 0,63,64
 571 42 571 42 551 21 c 0,65,66
 530 0 530 0 500 0 c 1,67,-1
 500 0 l 1,51,52
643 0 m 1,68,69
 613 0 613 0 592 21 c 0,70,71
 571 42 571 42 571 71 c 0,72,73
 571 101 571 101 592 121 c 256,74,75
 613 142 613 142 643 143 c 0,76,77
 672 143 672 143 694 121 c 0,78,79
 715 100 715 100 714 71 c 0,80,81
 714 42 714 42 694 21 c 0,82,83
 673 0 673 0 643 0 c 1,84,-1
 643 0 l 1,68,69
786 0 m 1,85,86
 757 0 757 0 735 21 c 0,87,88
 714 42 714 42 714 71 c 0,89,90
 714 101 714 101 735 121 c 0,91,92
 756 142 756 142 786 143 c 0,93,94
 816 143 816 143 836 121 c 256,95,96
 857 100 857 100 857 71 c 0,97,98
 857 42 857 42 836 21 c 0,99,100
 815 0 815 0 786 0 c 1,101,-1
 786 0 l 1,85,86
214 429 m 1,102,103
 184 429 184 429 164 449 c 256,104,105
 143 470 143 470 143 500 c 256,106,107
 143 530 143 530 164 551 c 256,108,109
 185 572 185 572 214 571 c 256,110,111
 244 571 244 571 265 551 c 256,112,113
 286 530 286 530 286 500 c 256,114,115
 286 470 286 470 265 449 c 256,116,117
 244 428 244 428 214 429 c 1,118,-1
 214 429 l 1,102,103
357 429 m 1,119,120
 327 429 327 429 306 449 c 256,121,122
 285 470 285 470 286 500 c 256,123,124
 286 530 286 530 306 551 c 256,125,126
 327 572 327 572 357 571 c 0,127,128
 386 571 386 571 407 551 c 256,129,130
 428 530 428 530 429 500 c 256,131,132
 429 470 429 470 407 449 c 256,133,134
 386 428 386 428 357 429 c 1,135,-1
 357 429 l 1,119,120
500 429 m 1,136,137
 470 429 470 429 449 449 c 256,138,139
 428 470 428 470 429 500 c 256,140,141
 429 530 429 530 449 551 c 256,142,143
 470 572 470 572 500 571 c 256,144,145
 530 571 530 571 551 551 c 256,146,147
 572 530 572 530 571 500 c 256,148,149
 571 470 571 470 551 449 c 256,150,151
 530 428 530 428 500 429 c 1,152,-1
 500 429 l 1,136,137
643 429 m 1,153,154
 613 429 613 429 592 449 c 256,155,156
 571 470 571 470 571 500 c 256,157,158
 571 530 571 530 592 551 c 256,159,160
 613 572 613 572 643 571 c 0,161,162
 672 571 672 571 694 551 c 0,163,164
 715 530 715 530 714 500 c 256,165,166
 714 470 714 470 694 449 c 0,167,168
 673 428 673 428 643 429 c 1,169,-1
 643 429 l 1,153,154
71 857 m 1,170,171
 42 857 42 857 21 878 c 0,172,173
 0 899 0 899 0 929 c 256,174,175
 0 959 0 959 21 979 c 0,176,177
 42 1000 42 1000 71 1000 c 0,178,179
 101 1000 101 1000 121 979 c 256,180,181
 142 958 142 958 143 929 c 256,182,183
 143 899 143 899 121 878 c 256,184,185
 100 857 100 857 71 857 c 1,186,-1
 71 857 l 1,170,171
214 857 m 1,187,188
 184 857 184 857 164 878 c 256,189,190
 143 899 143 899 143 929 c 256,191,192
 143 959 143 959 164 979 c 256,193,194
 185 1000 185 1000 214 1000 c 256,195,196
 244 1000 244 1000 265 979 c 256,197,198
 286 958 286 958 286 929 c 256,199,200
 286 899 286 899 265 878 c 256,201,202
 244 857 244 857 214 857 c 1,203,-1
 214 857 l 1,187,188
357 857 m 1,204,205
 327 857 327 857 306 878 c 256,206,207
 285 899 285 899 286 929 c 256,208,209
 286 959 286 959 306 979 c 256,210,211
 327 1000 327 1000 357 1000 c 0,212,213
 386 1000 386 1000 407 979 c 256,214,215
 428 958 428 958 429 929 c 256,216,217
 429 899 429 899 407 878 c 256,218,219
 386 857 386 857 357 857 c 1,220,-1
 357 857 l 1,204,205
500 857 m 1,221,222
 470 857 470 857 449 878 c 256,223,224
 428 899 428 899 429 929 c 256,225,226
 429 959 429 959 449 979 c 256,227,228
 470 1000 470 1000 500 1000 c 256,229,230
 530 1000 530 1000 551 979 c 256,231,232
 572 958 572 958 571 929 c 256,233,234
 571 899 571 899 551 878 c 256,235,236
 530 857 530 857 500 857 c 1,237,-1
 500 857 l 1,221,222
643 857 m 1,238,239
 613 857 613 857 592 878 c 256,240,241
 571 899 571 899 571 929 c 256,242,243
 571 959 571 959 592 979 c 256,244,245
 613 1000 613 1000 643 1000 c 0,246,247
 672 1000 672 1000 694 979 c 0,248,249
 715 958 715 958 714 929 c 256,250,251
 714 899 714 899 694 878 c 0,252,253
 673 857 673 857 643 857 c 1,254,-1
 643 857 l 1,238,239
786 857 m 1,255,256
 757 857 757 857 735 878 c 0,257,258
 714 899 714 899 714 929 c 256,259,260
 714 959 714 959 735 979 c 0,261,262
 756 1000 756 1000 786 1000 c 0,263,264
 816 1000 816 1000 836 979 c 256,265,266
 857 958 857 958 857 929 c 256,267,268
 857 899 857 899 836 878 c 256,269,270
 815 857 815 857 786 857 c 1,271,-1
 786 857 l 1,255,256
EndSplineSet
Validated: 37
EndChar

StartChar: I
Encoding: 73 73 33
Width: 999
VWidth: 714
Flags: W
LayerCount: 2
Fore
SplineSet
500 0 m 1,0,1
 470 0 470 0 449 21 c 0,2,3
 428 42 428 42 429 71 c 0,4,5
 429 101 429 101 449 121 c 256,6,7
 470 142 470 142 500 143 c 256,8,9
 530 143 530 143 551 121 c 256,10,11
 572 100 572 100 571 71 c 0,12,13
 571 42 571 42 551 21 c 0,14,15
 530 0 530 0 500 0 c 1,16,-1
 500 0 l 1,0,1
500 143 m 1,17,18
 470 143 470 143 449 164 c 256,19,20
 428 185 428 185 429 214 c 256,21,22
 429 244 429 244 449 265 c 256,23,24
 470 286 470 286 500 286 c 256,25,26
 530 286 530 286 551 265 c 256,27,28
 572 244 572 244 571 214 c 256,29,30
 571 184 571 184 551 164 c 256,31,32
 530 143 530 143 500 143 c 1,33,-1
 500 143 l 1,17,18
500 286 m 1,34,35
 470 286 470 286 449 306 c 256,36,37
 428 327 428 327 429 357 c 0,38,39
 429 386 429 386 449 407 c 256,40,41
 470 428 470 428 500 429 c 256,42,43
 530 429 530 429 551 407 c 256,44,45
 572 386 572 386 571 357 c 0,46,47
 571 327 571 327 551 306 c 256,48,49
 530 285 530 285 500 286 c 1,50,-1
 500 286 l 1,34,35
500 429 m 1,51,52
 470 429 470 429 449 449 c 256,53,54
 428 470 428 470 429 500 c 256,55,56
 429 530 429 530 449 551 c 256,57,58
 470 572 470 572 500 571 c 256,59,60
 530 571 530 571 551 551 c 256,61,62
 572 530 572 530 571 500 c 256,63,64
 571 470 571 470 551 449 c 256,65,66
 530 428 530 428 500 429 c 1,67,-1
 500 429 l 1,51,52
71 571 m 1,68,69
 42 571 42 571 21 592 c 0,70,71
 0 613 0 613 0 643 c 0,72,73
 0 672 0 672 21 694 c 0,74,75
 42 715 42 715 71 714 c 0,76,77
 101 714 101 714 121 694 c 0,78,79
 142 673 142 673 143 643 c 0,80,81
 143 613 143 613 121 592 c 256,82,83
 100 571 100 571 71 571 c 1,84,-1
 71 571 l 1,68,69
500 571 m 1,85,86
 470 571 470 571 449 592 c 256,87,88
 428 613 428 613 429 643 c 0,89,90
 429 672 429 672 449 694 c 0,91,92
 470 715 470 715 500 714 c 256,93,94
 530 714 530 714 551 694 c 0,95,96
 572 673 572 673 571 643 c 0,97,98
 571 613 571 613 551 592 c 256,99,100
 530 571 530 571 500 571 c 1,101,-1
 500 571 l 1,85,86
214 714 m 1,102,103
 184 714 184 714 164 735 c 0,104,105
 143 756 143 756 143 786 c 0,106,107
 143 816 143 816 164 836 c 256,108,109
 185 857 185 857 214 857 c 256,110,111
 244 857 244 857 265 836 c 256,112,113
 286 815 286 815 286 786 c 0,114,115
 286 757 286 757 265 735 c 0,116,117
 244 714 244 714 214 714 c 1,118,-1
 214 714 l 1,102,103
500 714 m 1,119,120
 470 714 470 714 449 735 c 0,121,122
 428 756 428 756 429 786 c 0,123,124
 429 816 429 816 449 836 c 256,125,126
 470 857 470 857 500 857 c 256,127,128
 530 857 530 857 551 836 c 256,129,130
 572 815 572 815 571 786 c 0,131,132
 571 757 571 757 551 735 c 0,133,134
 530 714 530 714 500 714 c 1,135,-1
 500 714 l 1,119,120
357 857 m 1,136,137
 327 857 327 857 306 878 c 256,138,139
 285 899 285 899 286 929 c 256,140,141
 286 959 286 959 306 979 c 256,142,143
 327 1000 327 1000 357 1000 c 0,144,145
 386 1000 386 1000 407 979 c 256,146,147
 428 958 428 958 429 929 c 256,148,149
 429 899 429 899 407 878 c 256,150,151
 386 857 386 857 357 857 c 1,152,-1
 357 857 l 1,136,137
500 857 m 1,153,154
 470 857 470 857 449 878 c 256,155,156
 428 899 428 899 429 929 c 256,157,158
 429 959 429 959 449 979 c 256,159,160
 470 1000 470 1000 500 1000 c 256,161,162
 530 1000 530 1000 551 979 c 256,163,164
 572 958 572 958 571 929 c 256,165,166
 571 899 571 899 551 878 c 256,167,168
 530 857 530 857 500 857 c 1,169,-1
 500 857 l 1,153,154
EndSplineSet
Validated: 37
EndChar

StartChar: J
Encoding: 74 74 34
Width: 999
VWidth: 714
Flags: W
LayerCount: 2
Fore
SplineSet
71 0 m 1,0,1
 42 0 42 0 21 21 c 0,2,3
 0 42 0 42 0 71 c 0,4,5
 0 101 0 101 21 121 c 0,6,7
 42 142 42 142 71 143 c 0,8,9
 101 143 101 143 121 121 c 256,10,11
 142 100 142 100 143 71 c 0,12,13
 143 42 143 42 121 21 c 0,14,15
 100 0 100 0 71 0 c 1,16,-1
 71 0 l 1,0,1
214 0 m 1,17,18
 184 0 184 0 164 21 c 0,19,20
 143 42 143 42 143 71 c 0,21,22
 143 101 143 101 164 121 c 256,23,24
 185 142 185 142 214 143 c 256,25,26
 244 143 244 143 265 121 c 256,27,28
 286 100 286 100 286 71 c 0,29,30
 286 42 286 42 265 21 c 0,31,32
 244 0 244 0 214 0 c 1,33,-1
 214 0 l 1,17,18
357 0 m 1,34,35
 327 0 327 0 306 21 c 0,36,37
 285 42 285 42 286 71 c 0,38,39
 286 101 286 101 306 121 c 256,40,41
 327 142 327 142 357 143 c 0,42,43
 386 143 386 143 407 121 c 256,44,45
 428 100 428 100 429 71 c 0,46,47
 429 42 429 42 407 21 c 0,48,49
 386 0 386 0 357 0 c 1,50,-1
 357 0 l 1,34,35
500 0 m 1,51,52
 470 0 470 0 449 21 c 0,53,54
 428 42 428 42 429 71 c 0,55,56
 429 101 429 101 449 121 c 256,57,58
 470 142 470 142 500 143 c 256,59,60
 530 143 530 143 551 121 c 256,61,62
 572 100 572 100 571 71 c 0,63,64
 571 42 571 42 551 21 c 0,65,66
 530 0 530 0 500 0 c 1,67,-1
 500 0 l 1,51,52
643 143 m 1,68,69
 613 143 613 143 592 164 c 256,70,71
 571 185 571 185 571 214 c 256,72,73
 571 244 571 244 592 265 c 256,74,75
 613 286 613 286 643 286 c 0,76,77
 672 286 672 286 694 265 c 0,78,79
 715 244 715 244 714 214 c 256,80,81
 714 184 714 184 694 164 c 0,82,83
 673 143 673 143 643 143 c 1,84,-1
 643 143 l 1,68,69
786 286 m 1,85,86
 757 286 757 286 735 306 c 0,87,88
 714 327 714 327 714 357 c 0,89,90
 714 386 714 386 735 407 c 0,91,92
 756 428 756 428 786 429 c 0,93,94
 816 429 816 429 836 407 c 256,95,96
 857 386 857 386 857 357 c 0,97,98
 857 327 857 327 836 306 c 256,99,100
 815 285 815 285 786 286 c 1,101,-1
 786 286 l 1,85,86
786 429 m 1,102,103
 757 429 757 429 735 449 c 0,104,105
 714 470 714 470 714 500 c 256,106,107
 714 530 714 530 735 551 c 0,108,109
 756 572 756 572 786 571 c 0,110,111
 816 571 816 571 836 551 c 256,112,113
 857 530 857 530 857 500 c 256,114,115
 857 470 857 470 836 449 c 256,116,117
 815 428 815 428 786 429 c 1,118,-1
 786 429 l 1,102,103
71 571 m 1,119,120
 42 571 42 571 21 592 c 0,121,122
 0 613 0 613 0 643 c 0,123,124
 0 672 0 672 21 694 c 0,125,126
 42 715 42 715 71 714 c 0,127,128
 101 714 101 714 121 694 c 0,129,130
 142 673 142 673 143 643 c 0,131,132
 143 613 143 613 121 592 c 256,133,134
 100 571 100 571 71 571 c 1,135,-1
 71 571 l 1,119,120
214 571 m 1,136,137
 184 571 184 571 164 592 c 256,138,139
 143 613 143 613 143 643 c 0,140,141
 143 672 143 672 164 694 c 0,142,143
 185 715 185 715 214 714 c 256,144,145
 244 714 244 714 265 694 c 0,146,147
 286 673 286 673 286 643 c 0,148,149
 286 613 286 613 265 592 c 256,150,151
 244 571 244 571 214 571 c 1,152,-1
 214 571 l 1,136,137
357 571 m 1,153,154
 327 571 327 571 306 592 c 256,155,156
 285 613 285 613 286 643 c 0,157,158
 286 672 286 672 306 694 c 0,159,160
 327 715 327 715 357 714 c 0,161,162
 386 714 386 714 407 694 c 0,163,164
 428 673 428 673 429 643 c 0,165,166
 429 613 429 613 407 592 c 256,167,168
 386 571 386 571 357 571 c 1,169,-1
 357 571 l 1,153,154
500 571 m 1,170,171
 470 571 470 571 449 592 c 256,172,173
 428 613 428 613 429 643 c 0,174,175
 429 672 429 672 449 694 c 0,176,177
 470 715 470 715 500 714 c 256,178,179
 530 714 530 714 551 694 c 0,180,181
 572 673 572 673 571 643 c 0,182,183
 571 613 571 613 551 592 c 256,184,185
 530 571 530 571 500 571 c 1,186,-1
 500 571 l 1,170,171
786 571 m 1,187,188
 757 571 757 571 735 592 c 0,189,190
 714 613 714 613 714 643 c 0,191,192
 714 672 714 672 735 694 c 0,193,194
 756 715 756 715 786 714 c 0,195,196
 816 714 816 714 836 694 c 0,197,198
 857 673 857 673 857 643 c 0,199,200
 857 613 857 613 836 592 c 256,201,202
 815 571 815 571 786 571 c 1,203,-1
 786 571 l 1,187,188
643 714 m 1,204,205
 613 714 613 714 592 735 c 0,206,207
 571 756 571 756 571 786 c 0,208,209
 571 816 571 816 592 836 c 256,210,211
 613 857 613 857 643 857 c 0,212,213
 672 857 672 857 694 836 c 0,214,215
 715 815 715 815 714 786 c 0,216,217
 714 757 714 757 694 735 c 0,218,219
 673 714 673 714 643 714 c 1,220,-1
 643 714 l 1,204,205
786 714 m 1,221,222
 757 714 757 714 735 735 c 0,223,224
 714 756 714 756 714 786 c 0,225,226
 714 816 714 816 735 836 c 0,227,228
 756 857 756 857 786 857 c 0,229,230
 816 857 816 857 836 836 c 256,231,232
 857 815 857 815 857 786 c 0,233,234
 857 757 857 757 836 735 c 0,235,236
 815 714 815 714 786 714 c 1,237,-1
 786 714 l 1,221,222
786 857 m 1,238,239
 757 857 757 857 735 878 c 0,240,241
 714 899 714 899 714 929 c 256,242,243
 714 959 714 959 735 979 c 0,244,245
 756 1000 756 1000 786 1000 c 0,246,247
 816 1000 816 1000 836 979 c 256,248,249
 857 958 857 958 857 929 c 256,250,251
 857 899 857 899 836 878 c 256,252,253
 815 857 815 857 786 857 c 1,254,-1
 786 857 l 1,238,239
EndSplineSet
Validated: 37
EndChar

StartChar: K
Encoding: 75 75 35
Width: 999
VWidth: 714
Flags: W
LayerCount: 2
Fore
SplineSet
71 0 m 1,0,1
 42 0 42 0 21 21 c 0,2,3
 0 42 0 42 0 71 c 0,4,5
 0 101 0 101 21 121 c 0,6,7
 42 142 42 142 71 143 c 0,8,9
 101 143 101 143 121 121 c 256,10,11
 142 100 142 100 143 71 c 0,12,13
 143 42 143 42 121 21 c 0,14,15
 100 0 100 0 71 0 c 1,16,-1
 71 0 l 1,0,1
214 0 m 1,17,18
 184 0 184 0 164 21 c 0,19,20
 143 42 143 42 143 71 c 0,21,22
 143 101 143 101 164 121 c 256,23,24
 185 142 185 142 214 143 c 256,25,26
 244 143 244 143 265 121 c 256,27,28
 286 100 286 100 286 71 c 0,29,30
 286 42 286 42 265 21 c 0,31,32
 244 0 244 0 214 0 c 1,33,-1
 214 0 l 1,17,18
357 0 m 1,34,35
 327 0 327 0 306 21 c 0,36,37
 285 42 285 42 286 71 c 0,38,39
 286 101 286 101 306 121 c 256,40,41
 327 142 327 142 357 143 c 0,42,43
 386 143 386 143 407 121 c 256,44,45
 428 100 428 100 429 71 c 0,46,47
 429 42 429 42 407 21 c 0,48,49
 386 0 386 0 357 0 c 1,50,-1
 357 0 l 1,34,35
500 0 m 1,51,52
 470 0 470 0 449 21 c 0,53,54
 428 42 428 42 429 71 c 0,55,56
 429 101 429 101 449 121 c 256,57,58
 470 142 470 142 500 143 c 256,59,60
 530 143 530 143 551 121 c 256,61,62
 572 100 572 100 571 71 c 0,63,64
 571 42 571 42 551 21 c 0,65,66
 530 0 530 0 500 0 c 1,67,-1
 500 0 l 1,51,52
643 0 m 1,68,69
 613 0 613 0 592 21 c 0,70,71
 571 42 571 42 571 71 c 0,72,73
 571 101 571 101 592 121 c 256,74,75
 613 142 613 142 643 143 c 0,76,77
 672 143 672 143 694 121 c 0,78,79
 715 100 715 100 714 71 c 0,80,81
 714 42 714 42 694 21 c 0,82,83
 673 0 673 0 643 0 c 1,84,-1
 643 0 l 1,68,69
786 0 m 1,85,86
 757 0 757 0 735 21 c 0,87,88
 714 42 714 42 714 71 c 0,89,90
 714 101 714 101 735 121 c 0,91,92
 756 142 756 142 786 143 c 0,93,94
 816 143 816 143 836 121 c 256,95,96
 857 100 857 100 857 71 c 0,97,98
 857 42 857 42 836 21 c 0,99,100
 815 0 815 0 786 0 c 1,101,-1
 786 0 l 1,85,86
786 143 m 1,102,103
 757 143 757 143 735 164 c 0,104,105
 714 185 714 185 714 214 c 256,106,107
 714 244 714 244 735 265 c 0,108,109
 756 286 756 286 786 286 c 0,110,111
 816 286 816 286 836 265 c 256,112,113
 857 244 857 244 857 214 c 256,114,115
 857 184 857 184 836 164 c 256,116,117
 815 143 815 143 786 143 c 1,118,-1
 786 143 l 1,102,103
786 286 m 1,119,120
 757 286 757 286 735 306 c 0,121,122
 714 327 714 327 714 357 c 0,123,124
 714 386 714 386 735 407 c 0,125,126
 756 428 756 428 786 429 c 0,127,128
 816 429 816 429 836 407 c 256,129,130
 857 386 857 386 857 357 c 0,131,132
 857 327 857 327 836 306 c 256,133,134
 815 285 815 285 786 286 c 1,135,-1
 786 286 l 1,119,120
786 429 m 1,136,137
 757 429 757 429 735 449 c 0,138,139
 714 470 714 470 714 500 c 256,140,141
 714 530 714 530 735 551 c 0,142,143
 756 572 756 572 786 571 c 0,144,145
 816 571 816 571 836 551 c 256,146,147
 857 530 857 530 857 500 c 256,148,149
 857 470 857 470 836 449 c 256,150,151
 815 428 815 428 786 429 c 1,152,-1
 786 429 l 1,136,137
786 571 m 1,153,154
 757 571 757 571 735 592 c 0,155,156
 714 613 714 613 714 643 c 0,157,158
 714 672 714 672 735 694 c 0,159,160
 756 715 756 715 786 714 c 0,161,162
 816 714 816 714 836 694 c 0,163,164
 857 673 857 673 857 643 c 0,165,166
 857 613 857 613 836 592 c 256,167,168
 815 571 815 571 786 571 c 1,169,-1
 786 571 l 1,153,154
786 714 m 1,170,171
 757 714 757 714 735 735 c 0,172,173
 714 756 714 756 714 786 c 0,174,175
 714 816 714 816 735 836 c 0,176,177
 756 857 756 857 786 857 c 0,178,179
 816 857 816 857 836 836 c 256,180,181
 857 815 857 815 857 786 c 0,182,183
 857 757 857 757 836 735 c 0,184,185
 815 714 815 714 786 714 c 1,186,-1
 786 714 l 1,170,171
71 857 m 1,187,188
 42 857 42 857 21 878 c 0,189,190
 0 899 0 899 0 929 c 256,191,192
 0 959 0 959 21 979 c 0,193,194
 42 1000 42 1000 71 1000 c 0,195,196
 101 1000 101 1000 121 979 c 256,197,198
 142 958 142 958 143 929 c 256,199,200
 143 899 143 899 121 878 c 256,201,202
 100 857 100 857 71 857 c 1,203,-1
 71 857 l 1,187,188
214 857 m 1,204,205
 184 857 184 857 164 878 c 256,206,207
 143 899 143 899 143 929 c 256,208,209
 143 959 143 959 164 979 c 256,210,211
 185 1000 185 1000 214 1000 c 256,212,213
 244 1000 244 1000 265 979 c 256,214,215
 286 958 286 958 286 929 c 256,216,217
 286 899 286 899 265 878 c 256,218,219
 244 857 244 857 214 857 c 1,220,-1
 214 857 l 1,204,205
357 857 m 1,221,222
 327 857 327 857 306 878 c 256,223,224
 285 899 285 899 286 929 c 256,225,226
 286 959 286 959 306 979 c 256,227,228
 327 1000 327 1000 357 1000 c 0,229,230
 386 1000 386 1000 407 979 c 256,231,232
 428 958 428 958 429 929 c 256,233,234
 429 899 429 899 407 878 c 256,235,236
 386 857 386 857 357 857 c 1,237,-1
 357 857 l 1,221,222
500 857 m 1,238,239
 470 857 470 857 449 878 c 256,240,241
 428 899 428 899 429 929 c 256,242,243
 429 959 429 959 449 979 c 256,244,245
 470 1000 470 1000 500 1000 c 256,246,247
 530 1000 530 1000 551 979 c 256,248,249
 572 958 572 958 571 929 c 256,250,251
 571 899 571 899 551 878 c 256,252,253
 530 857 530 857 500 857 c 1,254,-1
 500 857 l 1,238,239
643 857 m 1,255,256
 613 857 613 857 592 878 c 256,257,258
 571 899 571 899 571 929 c 256,259,260
 571 959 571 959 592 979 c 256,261,262
 613 1000 613 1000 643 1000 c 0,263,264
 672 1000 672 1000 694 979 c 0,265,266
 715 958 715 958 714 929 c 256,267,268
 714 899 714 899 694 878 c 0,269,270
 673 857 673 857 643 857 c 1,271,-1
 643 857 l 1,255,256
786 857 m 1,272,273
 757 857 757 857 735 878 c 0,274,275
 714 899 714 899 714 929 c 256,276,277
 714 959 714 959 735 979 c 0,278,279
 756 1000 756 1000 786 1000 c 0,280,281
 816 1000 816 1000 836 979 c 256,282,283
 857 958 857 958 857 929 c 256,284,285
 857 899 857 899 836 878 c 256,286,287
 815 857 815 857 786 857 c 1,288,-1
 786 857 l 1,272,273
EndSplineSet
Validated: 37
EndChar

StartChar: L
Encoding: 76 76 36
Width: 999
VWidth: 714
Flags: W
LayerCount: 2
Fore
SplineSet
500 0 m 1,0,1
 470 0 470 0 449 21 c 0,2,3
 428 42 428 42 429 71 c 0,4,5
 429 101 429 101 449 121 c 256,6,7
 470 142 470 142 500 143 c 256,8,9
 530 143 530 143 551 121 c 256,10,11
 572 100 572 100 571 71 c 0,12,13
 571 42 571 42 551 21 c 0,14,15
 530 0 530 0 500 0 c 1,16,-1
 500 0 l 1,0,1
643 0 m 1,17,18
 613 0 613 0 592 21 c 0,19,20
 571 42 571 42 571 71 c 0,21,22
 571 101 571 101 592 121 c 256,23,24
 613 142 613 142 643 143 c 0,25,26
 672 143 672 143 694 121 c 0,27,28
 715 100 715 100 714 71 c 0,29,30
 714 42 714 42 694 21 c 0,31,32
 673 0 673 0 643 0 c 1,33,-1
 643 0 l 1,17,18
357 143 m 1,34,35
 327 143 327 143 306 164 c 256,36,37
 285 185 285 185 286 214 c 256,38,39
 286 244 286 244 306 265 c 256,40,41
 327 286 327 286 357 286 c 0,42,43
 386 286 386 286 407 265 c 256,44,45
 428 244 428 244 429 214 c 256,46,47
 429 184 429 184 407 164 c 256,48,49
 386 143 386 143 357 143 c 1,50,-1
 357 143 l 1,34,35
643 143 m 1,51,52
 613 143 613 143 592 164 c 256,53,54
 571 185 571 185 571 214 c 256,55,56
 571 244 571 244 592 265 c 256,57,58
 613 286 613 286 643 286 c 0,59,60
 672 286 672 286 694 265 c 0,61,62
 715 244 715 244 714 214 c 256,63,64
 714 184 714 184 694 164 c 0,65,66
 673 143 673 143 643 143 c 1,67,-1
 643 143 l 1,51,52
214 286 m 1,68,69
 184 286 184 286 164 306 c 256,70,71
 143 327 143 327 143 357 c 0,72,73
 143 386 143 386 164 407 c 256,74,75
 185 428 185 428 214 429 c 256,76,77
 244 429 244 429 265 407 c 256,78,79
 286 386 286 386 286 357 c 0,80,81
 286 327 286 327 265 306 c 256,82,83
 244 285 244 285 214 286 c 1,84,-1
 214 286 l 1,68,69
643 286 m 1,85,86
 613 286 613 286 592 306 c 256,87,88
 571 327 571 327 571 357 c 0,89,90
 571 386 571 386 592 407 c 256,91,92
 613 428 613 428 643 429 c 0,93,94
 672 429 672 429 694 407 c 0,95,96
 715 386 715 386 714 357 c 0,97,98
 714 327 714 327 694 306 c 0,99,100
 673 285 673 285 643 286 c 1,101,-1
 643 286 l 1,85,86
71 429 m 1,102,103
 42 429 42 429 21 449 c 0,104,105
 0 470 0 470 0 500 c 256,106,107
 0 530 0 530 21 551 c 0,108,109
 42 572 42 572 71 571 c 0,110,111
 101 571 101 571 121 551 c 256,112,113
 142 530 142 530 143 500 c 256,114,115
 143 470 143 470 121 449 c 256,116,117
 100 428 100 428 71 429 c 1,118,-1
 71 429 l 1,102,103
643 429 m 1,119,120
 613 429 613 429 592 449 c 256,121,122
 571 470 571 470 571 500 c 256,123,124
 571 530 571 530 592 551 c 256,125,126
 613 572 613 572 643 571 c 0,127,128
 672 571 672 571 694 551 c 0,129,130
 715 530 715 530 714 500 c 256,131,132
 714 470 714 470 694 449 c 0,133,134
 673 428 673 428 643 429 c 1,135,-1
 643 429 l 1,119,120
643 571 m 1,136,137
 613 571 613 571 592 592 c 256,138,139
 571 613 571 613 571 643 c 0,140,141
 571 672 571 672 592 694 c 0,142,143
 613 715 613 715 643 714 c 0,144,145
 672 714 672 714 694 694 c 0,146,147
 715 673 715 673 714 643 c 0,148,149
 714 613 714 613 694 592 c 0,150,151
 673 571 673 571 643 571 c 1,152,-1
 643 571 l 1,136,137
643 714 m 1,153,154
 613 714 613 714 592 735 c 0,155,156
 571 756 571 756 571 786 c 0,157,158
 571 816 571 816 592 836 c 256,159,160
 613 857 613 857 643 857 c 0,161,162
 672 857 672 857 694 836 c 0,163,164
 715 815 715 815 714 786 c 0,165,166
 714 757 714 757 694 735 c 0,167,168
 673 714 673 714 643 714 c 1,169,-1
 643 714 l 1,153,154
643 857 m 1,170,171
 613 857 613 857 592 878 c 256,172,173
 571 899 571 899 571 929 c 256,174,175
 571 959 571 959 592 979 c 256,176,177
 613 1000 613 1000 643 1000 c 0,178,179
 672 1000 672 1000 694 979 c 0,180,181
 715 958 715 958 714 929 c 256,182,183
 714 899 714 899 694 878 c 0,184,185
 673 857 673 857 643 857 c 1,186,-1
 643 857 l 1,170,171
786 857 m 1,187,188
 757 857 757 857 735 878 c 0,189,190
 714 899 714 899 714 929 c 256,191,192
 714 959 714 959 735 979 c 0,193,194
 756 1000 756 1000 786 1000 c 0,195,196
 816 1000 816 1000 836 979 c 256,197,198
 857 958 857 958 857 929 c 256,199,200
 857 899 857 899 836 878 c 256,201,202
 815 857 815 857 786 857 c 1,203,-1
 786 857 l 1,187,188
EndSplineSet
Validated: 37
EndChar

StartChar: M
Encoding: 77 77 37
Width: 999
VWidth: 714
Flags: W
LayerCount: 2
Fore
SplineSet
71 0 m 1,0,1
 42 0 42 0 21 21 c 0,2,3
 0 42 0 42 0 71 c 0,4,5
 0 101 0 101 21 121 c 0,6,7
 42 142 42 142 71 143 c 0,8,9
 101 143 101 143 121 121 c 256,10,11
 142 100 142 100 143 71 c 0,12,13
 143 42 143 42 121 21 c 0,14,15
 100 0 100 0 71 0 c 1,16,-1
 71 0 l 1,0,1
214 0 m 1,17,18
 184 0 184 0 164 21 c 0,19,20
 143 42 143 42 143 71 c 0,21,22
 143 101 143 101 164 121 c 256,23,24
 185 142 185 142 214 143 c 256,25,26
 244 143 244 143 265 121 c 256,27,28
 286 100 286 100 286 71 c 0,29,30
 286 42 286 42 265 21 c 0,31,32
 244 0 244 0 214 0 c 1,33,-1
 214 0 l 1,17,18
357 0 m 1,34,35
 327 0 327 0 306 21 c 0,36,37
 285 42 285 42 286 71 c 0,38,39
 286 101 286 101 306 121 c 256,40,41
 327 142 327 142 357 143 c 0,42,43
 386 143 386 143 407 121 c 256,44,45
 428 100 428 100 429 71 c 0,46,47
 429 42 429 42 407 21 c 0,48,49
 386 0 386 0 357 0 c 1,50,-1
 357 0 l 1,34,35
500 0 m 1,51,52
 470 0 470 0 449 21 c 0,53,54
 428 42 428 42 429 71 c 0,55,56
 429 101 429 101 449 121 c 256,57,58
 470 142 470 142 500 143 c 256,59,60
 530 143 530 143 551 121 c 256,61,62
 572 100 572 100 571 71 c 0,63,64
 571 42 571 42 551 21 c 0,65,66
 530 0 530 0 500 0 c 1,67,-1
 500 0 l 1,51,52
643 0 m 1,68,69
 613 0 613 0 592 21 c 0,70,71
 571 42 571 42 571 71 c 0,72,73
 571 101 571 101 592 121 c 256,74,75
 613 142 613 142 643 143 c 0,76,77
 672 143 672 143 694 121 c 0,78,79
 715 100 715 100 714 71 c 0,80,81
 714 42 714 42 694 21 c 0,82,83
 673 0 673 0 643 0 c 1,84,-1
 643 0 l 1,68,69
786 0 m 1,85,86
 757 0 757 0 735 21 c 0,87,88
 714 42 714 42 714 71 c 0,89,90
 714 101 714 101 735 121 c 0,91,92
 756 142 756 142 786 143 c 0,93,94
 816 143 816 143 836 121 c 256,95,96
 857 100 857 100 857 71 c 0,97,98
 857 42 857 42 836 21 c 0,99,100
 815 0 815 0 786 0 c 1,101,-1
 786 0 l 1,85,86
214 143 m 1,102,103
 184 143 184 143 164 164 c 256,104,105
 143 185 143 185 143 214 c 256,106,107
 143 244 143 244 164 265 c 256,108,109
 185 286 185 286 214 286 c 256,110,111
 244 286 244 286 265 265 c 256,112,113
 286 244 286 244 286 214 c 256,114,115
 286 184 286 184 265 164 c 256,116,117
 244 143 244 143 214 143 c 1,118,-1
 214 143 l 1,102,103
214 286 m 1,119,120
 184 286 184 286 164 306 c 256,121,122
 143 327 143 327 143 357 c 0,123,124
 143 386 143 386 164 407 c 256,125,126
 185 428 185 428 214 429 c 256,127,128
 244 429 244 429 265 407 c 256,129,130
 286 386 286 386 286 357 c 0,131,132
 286 327 286 327 265 306 c 256,133,134
 244 285 244 285 214 286 c 1,135,-1
 214 286 l 1,119,120
214 429 m 1,136,137
 184 429 184 429 164 449 c 256,138,139
 143 470 143 470 143 500 c 256,140,141
 143 530 143 530 164 551 c 256,142,143
 185 572 185 572 214 571 c 256,144,145
 244 571 244 571 265 551 c 256,146,147
 286 530 286 530 286 500 c 256,148,149
 286 470 286 470 265 449 c 256,150,151
 244 428 244 428 214 429 c 1,152,-1
 214 429 l 1,136,137
357 571 m 1,153,154
 327 571 327 571 306 592 c 256,155,156
 285 613 285 613 286 643 c 0,157,158
 286 672 286 672 306 694 c 0,159,160
 327 715 327 715 357 714 c 0,161,162
 386 714 386 714 407 694 c 0,163,164
 428 673 428 673 429 643 c 0,165,166
 429 613 429 613 407 592 c 256,167,168
 386 571 386 571 357 571 c 1,169,-1
 357 571 l 1,153,154
500 714 m 1,170,171
 470 714 470 714 449 735 c 0,172,173
 428 756 428 756 429 786 c 0,174,175
 429 816 429 816 449 836 c 256,176,177
 470 857 470 857 500 857 c 256,178,179
 530 857 530 857 551 836 c 256,180,181
 572 815 572 815 571 786 c 0,182,183
 571 757 571 757 551 735 c 0,184,185
 530 714 530 714 500 714 c 1,186,-1
 500 714 l 1,170,171
643 857 m 1,187,188
 613 857 613 857 592 878 c 256,189,190
 571 899 571 899 571 929 c 256,191,192
 571 959 571 959 592 979 c 256,193,194
 613 1000 613 1000 643 1000 c 0,195,196
 672 1000 672 1000 694 979 c 0,197,198
 715 958 715 958 714 929 c 256,199,200
 714 899 714 899 694 878 c 0,201,202
 673 857 673 857 643 857 c 1,203,-1
 643 857 l 1,187,188
786 857 m 1,204,205
 757 857 757 857 735 878 c 0,206,207
 714 899 714 899 714 929 c 256,208,209
 714 959 714 959 735 979 c 0,210,211
 756 1000 756 1000 786 1000 c 0,212,213
 816 1000 816 1000 836 979 c 256,214,215
 857 958 857 958 857 929 c 256,216,217
 857 899 857 899 836 878 c 256,218,219
 815 857 815 857 786 857 c 1,220,-1
 786 857 l 1,204,205
EndSplineSet
Validated: 37
EndChar

StartChar: N
Encoding: 78 78 38
Width: 999
VWidth: 714
Flags: W
LayerCount: 2
Fore
SplineSet
214 0 m 1,0,1
 184 0 184 0 164 21 c 0,2,3
 143 42 143 42 143 71 c 0,4,5
 143 101 143 101 164 121 c 256,6,7
 185 142 185 142 214 143 c 256,8,9
 244 143 244 143 265 121 c 256,10,11
 286 100 286 100 286 71 c 0,12,13
 286 42 286 42 265 21 c 0,14,15
 244 0 244 0 214 0 c 1,16,-1
 214 0 l 1,0,1
786 0 m 1,17,18
 757 0 757 0 735 21 c 0,19,20
 714 42 714 42 714 71 c 0,21,22
 714 101 714 101 735 121 c 0,23,24
 756 142 756 142 786 143 c 0,25,26
 816 143 816 143 836 121 c 256,27,28
 857 100 857 100 857 71 c 0,29,30
 857 42 857 42 836 21 c 0,31,32
 815 0 815 0 786 0 c 1,33,-1
 786 0 l 1,17,18
71 143 m 1,34,35
 42 143 42 143 21 164 c 0,36,37
 0 185 0 185 0 214 c 256,38,39
 0 244 0 244 21 265 c 0,40,41
 42 286 42 286 71 286 c 0,42,43
 101 286 101 286 121 265 c 256,44,45
 142 244 142 244 143 214 c 256,46,47
 143 184 143 184 121 164 c 256,48,49
 100 143 100 143 71 143 c 1,50,-1
 71 143 l 1,34,35
357 143 m 1,51,52
 327 143 327 143 306 164 c 256,53,54
 285 185 285 185 286 214 c 256,55,56
 286 244 286 244 306 265 c 256,57,58
 327 286 327 286 357 286 c 0,59,60
 386 286 386 286 407 265 c 256,61,62
 428 244 428 244 429 214 c 256,63,64
 429 184 429 184 407 164 c 256,65,66
 386 143 386 143 357 143 c 1,67,-1
 357 143 l 1,51,52
786 143 m 1,68,69
 757 143 757 143 735 164 c 0,70,71
 714 185 714 185 714 214 c 256,72,73
 714 244 714 244 735 265 c 0,74,75
 756 286 756 286 786 286 c 0,76,77
 816 286 816 286 836 265 c 256,78,79
 857 244 857 244 857 214 c 256,80,81
 857 184 857 184 836 164 c 256,82,83
 815 143 815 143 786 143 c 1,84,-1
 786 143 l 1,68,69
71 286 m 1,85,86
 42 286 42 286 21 306 c 0,87,88
 0 327 0 327 0 357 c 0,89,90
 0 386 0 386 21 407 c 0,91,92
 42 428 42 428 71 429 c 0,93,94
 101 429 101 429 121 407 c 256,95,96
 142 386 142 386 143 357 c 0,97,98
 143 327 143 327 121 306 c 256,99,100
 100 285 100 285 71 286 c 1,101,-1
 71 286 l 1,85,86
357 286 m 1,102,103
 327 286 327 286 306 306 c 256,104,105
 285 327 285 327 286 357 c 0,106,107
 286 386 286 386 306 407 c 256,108,109
 327 428 327 428 357 429 c 0,110,111
 386 429 386 429 407 407 c 256,112,113
 428 386 428 386 429 357 c 0,114,115
 429 327 429 327 407 306 c 256,116,117
 386 285 386 285 357 286 c 1,118,-1
 357 286 l 1,102,103
786 286 m 1,119,120
 757 286 757 286 735 306 c 0,121,122
 714 327 714 327 714 357 c 0,123,124
 714 386 714 386 735 407 c 0,125,126
 756 428 756 428 786 429 c 0,127,128
 816 429 816 429 836 407 c 256,129,130
 857 386 857 386 857 357 c 0,131,132
 857 327 857 327 836 306 c 256,133,134
 815 285 815 285 786 286 c 1,135,-1
 786 286 l 1,119,120
71 429 m 1,136,137
 42 429 42 429 21 449 c 0,138,139
 0 470 0 470 0 500 c 256,140,141
 0 530 0 530 21 551 c 0,142,143
 42 572 42 572 71 571 c 0,144,145
 101 571 101 571 121 551 c 256,146,147
 142 530 142 530 143 500 c 256,148,149
 143 470 143 470 121 449 c 256,150,151
 100 428 100 428 71 429 c 1,152,-1
 71 429 l 1,136,137
357 429 m 1,153,154
 327 429 327 429 306 449 c 256,155,156
 285 470 285 470 286 500 c 256,157,158
 286 530 286 530 306 551 c 256,159,160
 327 572 327 572 357 571 c 0,161,162
 386 571 386 571 407 551 c 256,163,164
 428 530 428 530 429 500 c 256,165,166
 429 470 429 470 407 449 c 256,167,168
 386 428 386 428 357 429 c 1,169,-1
 357 429 l 1,153,154
786 429 m 1,170,171
 757 429 757 429 735 449 c 0,172,173
 714 470 714 470 714 500 c 256,174,175
 714 530 714 530 735 551 c 0,176,177
 756 572 756 572 786 571 c 0,178,179
 816 571 816 571 836 551 c 256,180,181
 857 530 857 530 857 500 c 256,182,183
 857 470 857 470 836 449 c 256,184,185
 815 428 815 428 786 429 c 1,186,-1
 786 429 l 1,170,171
71 571 m 1,187,188
 42 571 42 571 21 592 c 0,189,190
 0 613 0 613 0 643 c 0,191,192
 0 672 0 672 21 694 c 0,193,194
 42 715 42 715 71 714 c 0,195,196
 101 714 101 714 121 694 c 0,197,198
 142 673 142 673 143 643 c 0,199,200
 143 613 143 613 121 592 c 256,201,202
 100 571 100 571 71 571 c 1,203,-1
 71 571 l 1,187,188
500 571 m 1,204,205
 470 571 470 571 449 592 c 256,206,207
 428 613 428 613 429 643 c 0,208,209
 429 672 429 672 449 694 c 0,210,211
 470 715 470 715 500 714 c 256,212,213
 530 714 530 714 551 694 c 0,214,215
 572 673 572 673 571 643 c 0,216,217
 571 613 571 613 551 592 c 256,218,219
 530 571 530 571 500 571 c 1,220,-1
 500 571 l 1,204,205
786 571 m 1,221,222
 757 571 757 571 735 592 c 0,223,224
 714 613 714 613 714 643 c 0,225,226
 714 672 714 672 735 694 c 0,227,228
 756 715 756 715 786 714 c 0,229,230
 816 714 816 714 836 694 c 0,231,232
 857 673 857 673 857 643 c 0,233,234
 857 613 857 613 836 592 c 256,235,236
 815 571 815 571 786 571 c 1,237,-1
 786 571 l 1,221,222
71 714 m 1,238,239
 42 714 42 714 21 735 c 0,240,241
 0 756 0 756 0 786 c 0,242,243
 0 816 0 816 21 836 c 0,244,245
 42 857 42 857 71 857 c 0,246,247
 101 857 101 857 121 836 c 256,248,249
 142 815 142 815 143 786 c 0,250,251
 143 757 143 757 121 735 c 0,252,253
 100 714 100 714 71 714 c 1,254,-1
 71 714 l 1,238,239
643 714 m 1,255,256
 613 714 613 714 592 735 c 0,257,258
 571 756 571 756 571 786 c 0,259,260
 571 816 571 816 592 836 c 256,261,262
 613 857 613 857 643 857 c 0,263,264
 672 857 672 857 694 836 c 0,265,266
 715 815 715 815 714 786 c 0,267,268
 714 757 714 757 694 735 c 0,269,270
 673 714 673 714 643 714 c 1,271,-1
 643 714 l 1,255,256
214 857 m 1,272,273
 184 857 184 857 164 878 c 256,274,275
 143 899 143 899 143 929 c 256,276,277
 143 959 143 959 164 979 c 256,278,279
 185 1000 185 1000 214 1000 c 256,280,281
 244 1000 244 1000 265 979 c 256,282,283
 286 958 286 958 286 929 c 256,284,285
 286 899 286 899 265 878 c 256,286,287
 244 857 244 857 214 857 c 1,288,-1
 214 857 l 1,272,273
643 857 m 1,289,290
 613 857 613 857 592 878 c 256,291,292
 571 899 571 899 571 929 c 256,293,294
 571 959 571 959 592 979 c 256,295,296
 613 1000 613 1000 643 1000 c 0,297,298
 672 1000 672 1000 694 979 c 0,299,300
 715 958 715 958 714 929 c 256,301,302
 714 899 714 899 694 878 c 0,303,304
 673 857 673 857 643 857 c 1,305,-1
 643 857 l 1,289,290
EndSplineSet
Validated: 37
EndChar

StartChar: O
Encoding: 79 79 39
Width: 999
VWidth: 714
Flags: W
LayerCount: 2
Fore
SplineSet
71 0 m 1,0,1
 42 0 42 0 21 21 c 0,2,3
 0 42 0 42 0 71 c 0,4,5
 0 101 0 101 21 121 c 0,6,7
 42 142 42 142 71 143 c 0,8,9
 101 143 101 143 121 121 c 256,10,11
 142 100 142 100 143 71 c 0,12,13
 143 42 143 42 121 21 c 0,14,15
 100 0 100 0 71 0 c 1,16,-1
 71 0 l 1,0,1
214 0 m 1,17,18
 184 0 184 0 164 21 c 0,19,20
 143 42 143 42 143 71 c 0,21,22
 143 101 143 101 164 121 c 256,23,24
 185 142 185 142 214 143 c 256,25,26
 244 143 244 143 265 121 c 256,27,28
 286 100 286 100 286 71 c 0,29,30
 286 42 286 42 265 21 c 0,31,32
 244 0 244 0 214 0 c 1,33,-1
 214 0 l 1,17,18
357 0 m 1,34,35
 327 0 327 0 306 21 c 0,36,37
 285 42 285 42 286 71 c 0,38,39
 286 101 286 101 306 121 c 256,40,41
 327 142 327 142 357 143 c 0,42,43
 386 143 386 143 407 121 c 256,44,45
 428 100 428 100 429 71 c 0,46,47
 429 42 429 42 407 21 c 0,48,49
 386 0 386 0 357 0 c 1,50,-1
 357 0 l 1,34,35
500 0 m 1,51,52
 470 0 470 0 449 21 c 0,53,54
 428 42 428 42 429 71 c 0,55,56
 429 101 429 101 449 121 c 256,57,58
 470 142 470 142 500 143 c 256,59,60
 530 143 530 143 551 121 c 256,61,62
 572 100 572 100 571 71 c 0,63,64
 571 42 571 42 551 21 c 0,65,66
 530 0 530 0 500 0 c 1,67,-1
 500 0 l 1,51,52
643 0 m 1,68,69
 613 0 613 0 592 21 c 0,70,71
 571 42 571 42 571 71 c 0,72,73
 571 101 571 101 592 121 c 256,74,75
 613 142 613 142 643 143 c 0,76,77
 672 143 672 143 694 121 c 0,78,79
 715 100 715 100 714 71 c 0,80,81
 714 42 714 42 694 21 c 0,82,83
 673 0 673 0 643 0 c 1,84,-1
 643 0 l 1,68,69
786 0 m 1,85,86
 757 0 757 0 735 21 c 0,87,88
 714 42 714 42 714 71 c 0,89,90
 714 101 714 101 735 121 c 0,91,92
 756 142 756 142 786 143 c 0,93,94
 816 143 816 143 836 121 c 256,95,96
 857 100 857 100 857 71 c 0,97,98
 857 42 857 42 836 21 c 0,99,100
 815 0 815 0 786 0 c 1,101,-1
 786 0 l 1,85,86
71 143 m 1,102,103
 42 143 42 143 21 164 c 0,104,105
 0 185 0 185 0 214 c 256,106,107
 0 244 0 244 21 265 c 0,108,109
 42 286 42 286 71 286 c 0,110,111
 101 286 101 286 121 265 c 256,112,113
 142 244 142 244 143 214 c 256,114,115
 143 184 143 184 121 164 c 256,116,117
 100 143 100 143 71 143 c 1,118,-1
 71 143 l 1,102,103
786 143 m 1,119,120
 757 143 757 143 735 164 c 0,121,122
 714 185 714 185 714 214 c 256,123,124
 714 244 714 244 735 265 c 0,125,126
 756 286 756 286 786 286 c 0,127,128
 816 286 816 286 836 265 c 256,129,130
 857 244 857 244 857 214 c 256,131,132
 857 184 857 184 836 164 c 256,133,134
 815 143 815 143 786 143 c 1,135,-1
 786 143 l 1,119,120
71 286 m 1,136,137
 42 286 42 286 21 306 c 0,138,139
 0 327 0 327 0 357 c 0,140,141
 0 386 0 386 21 407 c 0,142,143
 42 428 42 428 71 429 c 0,144,145
 101 429 101 429 121 407 c 256,146,147
 142 386 142 386 143 357 c 0,148,149
 143 327 143 327 121 306 c 256,150,151
 100 285 100 285 71 286 c 1,152,-1
 71 286 l 1,136,137
786 286 m 1,153,154
 757 286 757 286 735 306 c 0,155,156
 714 327 714 327 714 357 c 0,157,158
 714 386 714 386 735 407 c 0,159,160
 756 428 756 428 786 429 c 0,161,162
 816 429 816 429 836 407 c 256,163,164
 857 386 857 386 857 357 c 0,165,166
 857 327 857 327 836 306 c 256,167,168
 815 285 815 285 786 286 c 1,169,-1
 786 286 l 1,153,154
71 429 m 1,170,171
 42 429 42 429 21 449 c 0,172,173
 0 470 0 470 0 500 c 256,174,175
 0 530 0 530 21 551 c 0,176,177
 42 572 42 572 71 571 c 0,178,179
 101 571 101 571 121 551 c 256,180,181
 142 530 142 530 143 500 c 256,182,183
 143 470 143 470 121 449 c 256,184,185
 100 428 100 428 71 429 c 1,186,-1
 71 429 l 1,170,171
786 429 m 1,187,188
 757 429 757 429 735 449 c 0,189,190
 714 470 714 470 714 500 c 256,191,192
 714 530 714 530 735 551 c 0,193,194
 756 572 756 572 786 571 c 0,195,196
 816 571 816 571 836 551 c 256,197,198
 857 530 857 530 857 500 c 256,199,200
 857 470 857 470 836 449 c 256,201,202
 815 428 815 428 786 429 c 1,203,-1
 786 429 l 1,187,188
71 571 m 1,204,205
 42 571 42 571 21 592 c 0,206,207
 0 613 0 613 0 643 c 0,208,209
 0 672 0 672 21 694 c 0,210,211
 42 715 42 715 71 714 c 0,212,213
 101 714 101 714 121 694 c 0,214,215
 142 673 142 673 143 643 c 0,216,217
 143 613 143 613 121 592 c 256,218,219
 100 571 100 571 71 571 c 1,220,-1
 71 571 l 1,204,205
786 571 m 1,221,222
 757 571 757 571 735 592 c 0,223,224
 714 613 714 613 714 643 c 0,225,226
 714 672 714 672 735 694 c 0,227,228
 756 715 756 715 786 714 c 0,229,230
 816 714 816 714 836 694 c 0,231,232
 857 673 857 673 857 643 c 0,233,234
 857 613 857 613 836 592 c 256,235,236
 815 571 815 571 786 571 c 1,237,-1
 786 571 l 1,221,222
214 714 m 1,238,239
 184 714 184 714 164 735 c 0,240,241
 143 756 143 756 143 786 c 0,242,243
 143 816 143 816 164 836 c 256,244,245
 185 857 185 857 214 857 c 256,246,247
 244 857 244 857 265 836 c 256,248,249
 286 815 286 815 286 786 c 0,250,251
 286 757 286 757 265 735 c 0,252,253
 244 714 244 714 214 714 c 1,254,-1
 214 714 l 1,238,239
643 714 m 1,255,256
 613 714 613 714 592 735 c 0,257,258
 571 756 571 756 571 786 c 0,259,260
 571 816 571 816 592 836 c 256,261,262
 613 857 613 857 643 857 c 0,263,264
 672 857 672 857 694 836 c 0,265,266
 715 815 715 815 714 786 c 0,267,268
 714 757 714 757 694 735 c 0,269,270
 673 714 673 714 643 714 c 1,271,-1
 643 714 l 1,255,256
357 857 m 1,272,273
 327 857 327 857 306 878 c 256,274,275
 285 899 285 899 286 929 c 256,276,277
 286 959 286 959 306 979 c 256,278,279
 327 1000 327 1000 357 1000 c 0,280,281
 386 1000 386 1000 407 979 c 256,282,283
 428 958 428 958 429 929 c 256,284,285
 429 899 429 899 407 878 c 256,286,287
 386 857 386 857 357 857 c 1,288,-1
 357 857 l 1,272,273
500 857 m 1,289,290
 470 857 470 857 449 878 c 256,291,292
 428 899 428 899 429 929 c 256,293,294
 429 959 429 959 449 979 c 256,295,296
 470 1000 470 1000 500 1000 c 256,297,298
 530 1000 530 1000 551 979 c 256,299,300
 572 958 572 958 571 929 c 256,301,302
 571 899 571 899 551 878 c 256,303,304
 530 857 530 857 500 857 c 1,305,-1
 500 857 l 1,289,290
EndSplineSet
Validated: 37
EndChar

StartChar: P
Encoding: 80 80 40
Width: 999
VWidth: 714
Flags: W
LayerCount: 2
Fore
SplineSet
214 0 m 1,0,1
 184 0 184 0 164 21 c 0,2,3
 143 42 143 42 143 71 c 0,4,5
 143 101 143 101 164 121 c 256,6,7
 185 142 185 142 214 143 c 256,8,9
 244 143 244 143 265 121 c 256,10,11
 286 100 286 100 286 71 c 0,12,13
 286 42 286 42 265 21 c 0,14,15
 244 0 244 0 214 0 c 1,16,-1
 214 0 l 1,0,1
357 0 m 1,17,18
 327 0 327 0 306 21 c 0,19,20
 285 42 285 42 286 71 c 0,21,22
 286 101 286 101 306 121 c 256,23,24
 327 142 327 142 357 143 c 0,25,26
 386 143 386 143 407 121 c 256,27,28
 428 100 428 100 429 71 c 0,29,30
 429 42 429 42 407 21 c 0,31,32
 386 0 386 0 357 0 c 1,33,-1
 357 0 l 1,17,18
500 0 m 1,34,35
 470 0 470 0 449 21 c 0,36,37
 428 42 428 42 429 71 c 0,38,39
 429 101 429 101 449 121 c 256,40,41
 470 142 470 142 500 143 c 256,42,43
 530 143 530 143 551 121 c 256,44,45
 572 100 572 100 571 71 c 0,46,47
 571 42 571 42 551 21 c 0,48,49
 530 0 530 0 500 0 c 1,50,-1
 500 0 l 1,34,35
643 0 m 1,51,52
 613 0 613 0 592 21 c 0,53,54
 571 42 571 42 571 71 c 0,55,56
 571 101 571 101 592 121 c 256,57,58
 613 142 613 142 643 143 c 0,59,60
 672 143 672 143 694 121 c 0,61,62
 715 100 715 100 714 71 c 0,63,64
 714 42 714 42 694 21 c 0,65,66
 673 0 673 0 643 0 c 1,67,-1
 643 0 l 1,51,52
71 143 m 1,68,69
 42 143 42 143 21 164 c 0,70,71
 0 185 0 185 0 214 c 256,72,73
 0 244 0 244 21 265 c 0,74,75
 42 286 42 286 71 286 c 0,76,77
 101 286 101 286 121 265 c 256,78,79
 142 244 142 244 143 214 c 256,80,81
 143 184 143 184 121 164 c 256,82,83
 100 143 100 143 71 143 c 1,84,-1
 71 143 l 1,68,69
643 143 m 1,85,86
 613 143 613 143 592 164 c 256,87,88
 571 185 571 185 571 214 c 256,89,90
 571 244 571 244 592 265 c 256,91,92
 613 286 613 286 643 286 c 0,93,94
 672 286 672 286 694 265 c 0,95,96
 715 244 715 244 714 214 c 256,97,98
 714 184 714 184 694 164 c 0,99,100
 673 143 673 143 643 143 c 1,101,-1
 643 143 l 1,85,86
71 286 m 1,102,103
 42 286 42 286 21 306 c 0,104,105
 0 327 0 327 0 357 c 0,106,107
 0 386 0 386 21 407 c 0,108,109
 42 428 42 428 71 429 c 0,110,111
 101 429 101 429 121 407 c 256,112,113
 142 386 142 386 143 357 c 0,114,115
 143 327 143 327 121 306 c 256,116,117
 100 285 100 285 71 286 c 1,118,-1
 71 286 l 1,102,103
643 286 m 1,119,120
 613 286 613 286 592 306 c 256,121,122
 571 327 571 327 571 357 c 0,123,124
 571 386 571 386 592 407 c 256,125,126
 613 428 613 428 643 429 c 0,127,128
 672 429 672 429 694 407 c 0,129,130
 715 386 715 386 714 357 c 0,131,132
 714 327 714 327 694 306 c 0,133,134
 673 285 673 285 643 286 c 1,135,-1
 643 286 l 1,119,120
71 429 m 1,136,137
 42 429 42 429 21 449 c 0,138,139
 0 470 0 470 0 500 c 256,140,141
 0 530 0 530 21 551 c 0,142,143
 42 572 42 572 71 571 c 0,144,145
 101 571 101 571 121 551 c 256,146,147
 142 530 142 530 143 500 c 256,148,149
 143 470 143 470 121 449 c 256,150,151
 100 428 100 428 71 429 c 1,152,-1
 71 429 l 1,136,137
643 429 m 1,153,154
 613 429 613 429 592 449 c 256,155,156
 571 470 571 470 571 500 c 256,157,158
 571 530 571 530 592 551 c 256,159,160
 613 572 613 572 643 571 c 0,161,162
 672 571 672 571 694 551 c 0,163,164
 715 530 715 530 714 500 c 256,165,166
 714 470 714 470 694 449 c 0,167,168
 673 428 673 428 643 429 c 1,169,-1
 643 429 l 1,153,154
71 571 m 1,170,171
 42 571 42 571 21 592 c 0,172,173
 0 613 0 613 0 643 c 0,174,175
 0 672 0 672 21 694 c 0,176,177
 42 715 42 715 71 714 c 0,178,179
 101 714 101 714 121 694 c 0,180,181
 142 673 142 673 143 643 c 0,182,183
 143 613 143 613 121 592 c 256,184,185
 100 571 100 571 71 571 c 1,186,-1
 71 571 l 1,170,171
357 571 m 1,187,188
 327 571 327 571 306 592 c 256,189,190
 285 613 285 613 286 643 c 0,191,192
 286 672 286 672 306 694 c 0,193,194
 327 715 327 715 357 714 c 0,195,196
 386 714 386 714 407 694 c 0,197,198
 428 673 428 673 429 643 c 0,199,200
 429 613 429 613 407 592 c 256,201,202
 386 571 386 571 357 571 c 1,203,-1
 357 571 l 1,187,188
643 571 m 1,204,205
 613 571 613 571 592 592 c 256,206,207
 571 613 571 613 571 643 c 0,208,209
 571 672 571 672 592 694 c 0,210,211
 613 715 613 715 643 714 c 0,212,213
 672 714 672 714 694 694 c 0,214,215
 715 673 715 673 714 643 c 0,216,217
 714 613 714 613 694 592 c 0,218,219
 673 571 673 571 643 571 c 1,220,-1
 643 571 l 1,204,205
71 714 m 1,221,222
 42 714 42 714 21 735 c 0,223,224
 0 756 0 756 0 786 c 0,225,226
 0 816 0 816 21 836 c 0,227,228
 42 857 42 857 71 857 c 0,229,230
 101 857 101 857 121 836 c 256,231,232
 142 815 142 815 143 786 c 0,233,234
 143 757 143 757 121 735 c 0,235,236
 100 714 100 714 71 714 c 1,237,-1
 71 714 l 1,221,222
357 714 m 1,238,239
 327 714 327 714 306 735 c 0,240,241
 285 756 285 756 286 786 c 0,242,243
 286 816 286 816 306 836 c 256,244,245
 327 857 327 857 357 857 c 0,246,247
 386 857 386 857 407 836 c 256,248,249
 428 815 428 815 429 786 c 0,250,251
 429 757 429 757 407 735 c 0,252,253
 386 714 386 714 357 714 c 1,254,-1
 357 714 l 1,238,239
643 714 m 1,255,256
 613 714 613 714 592 735 c 0,257,258
 571 756 571 756 571 786 c 0,259,260
 571 816 571 816 592 836 c 256,261,262
 613 857 613 857 643 857 c 0,263,264
 672 857 672 857 694 836 c 0,265,266
 715 815 715 815 714 786 c 0,267,268
 714 757 714 757 694 735 c 0,269,270
 673 714 673 714 643 714 c 1,271,-1
 643 714 l 1,255,256
214 857 m 1,272,273
 184 857 184 857 164 878 c 256,274,275
 143 899 143 899 143 929 c 256,276,277
 143 959 143 959 164 979 c 256,278,279
 185 1000 185 1000 214 1000 c 256,280,281
 244 1000 244 1000 265 979 c 256,282,283
 286 958 286 958 286 929 c 256,284,285
 286 899 286 899 265 878 c 256,286,287
 244 857 244 857 214 857 c 1,288,-1
 214 857 l 1,272,273
357 857 m 1,289,290
 327 857 327 857 306 878 c 256,291,292
 285 899 285 899 286 929 c 256,293,294
 286 959 286 959 306 979 c 256,295,296
 327 1000 327 1000 357 1000 c 0,297,298
 386 1000 386 1000 407 979 c 256,299,300
 428 958 428 958 429 929 c 256,301,302
 429 899 429 899 407 878 c 256,303,304
 386 857 386 857 357 857 c 1,305,-1
 357 857 l 1,289,290
643 857 m 1,306,307
 613 857 613 857 592 878 c 256,308,309
 571 899 571 899 571 929 c 256,310,311
 571 959 571 959 592 979 c 256,312,313
 613 1000 613 1000 643 1000 c 0,314,315
 672 1000 672 1000 694 979 c 0,316,317
 715 958 715 958 714 929 c 256,318,319
 714 899 714 899 694 878 c 0,320,321
 673 857 673 857 643 857 c 1,322,-1
 643 857 l 1,306,307
786 857 m 1,323,324
 757 857 757 857 735 878 c 0,325,326
 714 899 714 899 714 929 c 256,327,328
 714 959 714 959 735 979 c 0,329,330
 756 1000 756 1000 786 1000 c 0,331,332
 816 1000 816 1000 836 979 c 256,333,334
 857 958 857 958 857 929 c 256,335,336
 857 899 857 899 836 878 c 256,337,338
 815 857 815 857 786 857 c 1,339,-1
 786 857 l 1,323,324
EndSplineSet
Validated: 37
EndChar

StartChar: Q
Encoding: 81 81 41
Width: 999
VWidth: 714
Flags: W
LayerCount: 2
Fore
SplineSet
71 0 m 1,0,1
 42 0 42 0 21 21 c 0,2,3
 0 42 0 42 0 71 c 0,4,5
 0 101 0 101 21 121 c 0,6,7
 42 142 42 142 71 143 c 0,8,9
 101 143 101 143 121 121 c 256,10,11
 142 100 142 100 143 71 c 0,12,13
 143 42 143 42 121 21 c 0,14,15
 100 0 100 0 71 0 c 1,16,-1
 71 0 l 1,0,1
214 0 m 1,17,18
 184 0 184 0 164 21 c 0,19,20
 143 42 143 42 143 71 c 0,21,22
 143 101 143 101 164 121 c 256,23,24
 185 142 185 142 214 143 c 256,25,26
 244 143 244 143 265 121 c 256,27,28
 286 100 286 100 286 71 c 0,29,30
 286 42 286 42 265 21 c 0,31,32
 244 0 244 0 214 0 c 1,33,-1
 214 0 l 1,17,18
357 0 m 1,34,35
 327 0 327 0 306 21 c 0,36,37
 285 42 285 42 286 71 c 0,38,39
 286 101 286 101 306 121 c 256,40,41
 327 142 327 142 357 143 c 0,42,43
 386 143 386 143 407 121 c 256,44,45
 428 100 428 100 429 71 c 0,46,47
 429 42 429 42 407 21 c 0,48,49
 386 0 386 0 357 0 c 1,50,-1
 357 0 l 1,34,35
500 0 m 1,51,52
 470 0 470 0 449 21 c 0,53,54
 428 42 428 42 429 71 c 0,55,56
 429 101 429 101 449 121 c 256,57,58
 470 142 470 142 500 143 c 256,59,60
 530 143 530 143 551 121 c 256,61,62
 572 100 572 100 571 71 c 0,63,64
 571 42 571 42 551 21 c 0,65,66
 530 0 530 0 500 0 c 1,67,-1
 500 0 l 1,51,52
71 143 m 1,68,69
 42 143 42 143 21 164 c 0,70,71
 0 185 0 185 0 214 c 256,72,73
 0 244 0 244 21 265 c 0,74,75
 42 286 42 286 71 286 c 0,76,77
 101 286 101 286 121 265 c 256,78,79
 142 244 142 244 143 214 c 256,80,81
 143 184 143 184 121 164 c 256,82,83
 100 143 100 143 71 143 c 1,84,-1
 71 143 l 1,68,69
71 286 m 1,85,86
 42 286 42 286 21 306 c 0,87,88
 0 327 0 327 0 357 c 0,89,90
 0 386 0 386 21 407 c 0,91,92
 42 428 42 428 71 429 c 0,93,94
 101 429 101 429 121 407 c 256,95,96
 142 386 142 386 143 357 c 0,97,98
 143 327 143 327 121 306 c 256,99,100
 100 285 100 285 71 286 c 1,101,-1
 71 286 l 1,85,86
71 429 m 1,102,103
 42 429 42 429 21 449 c 0,104,105
 0 470 0 470 0 500 c 256,106,107
 0 530 0 530 21 551 c 0,108,109
 42 572 42 572 71 571 c 0,110,111
 101 571 101 571 121 551 c 256,112,113
 142 530 142 530 143 500 c 256,114,115
 143 470 143 470 121 449 c 256,116,117
 100 428 100 428 71 429 c 1,118,-1
 71 429 l 1,102,103
786 429 m 1,119,120
 757 429 757 429 735 449 c 0,121,122
 714 470 714 470 714 500 c 256,123,124
 714 530 714 530 735 551 c 0,125,126
 756 572 756 572 786 571 c 0,127,128
 816 571 816 571 836 551 c 256,129,130
 857 530 857 530 857 500 c 256,131,132
 857 470 857 470 836 449 c 256,133,134
 815 428 815 428 786 429 c 1,135,-1
 786 429 l 1,119,120
71 571 m 1,136,137
 42 571 42 571 21 592 c 0,138,139
 0 613 0 613 0 643 c 0,140,141
 0 672 0 672 21 694 c 0,142,143
 42 715 42 715 71 714 c 0,144,145
 101 714 101 714 121 694 c 0,146,147
 142 673 142 673 143 643 c 0,148,149
 143 613 143 613 121 592 c 256,150,151
 100 571 100 571 71 571 c 1,152,-1
 71 571 l 1,136,137
786 571 m 1,153,154
 757 571 757 571 735 592 c 0,155,156
 714 613 714 613 714 643 c 0,157,158
 714 672 714 672 735 694 c 0,159,160
 756 715 756 715 786 714 c 0,161,162
 816 714 816 714 836 694 c 0,163,164
 857 673 857 673 857 643 c 0,165,166
 857 613 857 613 836 592 c 256,167,168
 815 571 815 571 786 571 c 1,169,-1
 786 571 l 1,153,154
71 714 m 1,170,171
 42 714 42 714 21 735 c 0,172,173
 0 756 0 756 0 786 c 0,174,175
 0 816 0 816 21 836 c 0,176,177
 42 857 42 857 71 857 c 0,178,179
 101 857 101 857 121 836 c 256,180,181
 142 815 142 815 143 786 c 0,182,183
 143 757 143 757 121 735 c 0,184,185
 100 714 100 714 71 714 c 1,186,-1
 71 714 l 1,170,171
786 714 m 1,187,188
 757 714 757 714 735 735 c 0,189,190
 714 756 714 756 714 786 c 0,191,192
 714 816 714 816 735 836 c 0,193,194
 756 857 756 857 786 857 c 0,195,196
 816 857 816 857 836 836 c 256,197,198
 857 815 857 815 857 786 c 0,199,200
 857 757 857 757 836 735 c 0,201,202
 815 714 815 714 786 714 c 1,203,-1
 786 714 l 1,187,188
71 857 m 1,204,205
 42 857 42 857 21 878 c 0,206,207
 0 899 0 899 0 929 c 256,208,209
 0 959 0 959 21 979 c 0,210,211
 42 1000 42 1000 71 1000 c 0,212,213
 101 1000 101 1000 121 979 c 256,214,215
 142 958 142 958 143 929 c 256,216,217
 143 899 143 899 121 878 c 256,218,219
 100 857 100 857 71 857 c 1,220,-1
 71 857 l 1,204,205
214 857 m 1,221,222
 184 857 184 857 164 878 c 256,223,224
 143 899 143 899 143 929 c 256,225,226
 143 959 143 959 164 979 c 256,227,228
 185 1000 185 1000 214 1000 c 256,229,230
 244 1000 244 1000 265 979 c 256,231,232
 286 958 286 958 286 929 c 256,233,234
 286 899 286 899 265 878 c 256,235,236
 244 857 244 857 214 857 c 1,237,-1
 214 857 l 1,221,222
357 857 m 1,238,239
 327 857 327 857 306 878 c 256,240,241
 285 899 285 899 286 929 c 256,242,243
 286 959 286 959 306 979 c 256,244,245
 327 1000 327 1000 357 1000 c 0,246,247
 386 1000 386 1000 407 979 c 256,248,249
 428 958 428 958 429 929 c 256,250,251
 429 899 429 899 407 878 c 256,252,253
 386 857 386 857 357 857 c 1,254,-1
 357 857 l 1,238,239
500 857 m 1,255,256
 470 857 470 857 449 878 c 256,257,258
 428 899 428 899 429 929 c 256,259,260
 429 959 429 959 449 979 c 256,261,262
 470 1000 470 1000 500 1000 c 256,263,264
 530 1000 530 1000 551 979 c 256,265,266
 572 958 572 958 571 929 c 256,267,268
 571 899 571 899 551 878 c 256,269,270
 530 857 530 857 500 857 c 1,271,-1
 500 857 l 1,255,256
643 857 m 1,272,273
 613 857 613 857 592 878 c 256,274,275
 571 899 571 899 571 929 c 256,276,277
 571 959 571 959 592 979 c 256,278,279
 613 1000 613 1000 643 1000 c 0,280,281
 672 1000 672 1000 694 979 c 0,282,283
 715 958 715 958 714 929 c 256,284,285
 714 899 714 899 694 878 c 0,286,287
 673 857 673 857 643 857 c 1,288,-1
 643 857 l 1,272,273
786 857 m 1,289,290
 757 857 757 857 735 878 c 0,291,292
 714 899 714 899 714 929 c 256,293,294
 714 959 714 959 735 979 c 0,295,296
 756 1000 756 1000 786 1000 c 0,297,298
 816 1000 816 1000 836 979 c 256,299,300
 857 958 857 958 857 929 c 256,301,302
 857 899 857 899 836 878 c 256,303,304
 815 857 815 857 786 857 c 1,305,-1
 786 857 l 1,289,290
EndSplineSet
Validated: 37
EndChar

StartChar: R
Encoding: 82 82 42
Width: 999
VWidth: 714
Flags: W
LayerCount: 2
Fore
SplineSet
357 0 m 1,0,1
 327 0 327 0 306 21 c 0,2,3
 285 42 285 42 286 71 c 0,4,5
 286 101 286 101 306 121 c 256,6,7
 327 142 327 142 357 143 c 0,8,9
 386 143 386 143 407 121 c 256,10,11
 428 100 428 100 429 71 c 0,12,13
 429 42 429 42 407 21 c 0,14,15
 386 0 386 0 357 0 c 1,16,-1
 357 0 l 1,0,1
357 143 m 1,17,18
 327 143 327 143 306 164 c 256,19,20
 285 185 285 185 286 214 c 256,21,22
 286 244 286 244 306 265 c 256,23,24
 327 286 327 286 357 286 c 0,25,26
 386 286 386 286 407 265 c 256,27,28
 428 244 428 244 429 214 c 256,29,30
 429 184 429 184 407 164 c 256,31,32
 386 143 386 143 357 143 c 1,33,-1
 357 143 l 1,17,18
500 286 m 1,34,35
 470 286 470 286 449 306 c 256,36,37
 428 327 428 327 429 357 c 0,38,39
 429 386 429 386 449 407 c 256,40,41
 470 428 470 428 500 429 c 256,42,43
 530 429 530 429 551 407 c 256,44,45
 572 386 572 386 571 357 c 0,46,47
 571 327 571 327 551 306 c 256,48,49
 530 285 530 285 500 286 c 1,50,-1
 500 286 l 1,34,35
500 429 m 1,51,52
 470 429 470 429 449 449 c 256,53,54
 428 470 428 470 429 500 c 256,55,56
 429 530 429 530 449 551 c 256,57,58
 470 572 470 572 500 571 c 256,59,60
 530 571 530 571 551 551 c 256,61,62
 572 530 572 530 571 500 c 256,63,64
 571 470 571 470 551 449 c 256,65,66
 530 428 530 428 500 429 c 1,67,-1
 500 429 l 1,51,52
643 571 m 1,68,69
 613 571 613 571 592 592 c 256,70,71
 571 613 571 613 571 643 c 0,72,73
 571 672 571 672 592 694 c 0,74,75
 613 715 613 715 643 714 c 0,76,77
 672 714 672 714 694 694 c 0,78,79
 715 673 715 673 714 643 c 0,80,81
 714 613 714 613 694 592 c 0,82,83
 673 571 673 571 643 571 c 1,84,-1
 643 571 l 1,68,69
643 714 m 1,85,86
 613 714 613 714 592 735 c 0,87,88
 571 756 571 756 571 786 c 0,89,90
 571 816 571 816 592 836 c 256,91,92
 613 857 613 857 643 857 c 0,93,94
 672 857 672 857 694 836 c 0,95,96
 715 815 715 815 714 786 c 0,97,98
 714 757 714 757 694 735 c 0,99,100
 673 714 673 714 643 714 c 1,101,-1
 643 714 l 1,85,86
71 857 m 1,102,103
 42 857 42 857 21 878 c 0,104,105
 0 899 0 899 0 929 c 256,106,107
 0 959 0 959 21 979 c 0,108,109
 42 1000 42 1000 71 1000 c 0,110,111
 101 1000 101 1000 121 979 c 256,112,113
 142 958 142 958 143 929 c 256,114,115
 143 899 143 899 121 878 c 256,116,117
 100 857 100 857 71 857 c 1,118,-1
 71 857 l 1,102,103
214 857 m 1,119,120
 184 857 184 857 164 878 c 256,121,122
 143 899 143 899 143 929 c 256,123,124
 143 959 143 959 164 979 c 256,125,126
 185 1000 185 1000 214 1000 c 256,127,128
 244 1000 244 1000 265 979 c 256,129,130
 286 958 286 958 286 929 c 256,131,132
 286 899 286 899 265 878 c 256,133,134
 244 857 244 857 214 857 c 1,135,-1
 214 857 l 1,119,120
357 857 m 1,136,137
 327 857 327 857 306 878 c 256,138,139
 285 899 285 899 286 929 c 256,140,141
 286 959 286 959 306 979 c 256,142,143
 327 1000 327 1000 357 1000 c 0,144,145
 386 1000 386 1000 407 979 c 256,146,147
 428 958 428 958 429 929 c 256,148,149
 429 899 429 899 407 878 c 256,150,151
 386 857 386 857 357 857 c 1,152,-1
 357 857 l 1,136,137
500 857 m 1,153,154
 470 857 470 857 449 878 c 256,155,156
 428 899 428 899 429 929 c 256,157,158
 429 959 429 959 449 979 c 256,159,160
 470 1000 470 1000 500 1000 c 256,161,162
 530 1000 530 1000 551 979 c 256,163,164
 572 958 572 958 571 929 c 256,165,166
 571 899 571 899 551 878 c 256,167,168
 530 857 530 857 500 857 c 1,169,-1
 500 857 l 1,153,154
643 857 m 1,170,171
 613 857 613 857 592 878 c 256,172,173
 571 899 571 899 571 929 c 256,174,175
 571 959 571 959 592 979 c 256,176,177
 613 1000 613 1000 643 1000 c 0,178,179
 672 1000 672 1000 694 979 c 0,180,181
 715 958 715 958 714 929 c 256,182,183
 714 899 714 899 694 878 c 0,184,185
 673 857 673 857 643 857 c 1,186,-1
 643 857 l 1,170,171
786 857 m 1,187,188
 757 857 757 857 735 878 c 0,189,190
 714 899 714 899 714 929 c 256,191,192
 714 959 714 959 735 979 c 0,193,194
 756 1000 756 1000 786 1000 c 0,195,196
 816 1000 816 1000 836 979 c 256,197,198
 857 958 857 958 857 929 c 256,199,200
 857 899 857 899 836 878 c 256,201,202
 815 857 815 857 786 857 c 1,203,-1
 786 857 l 1,187,188
EndSplineSet
Validated: 37
EndChar

StartChar: S
Encoding: 83 83 43
Width: 999
VWidth: 714
Flags: W
LayerCount: 2
Fore
SplineSet
357 0 m 1,0,1
 327 0 327 0 306 21 c 0,2,3
 285 42 285 42 286 71 c 0,4,5
 286 101 286 101 306 121 c 256,6,7
 327 142 327 142 357 143 c 0,8,9
 386 143 386 143 407 121 c 256,10,11
 428 100 428 100 429 71 c 0,12,13
 429 42 429 42 407 21 c 0,14,15
 386 0 386 0 357 0 c 1,16,-1
 357 0 l 1,0,1
500 0 m 1,17,18
 470 0 470 0 449 21 c 0,19,20
 428 42 428 42 429 71 c 0,21,22
 429 101 429 101 449 121 c 256,23,24
 470 142 470 142 500 143 c 256,25,26
 530 143 530 143 551 121 c 256,27,28
 572 100 572 100 571 71 c 0,29,30
 571 42 571 42 551 21 c 0,31,32
 530 0 530 0 500 0 c 1,33,-1
 500 0 l 1,17,18
786 0 m 1,34,35
 757 0 757 0 735 21 c 0,36,37
 714 42 714 42 714 71 c 0,38,39
 714 101 714 101 735 121 c 0,40,41
 756 142 756 142 786 143 c 0,42,43
 816 143 816 143 836 121 c 256,44,45
 857 100 857 100 857 71 c 0,46,47
 857 42 857 42 836 21 c 0,48,49
 815 0 815 0 786 0 c 1,50,-1
 786 0 l 1,34,35
71 143 m 1,51,52
 42 143 42 143 21 164 c 0,53,54
 0 185 0 185 0 214 c 256,55,56
 0 244 0 244 21 265 c 0,57,58
 42 286 42 286 71 286 c 0,59,60
 101 286 101 286 121 265 c 256,61,62
 142 244 142 244 143 214 c 256,63,64
 143 184 143 184 121 164 c 256,65,66
 100 143 100 143 71 143 c 1,67,-1
 71 143 l 1,51,52
214 143 m 1,68,69
 184 143 184 143 164 164 c 256,70,71
 143 185 143 185 143 214 c 256,72,73
 143 244 143 244 164 265 c 256,74,75
 185 286 185 286 214 286 c 256,76,77
 244 286 244 286 265 265 c 256,78,79
 286 244 286 244 286 214 c 256,80,81
 286 184 286 184 265 164 c 256,82,83
 244 143 244 143 214 143 c 1,84,-1
 214 143 l 1,68,69
786 143 m 1,85,86
 757 143 757 143 735 164 c 0,87,88
 714 185 714 185 714 214 c 256,89,90
 714 244 714 244 735 265 c 0,91,92
 756 286 756 286 786 286 c 0,93,94
 816 286 816 286 836 265 c 256,95,96
 857 244 857 244 857 214 c 256,97,98
 857 184 857 184 836 164 c 256,99,100
 815 143 815 143 786 143 c 1,101,-1
 786 143 l 1,85,86
643 286 m 1,102,103
 613 286 613 286 592 306 c 256,104,105
 571 327 571 327 571 357 c 0,106,107
 571 386 571 386 592 407 c 256,108,109
 613 428 613 428 643 429 c 0,110,111
 672 429 672 429 694 407 c 0,112,113
 715 386 715 386 714 357 c 0,114,115
 714 327 714 327 694 306 c 0,116,117
 673 285 673 285 643 286 c 1,118,-1
 643 286 l 1,102,103
786 286 m 1,119,120
 757 286 757 286 735 306 c 0,121,122
 714 327 714 327 714 357 c 0,123,124
 714 386 714 386 735 407 c 0,125,126
 756 428 756 428 786 429 c 0,127,128
 816 429 816 429 836 407 c 256,129,130
 857 386 857 386 857 357 c 0,131,132
 857 327 857 327 836 306 c 256,133,134
 815 285 815 285 786 286 c 1,135,-1
 786 286 l 1,119,120
500 429 m 1,136,137
 470 429 470 429 449 449 c 256,138,139
 428 470 428 470 429 500 c 256,140,141
 429 530 429 530 449 551 c 256,142,143
 470 572 470 572 500 571 c 256,144,145
 530 571 530 571 551 551 c 256,146,147
 572 530 572 530 571 500 c 256,148,149
 571 470 571 470 551 449 c 256,150,151
 530 428 530 428 500 429 c 1,152,-1
 500 429 l 1,136,137
786 429 m 1,153,154
 757 429 757 429 735 449 c 0,155,156
 714 470 714 470 714 500 c 256,157,158
 714 530 714 530 735 551 c 0,159,160
 756 572 756 572 786 571 c 0,161,162
 816 571 816 571 836 551 c 256,163,164
 857 530 857 530 857 500 c 256,165,166
 857 470 857 470 836 449 c 256,167,168
 815 428 815 428 786 429 c 1,169,-1
 786 429 l 1,153,154
357 571 m 1,170,171
 327 571 327 571 306 592 c 256,172,173
 285 613 285 613 286 643 c 0,174,175
 286 672 286 672 306 694 c 0,176,177
 327 715 327 715 357 714 c 0,178,179
 386 714 386 714 407 694 c 0,180,181
 428 673 428 673 429 643 c 0,182,183
 429 613 429 613 407 592 c 256,184,185
 386 571 386 571 357 571 c 1,186,-1
 357 571 l 1,170,171
786 571 m 1,187,188
 757 571 757 571 735 592 c 0,189,190
 714 613 714 613 714 643 c 0,191,192
 714 672 714 672 735 694 c 0,193,194
 756 715 756 715 786 714 c 0,195,196
 816 714 816 714 836 694 c 0,197,198
 857 673 857 673 857 643 c 0,199,200
 857 613 857 613 836 592 c 256,201,202
 815 571 815 571 786 571 c 1,203,-1
 786 571 l 1,187,188
214 714 m 1,204,205
 184 714 184 714 164 735 c 0,206,207
 143 756 143 756 143 786 c 0,208,209
 143 816 143 816 164 836 c 256,210,211
 185 857 185 857 214 857 c 256,212,213
 244 857 244 857 265 836 c 256,214,215
 286 815 286 815 286 786 c 0,216,217
 286 757 286 757 265 735 c 0,218,219
 244 714 244 714 214 714 c 1,220,-1
 214 714 l 1,204,205
786 714 m 1,221,222
 757 714 757 714 735 735 c 0,223,224
 714 756 714 756 714 786 c 0,225,226
 714 816 714 816 735 836 c 0,227,228
 756 857 756 857 786 857 c 0,229,230
 816 857 816 857 836 836 c 256,231,232
 857 815 857 815 857 786 c 0,233,234
 857 757 857 757 836 735 c 0,235,236
 815 714 815 714 786 714 c 1,237,-1
 786 714 l 1,221,222
71 857 m 1,238,239
 42 857 42 857 21 878 c 0,240,241
 0 899 0 899 0 929 c 256,242,243
 0 959 0 959 21 979 c 0,244,245
 42 1000 42 1000 71 1000 c 0,246,247
 101 1000 101 1000 121 979 c 256,248,249
 142 958 142 958 143 929 c 256,250,251
 143 899 143 899 121 878 c 256,252,253
 100 857 100 857 71 857 c 1,254,-1
 71 857 l 1,238,239
786 857 m 1,255,256
 757 857 757 857 735 878 c 0,257,258
 714 899 714 899 714 929 c 256,259,260
 714 959 714 959 735 979 c 0,261,262
 756 1000 756 1000 786 1000 c 0,263,264
 816 1000 816 1000 836 979 c 256,265,266
 857 958 857 958 857 929 c 256,267,268
 857 899 857 899 836 878 c 256,269,270
 815 857 815 857 786 857 c 1,271,-1
 786 857 l 1,255,256
EndSplineSet
Validated: 37
EndChar

StartChar: T
Encoding: 84 84 44
Width: 999
VWidth: 714
Flags: W
LayerCount: 2
Fore
SplineSet
214 0 m 1,0,1
 184 0 184 0 164 21 c 0,2,3
 143 42 143 42 143 71 c 0,4,5
 143 101 143 101 164 121 c 256,6,7
 185 142 185 142 214 143 c 256,8,9
 244 143 244 143 265 121 c 256,10,11
 286 100 286 100 286 71 c 0,12,13
 286 42 286 42 265 21 c 0,14,15
 244 0 244 0 214 0 c 1,16,-1
 214 0 l 1,0,1
357 0 m 1,17,18
 327 0 327 0 306 21 c 0,19,20
 285 42 285 42 286 71 c 0,21,22
 286 101 286 101 306 121 c 256,23,24
 327 142 327 142 357 143 c 0,25,26
 386 143 386 143 407 121 c 256,27,28
 428 100 428 100 429 71 c 0,29,30
 429 42 429 42 407 21 c 0,31,32
 386 0 386 0 357 0 c 1,33,-1
 357 0 l 1,17,18
500 0 m 1,34,35
 470 0 470 0 449 21 c 0,36,37
 428 42 428 42 429 71 c 0,38,39
 429 101 429 101 449 121 c 256,40,41
 470 142 470 142 500 143 c 256,42,43
 530 143 530 143 551 121 c 256,44,45
 572 100 572 100 571 71 c 0,46,47
 571 42 571 42 551 21 c 0,48,49
 530 0 530 0 500 0 c 1,50,-1
 500 0 l 1,34,35
71 143 m 1,51,52
 42 143 42 143 21 164 c 0,53,54
 0 185 0 185 0 214 c 256,55,56
 0 244 0 244 21 265 c 0,57,58
 42 286 42 286 71 286 c 0,59,60
 101 286 101 286 121 265 c 256,61,62
 142 244 142 244 143 214 c 256,63,64
 143 184 143 184 121 164 c 256,65,66
 100 143 100 143 71 143 c 1,67,-1
 71 143 l 1,51,52
357 143 m 1,68,69
 327 143 327 143 306 164 c 256,70,71
 285 185 285 185 286 214 c 256,72,73
 286 244 286 244 306 265 c 256,74,75
 327 286 327 286 357 286 c 0,76,77
 386 286 386 286 407 265 c 256,78,79
 428 244 428 244 429 214 c 256,80,81
 429 184 429 184 407 164 c 256,82,83
 386 143 386 143 357 143 c 1,84,-1
 357 143 l 1,68,69
643 143 m 1,85,86
 613 143 613 143 592 164 c 256,87,88
 571 185 571 185 571 214 c 256,89,90
 571 244 571 244 592 265 c 256,91,92
 613 286 613 286 643 286 c 0,93,94
 672 286 672 286 694 265 c 0,95,96
 715 244 715 244 714 214 c 256,97,98
 714 184 714 184 694 164 c 0,99,100
 673 143 673 143 643 143 c 1,101,-1
 643 143 l 1,85,86
71 286 m 1,102,103
 42 286 42 286 21 306 c 0,104,105
 0 327 0 327 0 357 c 0,106,107
 0 386 0 386 21 407 c 0,108,109
 42 428 42 428 71 429 c 0,110,111
 101 429 101 429 121 407 c 256,112,113
 142 386 142 386 143 357 c 0,114,115
 143 327 143 327 121 306 c 256,116,117
 100 285 100 285 71 286 c 1,118,-1
 71 286 l 1,102,103
357 286 m 1,119,120
 327 286 327 286 306 306 c 256,121,122
 285 327 285 327 286 357 c 0,123,124
 286 386 286 386 306 407 c 256,125,126
 327 428 327 428 357 429 c 0,127,128
 386 429 386 429 407 407 c 256,129,130
 428 386 428 386 429 357 c 0,131,132
 429 327 429 327 407 306 c 256,133,134
 386 285 386 285 357 286 c 1,135,-1
 357 286 l 1,119,120
643 286 m 1,136,137
 613 286 613 286 592 306 c 256,138,139
 571 327 571 327 571 357 c 0,140,141
 571 386 571 386 592 407 c 256,142,143
 613 428 613 428 643 429 c 0,144,145
 672 429 672 429 694 407 c 0,146,147
 715 386 715 386 714 357 c 0,148,149
 714 327 714 327 694 306 c 0,150,151
 673 285 673 285 643 286 c 1,152,-1
 643 286 l 1,136,137
357 429 m 1,153,154
 327 429 327 429 306 449 c 256,155,156
 285 470 285 470 286 500 c 256,157,158
 286 530 286 530 306 551 c 256,159,160
 327 572 327 572 357 571 c 0,161,162
 386 571 386 571 407 551 c 256,163,164
 428 530 428 530 429 500 c 256,165,166
 429 470 429 470 407 449 c 256,167,168
 386 428 386 428 357 429 c 1,169,-1
 357 429 l 1,153,154
357 571 m 1,170,171
 327 571 327 571 306 592 c 256,172,173
 285 613 285 613 286 643 c 0,174,175
 286 672 286 672 306 694 c 0,176,177
 327 715 327 715 357 714 c 0,178,179
 386 714 386 714 407 694 c 0,180,181
 428 673 428 673 429 643 c 0,182,183
 429 613 429 613 407 592 c 256,184,185
 386 571 386 571 357 571 c 1,186,-1
 357 571 l 1,170,171
357 714 m 1,187,188
 327 714 327 714 306 735 c 0,189,190
 285 756 285 756 286 786 c 0,191,192
 286 816 286 816 306 836 c 256,193,194
 327 857 327 857 357 857 c 0,195,196
 386 857 386 857 407 836 c 256,197,198
 428 815 428 815 429 786 c 0,199,200
 429 757 429 757 407 735 c 0,201,202
 386 714 386 714 357 714 c 1,203,-1
 357 714 l 1,187,188
357 857 m 1,204,205
 327 857 327 857 306 878 c 256,206,207
 285 899 285 899 286 929 c 256,208,209
 286 959 286 959 306 979 c 256,210,211
 327 1000 327 1000 357 1000 c 0,212,213
 386 1000 386 1000 407 979 c 256,214,215
 428 958 428 958 429 929 c 256,216,217
 429 899 429 899 407 878 c 256,218,219
 386 857 386 857 357 857 c 1,220,-1
 357 857 l 1,204,205
EndSplineSet
Validated: 37
EndChar

StartChar: U
Encoding: 85 85 45
Width: 999
VWidth: 714
Flags: W
LayerCount: 2
Fore
SplineSet
71 0 m 1,0,1
 42 0 42 0 21 21 c 0,2,3
 0 42 0 42 0 71 c 0,4,5
 0 101 0 101 21 121 c 0,6,7
 42 142 42 142 71 143 c 0,8,9
 101 143 101 143 121 121 c 256,10,11
 142 100 142 100 143 71 c 0,12,13
 143 42 143 42 121 21 c 0,14,15
 100 0 100 0 71 0 c 1,16,-1
 71 0 l 1,0,1
214 0 m 1,17,18
 184 0 184 0 164 21 c 0,19,20
 143 42 143 42 143 71 c 0,21,22
 143 101 143 101 164 121 c 256,23,24
 185 142 185 142 214 143 c 256,25,26
 244 143 244 143 265 121 c 256,27,28
 286 100 286 100 286 71 c 0,29,30
 286 42 286 42 265 21 c 0,31,32
 244 0 244 0 214 0 c 1,33,-1
 214 0 l 1,17,18
357 0 m 1,34,35
 327 0 327 0 306 21 c 0,36,37
 285 42 285 42 286 71 c 0,38,39
 286 101 286 101 306 121 c 256,40,41
 327 142 327 142 357 143 c 0,42,43
 386 143 386 143 407 121 c 256,44,45
 428 100 428 100 429 71 c 0,46,47
 429 42 429 42 407 21 c 0,48,49
 386 0 386 0 357 0 c 1,50,-1
 357 0 l 1,34,35
500 0 m 1,51,52
 470 0 470 0 449 21 c 0,53,54
 428 42 428 42 429 71 c 0,55,56
 429 101 429 101 449 121 c 256,57,58
 470 142 470 142 500 143 c 256,59,60
 530 143 530 143 551 121 c 256,61,62
 572 100 572 100 571 71 c 0,63,64
 571 42 571 42 551 21 c 0,65,66
 530 0 530 0 500 0 c 1,67,-1
 500 0 l 1,51,52
643 0 m 1,68,69
 613 0 613 0 592 21 c 0,70,71
 571 42 571 42 571 71 c 0,72,73
 571 101 571 101 592 121 c 256,74,75
 613 142 613 142 643 143 c 0,76,77
 672 143 672 143 694 121 c 0,78,79
 715 100 715 100 714 71 c 0,80,81
 714 42 714 42 694 21 c 0,82,83
 673 0 673 0 643 0 c 1,84,-1
 643 0 l 1,68,69
786 0 m 1,85,86
 757 0 757 0 735 21 c 0,87,88
 714 42 714 42 714 71 c 0,89,90
 714 101 714 101 735 121 c 0,91,92
 756 142 756 142 786 143 c 0,93,94
 816 143 816 143 836 121 c 256,95,96
 857 100 857 100 857 71 c 0,97,98
 857 42 857 42 836 21 c 0,99,100
 815 0 815 0 786 0 c 1,101,-1
 786 0 l 1,85,86
71 143 m 1,102,103
 42 143 42 143 21 164 c 0,104,105
 0 185 0 185 0 214 c 256,106,107
 0 244 0 244 21 265 c 0,108,109
 42 286 42 286 71 286 c 0,110,111
 101 286 101 286 121 265 c 256,112,113
 142 244 142 244 143 214 c 256,114,115
 143 184 143 184 121 164 c 256,116,117
 100 143 100 143 71 143 c 1,118,-1
 71 143 l 1,102,103
786 143 m 1,119,120
 757 143 757 143 735 164 c 0,121,122
 714 185 714 185 714 214 c 256,123,124
 714 244 714 244 735 265 c 0,125,126
 756 286 756 286 786 286 c 0,127,128
 816 286 816 286 836 265 c 256,129,130
 857 244 857 244 857 214 c 256,131,132
 857 184 857 184 836 164 c 256,133,134
 815 143 815 143 786 143 c 1,135,-1
 786 143 l 1,119,120
71 286 m 1,136,137
 42 286 42 286 21 306 c 0,138,139
 0 327 0 327 0 357 c 0,140,141
 0 386 0 386 21 407 c 0,142,143
 42 428 42 428 71 429 c 0,144,145
 101 429 101 429 121 407 c 256,146,147
 142 386 142 386 143 357 c 0,148,149
 143 327 143 327 121 306 c 256,150,151
 100 285 100 285 71 286 c 1,152,-1
 71 286 l 1,136,137
786 286 m 1,153,154
 757 286 757 286 735 306 c 0,155,156
 714 327 714 327 714 357 c 0,157,158
 714 386 714 386 735 407 c 0,159,160
 756 428 756 428 786 429 c 0,161,162
 816 429 816 429 836 407 c 256,163,164
 857 386 857 386 857 357 c 0,165,166
 857 327 857 327 836 306 c 256,167,168
 815 285 815 285 786 286 c 1,169,-1
 786 286 l 1,153,154
71 429 m 1,170,171
 42 429 42 429 21 449 c 0,172,173
 0 470 0 470 0 500 c 256,174,175
 0 530 0 530 21 551 c 0,176,177
 42 572 42 572 71 571 c 0,178,179
 101 571 101 571 121 551 c 256,180,181
 142 530 142 530 143 500 c 256,182,183
 143 470 143 470 121 449 c 256,184,185
 100 428 100 428 71 429 c 1,186,-1
 71 429 l 1,170,171
786 429 m 1,187,188
 757 429 757 429 735 449 c 0,189,190
 714 470 714 470 714 500 c 256,191,192
 714 530 714 530 735 551 c 0,193,194
 756 572 756 572 786 571 c 0,195,196
 816 571 816 571 836 551 c 256,197,198
 857 530 857 530 857 500 c 256,199,200
 857 470 857 470 836 449 c 256,201,202
 815 428 815 428 786 429 c 1,203,-1
 786 429 l 1,187,188
71 571 m 1,204,205
 42 571 42 571 21 592 c 0,206,207
 0 613 0 613 0 643 c 0,208,209
 0 672 0 672 21 694 c 0,210,211
 42 715 42 715 71 714 c 0,212,213
 101 714 101 714 121 694 c 0,214,215
 142 673 142 673 143 643 c 0,216,217
 143 613 143 613 121 592 c 256,218,219
 100 571 100 571 71 571 c 1,220,-1
 71 571 l 1,204,205
357 571 m 1,221,222
 327 571 327 571 306 592 c 256,223,224
 285 613 285 613 286 643 c 0,225,226
 286 672 286 672 306 694 c 0,227,228
 327 715 327 715 357 714 c 0,229,230
 386 714 386 714 407 694 c 0,231,232
 428 673 428 673 429 643 c 0,233,234
 429 613 429 613 407 592 c 256,235,236
 386 571 386 571 357 571 c 1,237,-1
 357 571 l 1,221,222
786 571 m 1,238,239
 757 571 757 571 735 592 c 0,240,241
 714 613 714 613 714 643 c 0,242,243
 714 672 714 672 735 694 c 0,244,245
 756 715 756 715 786 714 c 0,246,247
 816 714 816 714 836 694 c 0,248,249
 857 673 857 673 857 643 c 0,250,251
 857 613 857 613 836 592 c 256,252,253
 815 571 815 571 786 571 c 1,254,-1
 786 571 l 1,238,239
71 714 m 1,255,256
 42 714 42 714 21 735 c 0,257,258
 0 756 0 756 0 786 c 0,259,260
 0 816 0 816 21 836 c 0,261,262
 42 857 42 857 71 857 c 0,263,264
 101 857 101 857 121 836 c 256,265,266
 142 815 142 815 143 786 c 0,267,268
 143 757 143 757 121 735 c 0,269,270
 100 714 100 714 71 714 c 1,271,-1
 71 714 l 1,255,256
500 714 m 1,272,273
 470 714 470 714 449 735 c 0,274,275
 428 756 428 756 429 786 c 0,276,277
 429 816 429 816 449 836 c 256,278,279
 470 857 470 857 500 857 c 256,280,281
 530 857 530 857 551 836 c 256,282,283
 572 815 572 815 571 786 c 0,284,285
 571 757 571 757 551 735 c 0,286,287
 530 714 530 714 500 714 c 1,288,-1
 500 714 l 1,272,273
786 714 m 1,289,290
 757 714 757 714 735 735 c 0,291,292
 714 756 714 756 714 786 c 0,293,294
 714 816 714 816 735 836 c 0,295,296
 756 857 756 857 786 857 c 0,297,298
 816 857 816 857 836 836 c 256,299,300
 857 815 857 815 857 786 c 0,301,302
 857 757 857 757 836 735 c 0,303,304
 815 714 815 714 786 714 c 1,305,-1
 786 714 l 1,289,290
71 857 m 1,306,307
 42 857 42 857 21 878 c 0,308,309
 0 899 0 899 0 929 c 256,310,311
 0 959 0 959 21 979 c 0,312,313
 42 1000 42 1000 71 1000 c 0,314,315
 101 1000 101 1000 121 979 c 256,316,317
 142 958 142 958 143 929 c 256,318,319
 143 899 143 899 121 878 c 256,320,321
 100 857 100 857 71 857 c 1,322,-1
 71 857 l 1,306,307
643 857 m 1,323,324
 613 857 613 857 592 878 c 256,325,326
 571 899 571 899 571 929 c 256,327,328
 571 959 571 959 592 979 c 256,329,330
 613 1000 613 1000 643 1000 c 0,331,332
 672 1000 672 1000 694 979 c 0,333,334
 715 958 715 958 714 929 c 256,335,336
 714 899 714 899 694 878 c 0,337,338
 673 857 673 857 643 857 c 1,339,-1
 643 857 l 1,323,324
786 857 m 1,340,341
 757 857 757 857 735 878 c 0,342,343
 714 899 714 899 714 929 c 256,344,345
 714 959 714 959 735 979 c 0,346,347
 756 1000 756 1000 786 1000 c 0,348,349
 816 1000 816 1000 836 979 c 256,350,351
 857 958 857 958 857 929 c 256,352,353
 857 899 857 899 836 878 c 256,354,355
 815 857 815 857 786 857 c 1,356,-1
 786 857 l 1,340,341
EndSplineSet
Validated: 37
EndChar

StartChar: V
Encoding: 86 86 46
Width: 999
VWidth: 714
Flags: W
LayerCount: 2
Fore
SplineSet
357 0 m 1,0,1
 327 0 327 0 306 21 c 0,2,3
 285 42 285 42 286 71 c 0,4,5
 286 101 286 101 306 121 c 256,6,7
 327 142 327 142 357 143 c 0,8,9
 386 143 386 143 407 121 c 256,10,11
 428 100 428 100 429 71 c 0,12,13
 429 42 429 42 407 21 c 0,14,15
 386 0 386 0 357 0 c 1,16,-1
 357 0 l 1,0,1
357 143 m 1,17,18
 327 143 327 143 306 164 c 256,19,20
 285 185 285 185 286 214 c 256,21,22
 286 244 286 244 306 265 c 256,23,24
 327 286 327 286 357 286 c 0,25,26
 386 286 386 286 407 265 c 256,27,28
 428 244 428 244 429 214 c 256,29,30
 429 184 429 184 407 164 c 256,31,32
 386 143 386 143 357 143 c 1,33,-1
 357 143 l 1,17,18
357 286 m 1,34,35
 327 286 327 286 306 306 c 256,36,37
 285 327 285 327 286 357 c 0,38,39
 286 386 286 386 306 407 c 256,40,41
 327 428 327 428 357 429 c 0,42,43
 386 429 386 429 407 407 c 256,44,45
 428 386 428 386 429 357 c 0,46,47
 429 327 429 327 407 306 c 256,48,49
 386 285 386 285 357 286 c 1,50,-1
 357 286 l 1,34,35
357 429 m 1,51,52
 327 429 327 429 306 449 c 256,53,54
 285 470 285 470 286 500 c 256,55,56
 286 530 286 530 306 551 c 256,57,58
 327 572 327 572 357 571 c 0,59,60
 386 571 386 571 407 551 c 256,61,62
 428 530 428 530 429 500 c 256,63,64
 429 470 429 470 407 449 c 256,65,66
 386 428 386 428 357 429 c 1,67,-1
 357 429 l 1,51,52
214 571 m 1,68,69
 184 571 184 571 164 592 c 256,70,71
 143 613 143 613 143 643 c 0,72,73
 143 672 143 672 164 694 c 0,74,75
 185 715 185 715 214 714 c 256,76,77
 244 714 244 714 265 694 c 0,78,79
 286 673 286 673 286 643 c 0,80,81
 286 613 286 613 265 592 c 256,82,83
 244 571 244 571 214 571 c 1,84,-1
 214 571 l 1,68,69
500 571 m 1,85,86
 470 571 470 571 449 592 c 256,87,88
 428 613 428 613 429 643 c 0,89,90
 429 672 429 672 449 694 c 0,91,92
 470 715 470 715 500 714 c 256,93,94
 530 714 530 714 551 694 c 0,95,96
 572 673 572 673 571 643 c 0,97,98
 571 613 571 613 551 592 c 256,99,100
 530 571 530 571 500 571 c 1,101,-1
 500 571 l 1,85,86
71 714 m 1,102,103
 42 714 42 714 21 735 c 0,104,105
 0 756 0 756 0 786 c 0,106,107
 0 816 0 816 21 836 c 0,108,109
 42 857 42 857 71 857 c 0,110,111
 101 857 101 857 121 836 c 256,112,113
 142 815 142 815 143 786 c 0,114,115
 143 757 143 757 121 735 c 0,116,117
 100 714 100 714 71 714 c 1,118,-1
 71 714 l 1,102,103
643 714 m 1,119,120
 613 714 613 714 592 735 c 0,121,122
 571 756 571 756 571 786 c 0,123,124
 571 816 571 816 592 836 c 256,125,126
 613 857 613 857 643 857 c 0,127,128
 672 857 672 857 694 836 c 0,129,130
 715 815 715 815 714 786 c 0,131,132
 714 757 714 757 694 735 c 0,133,134
 673 714 673 714 643 714 c 1,135,-1
 643 714 l 1,119,120
71 857 m 1,136,137
 42 857 42 857 21 878 c 0,138,139
 0 899 0 899 0 929 c 256,140,141
 0 959 0 959 21 979 c 0,142,143
 42 1000 42 1000 71 1000 c 0,144,145
 101 1000 101 1000 121 979 c 256,146,147
 142 958 142 958 143 929 c 256,148,149
 143 899 143 899 121 878 c 256,150,151
 100 857 100 857 71 857 c 1,152,-1
 71 857 l 1,136,137
643 857 m 1,153,154
 613 857 613 857 592 878 c 256,155,156
 571 899 571 899 571 929 c 256,157,158
 571 959 571 959 592 979 c 256,159,160
 613 1000 613 1000 643 1000 c 0,161,162
 672 1000 672 1000 694 979 c 0,163,164
 715 958 715 958 714 929 c 256,165,166
 714 899 714 899 694 878 c 0,167,168
 673 857 673 857 643 857 c 1,169,-1
 643 857 l 1,153,154
EndSplineSet
Validated: 37
EndChar

StartChar: W
Encoding: 87 87 47
Width: 999
VWidth: 714
Flags: W
LayerCount: 2
Fore
SplineSet
71 0 m 1,0,1
 42 0 42 0 21 21 c 0,2,3
 0 42 0 42 0 71 c 0,4,5
 0 101 0 101 21 121 c 0,6,7
 42 142 42 142 71 143 c 0,8,9
 101 143 101 143 121 121 c 256,10,11
 142 100 142 100 143 71 c 0,12,13
 143 42 143 42 121 21 c 0,14,15
 100 0 100 0 71 0 c 1,16,-1
 71 0 l 1,0,1
214 0 m 1,17,18
 184 0 184 0 164 21 c 0,19,20
 143 42 143 42 143 71 c 0,21,22
 143 101 143 101 164 121 c 256,23,24
 185 142 185 142 214 143 c 256,25,26
 244 143 244 143 265 121 c 256,27,28
 286 100 286 100 286 71 c 0,29,30
 286 42 286 42 265 21 c 0,31,32
 244 0 244 0 214 0 c 1,33,-1
 214 0 l 1,17,18
357 0 m 1,34,35
 327 0 327 0 306 21 c 0,36,37
 285 42 285 42 286 71 c 0,38,39
 286 101 286 101 306 121 c 256,40,41
 327 142 327 142 357 143 c 0,42,43
 386 143 386 143 407 121 c 256,44,45
 428 100 428 100 429 71 c 0,46,47
 429 42 429 42 407 21 c 0,48,49
 386 0 386 0 357 0 c 1,50,-1
 357 0 l 1,34,35
500 0 m 1,51,52
 470 0 470 0 449 21 c 0,53,54
 428 42 428 42 429 71 c 0,55,56
 429 101 429 101 449 121 c 256,57,58
 470 142 470 142 500 143 c 256,59,60
 530 143 530 143 551 121 c 256,61,62
 572 100 572 100 571 71 c 0,63,64
 571 42 571 42 551 21 c 0,65,66
 530 0 530 0 500 0 c 1,67,-1
 500 0 l 1,51,52
643 0 m 1,68,69
 613 0 613 0 592 21 c 0,70,71
 571 42 571 42 571 71 c 0,72,73
 571 101 571 101 592 121 c 256,74,75
 613 142 613 142 643 143 c 0,76,77
 672 143 672 143 694 121 c 0,78,79
 715 100 715 100 714 71 c 0,80,81
 714 42 714 42 694 21 c 0,82,83
 673 0 673 0 643 0 c 1,84,-1
 643 0 l 1,68,69
786 0 m 1,85,86
 757 0 757 0 735 21 c 0,87,88
 714 42 714 42 714 71 c 0,89,90
 714 101 714 101 735 121 c 0,91,92
 756 142 756 142 786 143 c 0,93,94
 816 143 816 143 836 121 c 256,95,96
 857 100 857 100 857 71 c 0,97,98
 857 42 857 42 836 21 c 0,99,100
 815 0 815 0 786 0 c 1,101,-1
 786 0 l 1,85,86
71 143 m 1,102,103
 42 143 42 143 21 164 c 0,104,105
 0 185 0 185 0 214 c 256,106,107
 0 244 0 244 21 265 c 0,108,109
 42 286 42 286 71 286 c 0,110,111
 101 286 101 286 121 265 c 256,112,113
 142 244 142 244 143 214 c 256,114,115
 143 184 143 184 121 164 c 256,116,117
 100 143 100 143 71 143 c 1,118,-1
 71 143 l 1,102,103
786 143 m 1,119,120
 757 143 757 143 735 164 c 0,121,122
 714 185 714 185 714 214 c 256,123,124
 714 244 714 244 735 265 c 0,125,126
 756 286 756 286 786 286 c 0,127,128
 816 286 816 286 836 265 c 256,129,130
 857 244 857 244 857 214 c 256,131,132
 857 184 857 184 836 164 c 256,133,134
 815 143 815 143 786 143 c 1,135,-1
 786 143 l 1,119,120
71 286 m 1,136,137
 42 286 42 286 21 306 c 0,138,139
 0 327 0 327 0 357 c 0,140,141
 0 386 0 386 21 407 c 0,142,143
 42 428 42 428 71 429 c 0,144,145
 101 429 101 429 121 407 c 256,146,147
 142 386 142 386 143 357 c 0,148,149
 143 327 143 327 121 306 c 256,150,151
 100 285 100 285 71 286 c 1,152,-1
 71 286 l 1,136,137
786 286 m 1,153,154
 757 286 757 286 735 306 c 0,155,156
 714 327 714 327 714 357 c 0,157,158
 714 386 714 386 735 407 c 0,159,160
 756 428 756 428 786 429 c 0,161,162
 816 429 816 429 836 407 c 256,163,164
 857 386 857 386 857 357 c 0,165,166
 857 327 857 327 836 306 c 256,167,168
 815 285 815 285 786 286 c 1,169,-1
 786 286 l 1,153,154
71 429 m 1,170,171
 42 429 42 429 21 449 c 0,172,173
 0 470 0 470 0 500 c 256,174,175
 0 530 0 530 21 551 c 0,176,177
 42 572 42 572 71 571 c 0,178,179
 101 571 101 571 121 551 c 256,180,181
 142 530 142 530 143 500 c 256,182,183
 143 470 143 470 121 449 c 256,184,185
 100 428 100 428 71 429 c 1,186,-1
 71 429 l 1,170,171
786 429 m 1,187,188
 757 429 757 429 735 449 c 0,189,190
 714 470 714 470 714 500 c 256,191,192
 714 530 714 530 735 551 c 0,193,194
 756 572 756 572 786 571 c 0,195,196
 816 571 816 571 836 551 c 256,197,198
 857 530 857 530 857 500 c 256,199,200
 857 470 857 470 836 449 c 256,201,202
 815 428 815 428 786 429 c 1,203,-1
 786 429 l 1,187,188
71 571 m 1,204,205
 42 571 42 571 21 592 c 0,206,207
 0 613 0 613 0 643 c 0,208,209
 0 672 0 672 21 694 c 0,210,211
 42 715 42 715 71 714 c 0,212,213
 101 714 101 714 121 694 c 0,214,215
 142 673 142 673 143 643 c 0,216,217
 143 613 143 613 121 592 c 256,218,219
 100 571 100 571 71 571 c 1,220,-1
 71 571 l 1,204,205
786 571 m 1,221,222
 757 571 757 571 735 592 c 0,223,224
 714 613 714 613 714 643 c 0,225,226
 714 672 714 672 735 694 c 0,227,228
 756 715 756 715 786 714 c 0,229,230
 816 714 816 714 836 694 c 0,231,232
 857 673 857 673 857 643 c 0,233,234
 857 613 857 613 836 592 c 256,235,236
 815 571 815 571 786 571 c 1,237,-1
 786 571 l 1,221,222
71 714 m 1,238,239
 42 714 42 714 21 735 c 0,240,241
 0 756 0 756 0 786 c 0,242,243
 0 816 0 816 21 836 c 0,244,245
 42 857 42 857 71 857 c 0,246,247
 101 857 101 857 121 836 c 256,248,249
 142 815 142 815 143 786 c 0,250,251
 143 757 143 757 121 735 c 0,252,253
 100 714 100 714 71 714 c 1,254,-1
 71 714 l 1,238,239
786 714 m 1,255,256
 757 714 757 714 735 735 c 0,257,258
 714 756 714 756 714 786 c 0,259,260
 714 816 714 816 735 836 c 0,261,262
 756 857 756 857 786 857 c 0,263,264
 816 857 816 857 836 836 c 256,265,266
 857 815 857 815 857 786 c 0,267,268
 857 757 857 757 836 735 c 0,269,270
 815 714 815 714 786 714 c 1,271,-1
 786 714 l 1,255,256
71 857 m 1,272,273
 42 857 42 857 21 878 c 0,274,275
 0 899 0 899 0 929 c 256,276,277
 0 959 0 959 21 979 c 0,278,279
 42 1000 42 1000 71 1000 c 0,280,281
 101 1000 101 1000 121 979 c 256,282,283
 142 958 142 958 143 929 c 256,284,285
 143 899 143 899 121 878 c 256,286,287
 100 857 100 857 71 857 c 1,288,-1
 71 857 l 1,272,273
214 857 m 1,289,290
 184 857 184 857 164 878 c 256,291,292
 143 899 143 899 143 929 c 256,293,294
 143 959 143 959 164 979 c 256,295,296
 185 1000 185 1000 214 1000 c 256,297,298
 244 1000 244 1000 265 979 c 256,299,300
 286 958 286 958 286 929 c 256,301,302
 286 899 286 899 265 878 c 256,303,304
 244 857 244 857 214 857 c 1,305,-1
 214 857 l 1,289,290
357 857 m 1,306,307
 327 857 327 857 306 878 c 256,308,309
 285 899 285 899 286 929 c 256,310,311
 286 959 286 959 306 979 c 256,312,313
 327 1000 327 1000 357 1000 c 0,314,315
 386 1000 386 1000 407 979 c 256,316,317
 428 958 428 958 429 929 c 256,318,319
 429 899 429 899 407 878 c 256,320,321
 386 857 386 857 357 857 c 1,322,-1
 357 857 l 1,306,307
500 857 m 1,323,324
 470 857 470 857 449 878 c 256,325,326
 428 899 428 899 429 929 c 256,327,328
 429 959 429 959 449 979 c 256,329,330
 470 1000 470 1000 500 1000 c 256,331,332
 530 1000 530 1000 551 979 c 256,333,334
 572 958 572 958 571 929 c 256,335,336
 571 899 571 899 551 878 c 256,337,338
 530 857 530 857 500 857 c 1,339,-1
 500 857 l 1,323,324
643 857 m 1,340,341
 613 857 613 857 592 878 c 256,342,343
 571 899 571 899 571 929 c 256,344,345
 571 959 571 959 592 979 c 256,346,347
 613 1000 613 1000 643 1000 c 0,348,349
 672 1000 672 1000 694 979 c 0,350,351
 715 958 715 958 714 929 c 256,352,353
 714 899 714 899 694 878 c 0,354,355
 673 857 673 857 643 857 c 1,356,-1
 643 857 l 1,340,341
786 857 m 1,357,358
 757 857 757 857 735 878 c 0,359,360
 714 899 714 899 714 929 c 256,361,362
 714 959 714 959 735 979 c 0,363,364
 756 1000 756 1000 786 1000 c 0,365,366
 816 1000 816 1000 836 979 c 256,367,368
 857 958 857 958 857 929 c 256,369,370
 857 899 857 899 836 878 c 256,371,372
 815 857 815 857 786 857 c 1,373,-1
 786 857 l 1,357,358
EndSplineSet
Validated: 37
EndChar

StartChar: X
Encoding: 88 88 48
Width: 999
VWidth: 714
Flags: W
LayerCount: 2
Fore
SplineSet
71 0 m 1,0,1
 42 0 42 0 21 21 c 0,2,3
 0 42 0 42 0 71 c 0,4,5
 0 101 0 101 21 121 c 0,6,7
 42 142 42 142 71 143 c 0,8,9
 101 143 101 143 121 121 c 256,10,11
 142 100 142 100 143 71 c 0,12,13
 143 42 143 42 121 21 c 0,14,15
 100 0 100 0 71 0 c 1,16,-1
 71 0 l 1,0,1
214 0 m 1,17,18
 184 0 184 0 164 21 c 0,19,20
 143 42 143 42 143 71 c 0,21,22
 143 101 143 101 164 121 c 256,23,24
 185 142 185 142 214 143 c 256,25,26
 244 143 244 143 265 121 c 256,27,28
 286 100 286 100 286 71 c 0,29,30
 286 42 286 42 265 21 c 0,31,32
 244 0 244 0 214 0 c 1,33,-1
 214 0 l 1,17,18
357 0 m 1,34,35
 327 0 327 0 306 21 c 0,36,37
 285 42 285 42 286 71 c 0,38,39
 286 101 286 101 306 121 c 256,40,41
 327 142 327 142 357 143 c 0,42,43
 386 143 386 143 407 121 c 256,44,45
 428 100 428 100 429 71 c 0,46,47
 429 42 429 42 407 21 c 0,48,49
 386 0 386 0 357 0 c 1,50,-1
 357 0 l 1,34,35
500 0 m 1,51,52
 470 0 470 0 449 21 c 0,53,54
 428 42 428 42 429 71 c 0,55,56
 429 101 429 101 449 121 c 256,57,58
 470 142 470 142 500 143 c 256,59,60
 530 143 530 143 551 121 c 256,61,62
 572 100 572 100 571 71 c 0,63,64
 571 42 571 42 551 21 c 0,65,66
 530 0 530 0 500 0 c 1,67,-1
 500 0 l 1,51,52
643 0 m 1,68,69
 613 0 613 0 592 21 c 0,70,71
 571 42 571 42 571 71 c 0,72,73
 571 101 571 101 592 121 c 256,74,75
 613 142 613 142 643 143 c 0,76,77
 672 143 672 143 694 121 c 0,78,79
 715 100 715 100 714 71 c 0,80,81
 714 42 714 42 694 21 c 0,82,83
 673 0 673 0 643 0 c 1,84,-1
 643 0 l 1,68,69
786 0 m 1,85,86
 757 0 757 0 735 21 c 0,87,88
 714 42 714 42 714 71 c 0,89,90
 714 101 714 101 735 121 c 0,91,92
 756 142 756 142 786 143 c 0,93,94
 816 143 816 143 836 121 c 256,95,96
 857 100 857 100 857 71 c 0,97,98
 857 42 857 42 836 21 c 0,99,100
 815 0 815 0 786 0 c 1,101,-1
 786 0 l 1,85,86
71 143 m 1,102,103
 42 143 42 143 21 164 c 0,104,105
 0 185 0 185 0 214 c 256,106,107
 0 244 0 244 21 265 c 0,108,109
 42 286 42 286 71 286 c 0,110,111
 101 286 101 286 121 265 c 256,112,113
 142 244 142 244 143 214 c 256,114,115
 143 184 143 184 121 164 c 256,116,117
 100 143 100 143 71 143 c 1,118,-1
 71 143 l 1,102,103
643 143 m 1,119,120
 613 143 613 143 592 164 c 256,121,122
 571 185 571 185 571 214 c 256,123,124
 571 244 571 244 592 265 c 256,125,126
 613 286 613 286 643 286 c 0,127,128
 672 286 672 286 694 265 c 0,129,130
 715 244 715 244 714 214 c 256,131,132
 714 184 714 184 694 164 c 0,133,134
 673 143 673 143 643 143 c 1,135,-1
 643 143 l 1,119,120
71 286 m 1,136,137
 42 286 42 286 21 306 c 0,138,139
 0 327 0 327 0 357 c 0,140,141
 0 386 0 386 21 407 c 0,142,143
 42 428 42 428 71 429 c 0,144,145
 101 429 101 429 121 407 c 256,146,147
 142 386 142 386 143 357 c 0,148,149
 143 327 143 327 121 306 c 256,150,151
 100 285 100 285 71 286 c 1,152,-1
 71 286 l 1,136,137
643 286 m 1,153,154
 613 286 613 286 592 306 c 256,155,156
 571 327 571 327 571 357 c 0,157,158
 571 386 571 386 592 407 c 256,159,160
 613 428 613 428 643 429 c 0,161,162
 672 429 672 429 694 407 c 0,163,164
 715 386 715 386 714 357 c 0,165,166
 714 327 714 327 694 306 c 0,167,168
 673 285 673 285 643 286 c 1,169,-1
 643 286 l 1,153,154
214 429 m 1,170,171
 184 429 184 429 164 449 c 256,172,173
 143 470 143 470 143 500 c 256,174,175
 143 530 143 530 164 551 c 256,176,177
 185 572 185 572 214 571 c 256,178,179
 244 571 244 571 265 551 c 256,180,181
 286 530 286 530 286 500 c 256,182,183
 286 470 286 470 265 449 c 256,184,185
 244 428 244 428 214 429 c 1,186,-1
 214 429 l 1,170,171
500 429 m 1,187,188
 470 429 470 429 449 449 c 256,189,190
 428 470 428 470 429 500 c 256,191,192
 429 530 429 530 449 551 c 256,193,194
 470 572 470 572 500 571 c 256,195,196
 530 571 530 571 551 551 c 256,197,198
 572 530 572 530 571 500 c 256,199,200
 571 470 571 470 551 449 c 256,201,202
 530 428 530 428 500 429 c 1,203,-1
 500 429 l 1,187,188
214 571 m 1,204,205
 184 571 184 571 164 592 c 256,206,207
 143 613 143 613 143 643 c 0,208,209
 143 672 143 672 164 694 c 0,210,211
 185 715 185 715 214 714 c 256,212,213
 244 714 244 714 265 694 c 0,214,215
 286 673 286 673 286 643 c 0,216,217
 286 613 286 613 265 592 c 256,218,219
 244 571 244 571 214 571 c 1,220,-1
 214 571 l 1,204,205
500 571 m 1,221,222
 470 571 470 571 449 592 c 256,223,224
 428 613 428 613 429 643 c 0,225,226
 429 672 429 672 449 694 c 0,227,228
 470 715 470 715 500 714 c 256,229,230
 530 714 530 714 551 694 c 0,231,232
 572 673 572 673 571 643 c 0,233,234
 571 613 571 613 551 592 c 256,235,236
 530 571 530 571 500 571 c 1,237,-1
 500 571 l 1,221,222
357 714 m 1,238,239
 327 714 327 714 306 735 c 0,240,241
 285 756 285 756 286 786 c 0,242,243
 286 816 286 816 306 836 c 256,244,245
 327 857 327 857 357 857 c 0,246,247
 386 857 386 857 407 836 c 256,248,249
 428 815 428 815 429 786 c 0,250,251
 429 757 429 757 407 735 c 0,252,253
 386 714 386 714 357 714 c 1,254,-1
 357 714 l 1,238,239
357 857 m 1,255,256
 327 857 327 857 306 878 c 256,257,258
 285 899 285 899 286 929 c 256,259,260
 286 959 286 959 306 979 c 256,261,262
 327 1000 327 1000 357 1000 c 0,263,264
 386 1000 386 1000 407 979 c 256,265,266
 428 958 428 958 429 929 c 256,267,268
 429 899 429 899 407 878 c 256,269,270
 386 857 386 857 357 857 c 1,271,-1
 357 857 l 1,255,256
EndSplineSet
Validated: 37
EndChar

StartChar: Y
Encoding: 89 89 49
Width: 999
VWidth: 714
Flags: W
LayerCount: 2
Fore
SplineSet
357 0 m 1,0,1
 327 0 327 0 306 21 c 0,2,3
 285 42 285 42 286 71 c 0,4,5
 286 101 286 101 306 121 c 256,6,7
 327 142 327 142 357 143 c 0,8,9
 386 143 386 143 407 121 c 256,10,11
 428 100 428 100 429 71 c 0,12,13
 429 42 429 42 407 21 c 0,14,15
 386 0 386 0 357 0 c 1,16,-1
 357 0 l 1,0,1
214 143 m 1,17,18
 184 143 184 143 164 164 c 256,19,20
 143 185 143 185 143 214 c 256,21,22
 143 244 143 244 164 265 c 256,23,24
 185 286 185 286 214 286 c 256,25,26
 244 286 244 286 265 265 c 256,27,28
 286 244 286 244 286 214 c 256,29,30
 286 184 286 184 265 164 c 256,31,32
 244 143 244 143 214 143 c 1,33,-1
 214 143 l 1,17,18
500 143 m 1,34,35
 470 143 470 143 449 164 c 256,36,37
 428 185 428 185 429 214 c 256,38,39
 429 244 429 244 449 265 c 256,40,41
 470 286 470 286 500 286 c 256,42,43
 530 286 530 286 551 265 c 256,44,45
 572 244 572 244 571 214 c 256,46,47
 571 184 571 184 551 164 c 256,48,49
 530 143 530 143 500 143 c 1,50,-1
 500 143 l 1,34,35
71 286 m 1,51,52
 42 286 42 286 21 306 c 0,53,54
 0 327 0 327 0 357 c 0,55,56
 0 386 0 386 21 407 c 0,57,58
 42 428 42 428 71 429 c 0,59,60
 101 429 101 429 121 407 c 256,61,62
 142 386 142 386 143 357 c 0,63,64
 143 327 143 327 121 306 c 256,65,66
 100 285 100 285 71 286 c 1,67,-1
 71 286 l 1,51,52
643 286 m 1,68,69
 613 286 613 286 592 306 c 256,70,71
 571 327 571 327 571 357 c 0,72,73
 571 386 571 386 592 407 c 256,74,75
 613 428 613 428 643 429 c 0,76,77
 672 429 672 429 694 407 c 0,78,79
 715 386 715 386 714 357 c 0,80,81
 714 327 714 327 694 306 c 0,82,83
 673 285 673 285 643 286 c 1,84,-1
 643 286 l 1,68,69
71 429 m 1,85,86
 42 429 42 429 21 449 c 0,87,88
 0 470 0 470 0 500 c 256,89,90
 0 530 0 530 21 551 c 0,91,92
 42 572 42 572 71 571 c 0,93,94
 101 571 101 571 121 551 c 256,95,96
 142 530 142 530 143 500 c 256,97,98
 143 470 143 470 121 449 c 256,99,100
 100 428 100 428 71 429 c 1,101,-1
 71 429 l 1,85,86
643 429 m 1,102,103
 613 429 613 429 592 449 c 256,104,105
 571 470 571 470 571 500 c 256,106,107
 571 530 571 530 592 551 c 256,108,109
 613 572 613 572 643 571 c 0,110,111
 672 571 672 571 694 551 c 0,112,113
 715 530 715 530 714 500 c 256,114,115
 714 470 714 470 694 449 c 0,116,117
 673 428 673 428 643 429 c 1,118,-1
 643 429 l 1,102,103
71 571 m 1,119,120
 42 571 42 571 21 592 c 0,121,122
 0 613 0 613 0 643 c 0,123,124
 0 672 0 672 21 694 c 0,125,126
 42 715 42 715 71 714 c 0,127,128
 101 714 101 714 121 694 c 0,129,130
 142 673 142 673 143 643 c 0,131,132
 143 613 143 613 121 592 c 256,133,134
 100 571 100 571 71 571 c 1,135,-1
 71 571 l 1,119,120
357 571 m 1,136,137
 327 571 327 571 306 592 c 256,138,139
 285 613 285 613 286 643 c 0,140,141
 286 672 286 672 306 694 c 0,142,143
 327 715 327 715 357 714 c 0,144,145
 386 714 386 714 407 694 c 0,146,147
 428 673 428 673 429 643 c 0,148,149
 429 613 429 613 407 592 c 256,150,151
 386 571 386 571 357 571 c 1,152,-1
 357 571 l 1,136,137
643 571 m 1,153,154
 613 571 613 571 592 592 c 256,155,156
 571 613 571 613 571 643 c 0,157,158
 571 672 571 672 592 694 c 0,159,160
 613 715 613 715 643 714 c 0,161,162
 672 714 672 714 694 694 c 0,163,164
 715 673 715 673 714 643 c 0,165,166
 714 613 714 613 694 592 c 0,167,168
 673 571 673 571 643 571 c 1,169,-1
 643 571 l 1,153,154
71 714 m 1,170,171
 42 714 42 714 21 735 c 0,172,173
 0 756 0 756 0 786 c 0,174,175
 0 816 0 816 21 836 c 0,176,177
 42 857 42 857 71 857 c 0,178,179
 101 857 101 857 121 836 c 256,180,181
 142 815 142 815 143 786 c 0,182,183
 143 757 143 757 121 735 c 0,184,185
 100 714 100 714 71 714 c 1,186,-1
 71 714 l 1,170,171
357 714 m 1,187,188
 327 714 327 714 306 735 c 0,189,190
 285 756 285 756 286 786 c 0,191,192
 286 816 286 816 306 836 c 256,193,194
 327 857 327 857 357 857 c 0,195,196
 386 857 386 857 407 836 c 256,197,198
 428 815 428 815 429 786 c 0,199,200
 429 757 429 757 407 735 c 0,201,202
 386 714 386 714 357 714 c 1,203,-1
 357 714 l 1,187,188
643 714 m 1,204,205
 613 714 613 714 592 735 c 0,206,207
 571 756 571 756 571 786 c 0,208,209
 571 816 571 816 592 836 c 256,210,211
 613 857 613 857 643 857 c 0,212,213
 672 857 672 857 694 836 c 0,214,215
 715 815 715 815 714 786 c 0,216,217
 714 757 714 757 694 735 c 0,218,219
 673 714 673 714 643 714 c 1,220,-1
 643 714 l 1,204,205
71 857 m 1,221,222
 42 857 42 857 21 878 c 0,223,224
 0 899 0 899 0 929 c 256,225,226
 0 959 0 959 21 979 c 0,227,228
 42 1000 42 1000 71 1000 c 0,229,230
 101 1000 101 1000 121 979 c 256,231,232
 142 958 142 958 143 929 c 256,233,234
 143 899 143 899 121 878 c 256,235,236
 100 857 100 857 71 857 c 1,237,-1
 71 857 l 1,221,222
214 857 m 1,238,239
 184 857 184 857 164 878 c 256,240,241
 143 899 143 899 143 929 c 256,242,243
 143 959 143 959 164 979 c 256,244,245
 185 1000 185 1000 214 1000 c 256,246,247
 244 1000 244 1000 265 979 c 256,248,249
 286 958 286 958 286 929 c 256,250,251
 286 899 286 899 265 878 c 256,252,253
 244 857 244 857 214 857 c 1,254,-1
 214 857 l 1,238,239
643 857 m 1,255,256
 613 857 613 857 592 878 c 256,257,258
 571 899 571 899 571 929 c 256,259,260
 571 959 571 959 592 979 c 256,261,262
 613 1000 613 1000 643 1000 c 0,263,264
 672 1000 672 1000 694 979 c 0,265,266
 715 958 715 958 714 929 c 256,267,268
 714 899 714 899 694 878 c 0,269,270
 673 857 673 857 643 857 c 1,271,-1
 643 857 l 1,255,256
786 857 m 1,272,273
 757 857 757 857 735 878 c 0,274,275
 714 899 714 899 714 929 c 256,276,277
 714 959 714 959 735 979 c 0,278,279
 756 1000 756 1000 786 1000 c 0,280,281
 816 1000 816 1000 836 979 c 256,282,283
 857 958 857 958 857 929 c 256,284,285
 857 899 857 899 836 878 c 256,286,287
 815 857 815 857 786 857 c 1,288,-1
 786 857 l 1,272,273
EndSplineSet
Validated: 37
EndChar

StartChar: Z
Encoding: 90 90 50
Width: 999
VWidth: 714
Flags: W
LayerCount: 2
Fore
SplineSet
214 0 m 1,0,1
 184 0 184 0 164 21 c 0,2,3
 143 42 143 42 143 71 c 0,4,5
 143 101 143 101 164 121 c 256,6,7
 185 142 185 142 214 143 c 256,8,9
 244 143 244 143 265 121 c 256,10,11
 286 100 286 100 286 71 c 0,12,13
 286 42 286 42 265 21 c 0,14,15
 244 0 244 0 214 0 c 1,16,-1
 214 0 l 1,0,1
357 0 m 1,17,18
 327 0 327 0 306 21 c 0,19,20
 285 42 285 42 286 71 c 0,21,22
 286 101 286 101 306 121 c 256,23,24
 327 142 327 142 357 143 c 0,25,26
 386 143 386 143 407 121 c 256,27,28
 428 100 428 100 429 71 c 0,29,30
 429 42 429 42 407 21 c 0,31,32
 386 0 386 0 357 0 c 1,33,-1
 357 0 l 1,17,18
500 0 m 1,34,35
 470 0 470 0 449 21 c 0,36,37
 428 42 428 42 429 71 c 0,38,39
 429 101 429 101 449 121 c 256,40,41
 470 142 470 142 500 143 c 256,42,43
 530 143 530 143 551 121 c 256,44,45
 572 100 572 100 571 71 c 0,46,47
 571 42 571 42 551 21 c 0,48,49
 530 0 530 0 500 0 c 1,50,-1
 500 0 l 1,34,35
643 0 m 1,51,52
 613 0 613 0 592 21 c 0,53,54
 571 42 571 42 571 71 c 0,55,56
 571 101 571 101 592 121 c 256,57,58
 613 142 613 142 643 143 c 0,59,60
 672 143 672 143 694 121 c 0,61,62
 715 100 715 100 714 71 c 0,63,64
 714 42 714 42 694 21 c 0,65,66
 673 0 673 0 643 0 c 1,67,-1
 643 0 l 1,51,52
786 0 m 1,68,69
 757 0 757 0 735 21 c 0,70,71
 714 42 714 42 714 71 c 0,72,73
 714 101 714 101 735 121 c 0,74,75
 756 142 756 142 786 143 c 0,76,77
 816 143 816 143 836 121 c 256,78,79
 857 100 857 100 857 71 c 0,80,81
 857 42 857 42 836 21 c 0,82,83
 815 0 815 0 786 0 c 1,84,-1
 786 0 l 1,68,69
71 143 m 1,85,86
 42 143 42 143 21 164 c 0,87,88
 0 185 0 185 0 214 c 256,89,90
 0 244 0 244 21 265 c 0,91,92
 42 286 42 286 71 286 c 0,93,94
 101 286 101 286 121 265 c 256,95,96
 142 244 142 244 143 214 c 256,97,98
 143 184 143 184 121 164 c 256,99,100
 100 143 100 143 71 143 c 1,101,-1
 71 143 l 1,85,86
786 143 m 1,102,103
 757 143 757 143 735 164 c 0,104,105
 714 185 714 185 714 214 c 256,106,107
 714 244 714 244 735 265 c 0,108,109
 756 286 756 286 786 286 c 0,110,111
 816 286 816 286 836 265 c 256,112,113
 857 244 857 244 857 214 c 256,114,115
 857 184 857 184 836 164 c 256,116,117
 815 143 815 143 786 143 c 1,118,-1
 786 143 l 1,102,103
786 286 m 1,119,120
 757 286 757 286 735 306 c 0,121,122
 714 327 714 327 714 357 c 0,123,124
 714 386 714 386 735 407 c 0,125,126
 756 428 756 428 786 429 c 0,127,128
 816 429 816 429 836 407 c 256,129,130
 857 386 857 386 857 357 c 0,131,132
 857 327 857 327 836 306 c 256,133,134
 815 285 815 285 786 286 c 1,135,-1
 786 286 l 1,119,120
214 429 m 1,136,137
 184 429 184 429 164 449 c 256,138,139
 143 470 143 470 143 500 c 256,140,141
 143 530 143 530 164 551 c 256,142,143
 185 572 185 572 214 571 c 256,144,145
 244 571 244 571 265 551 c 256,146,147
 286 530 286 530 286 500 c 256,148,149
 286 470 286 470 265 449 c 256,150,151
 244 428 244 428 214 429 c 1,152,-1
 214 429 l 1,136,137
786 429 m 1,153,154
 757 429 757 429 735 449 c 0,155,156
 714 470 714 470 714 500 c 256,157,158
 714 530 714 530 735 551 c 0,159,160
 756 572 756 572 786 571 c 0,161,162
 816 571 816 571 836 551 c 256,163,164
 857 530 857 530 857 500 c 256,165,166
 857 470 857 470 836 449 c 256,167,168
 815 428 815 428 786 429 c 1,169,-1
 786 429 l 1,153,154
357 571 m 1,170,171
 327 571 327 571 306 592 c 256,172,173
 285 613 285 613 286 643 c 0,174,175
 286 672 286 672 306 694 c 0,176,177
 327 715 327 715 357 714 c 0,178,179
 386 714 386 714 407 694 c 0,180,181
 428 673 428 673 429 643 c 0,182,183
 429 613 429 613 407 592 c 256,184,185
 386 571 386 571 357 571 c 1,186,-1
 357 571 l 1,170,171
500 571 m 1,187,188
 470 571 470 571 449 592 c 256,189,190
 428 613 428 613 429 643 c 0,191,192
 429 672 429 672 449 694 c 0,193,194
 470 715 470 715 500 714 c 256,195,196
 530 714 530 714 551 694 c 0,197,198
 572 673 572 673 571 643 c 0,199,200
 571 613 571 613 551 592 c 256,201,202
 530 571 530 571 500 571 c 1,203,-1
 500 571 l 1,187,188
643 571 m 1,204,205
 613 571 613 571 592 592 c 256,206,207
 571 613 571 613 571 643 c 0,208,209
 571 672 571 672 592 694 c 0,210,211
 613 715 613 715 643 714 c 0,212,213
 672 714 672 714 694 694 c 0,214,215
 715 673 715 673 714 643 c 0,216,217
 714 613 714 613 694 592 c 0,218,219
 673 571 673 571 643 571 c 1,220,-1
 643 571 l 1,204,205
786 571 m 1,221,222
 757 571 757 571 735 592 c 0,223,224
 714 613 714 613 714 643 c 0,225,226
 714 672 714 672 735 694 c 0,227,228
 756 715 756 715 786 714 c 0,229,230
 816 714 816 714 836 694 c 0,231,232
 857 673 857 673 857 643 c 0,233,234
 857 613 857 613 836 592 c 256,235,236
 815 571 815 571 786 571 c 1,237,-1
 786 571 l 1,221,222
786 714 m 1,238,239
 757 714 757 714 735 735 c 0,240,241
 714 756 714 756 714 786 c 0,242,243
 714 816 714 816 735 836 c 0,244,245
 756 857 756 857 786 857 c 0,246,247
 816 857 816 857 836 836 c 256,248,249
 857 815 857 815 857 786 c 0,250,251
 857 757 857 757 836 735 c 0,252,253
 815 714 815 714 786 714 c 1,254,-1
 786 714 l 1,238,239
786 857 m 1,255,256
 757 857 757 857 735 878 c 0,257,258
 714 899 714 899 714 929 c 256,259,260
 714 959 714 959 735 979 c 0,261,262
 756 1000 756 1000 786 1000 c 0,263,264
 816 1000 816 1000 836 979 c 256,265,266
 857 958 857 958 857 929 c 256,267,268
 857 899 857 899 836 878 c 256,269,270
 815 857 815 857 786 857 c 1,271,-1
 786 857 l 1,255,256
EndSplineSet
Validated: 37
EndChar

StartChar: underscore
Encoding: 95 95 51
Width: 999
VWidth: 714
Flags: W
LayerCount: 2
Fore
SplineSet
71 0 m 1,0,1
 42 0 42 0 21 21 c 0,2,3
 0 42 0 42 0 71 c 0,4,5
 0 101 0 101 21 121 c 0,6,7
 42 142 42 142 71 143 c 0,8,9
 101 143 101 143 121 121 c 256,10,11
 142 100 142 100 143 71 c 0,12,13
 143 42 143 42 121 21 c 0,14,15
 100 0 100 0 71 0 c 1,16,-1
 71 0 l 1,0,1
214 0 m 1,17,18
 184 0 184 0 164 21 c 0,19,20
 143 42 143 42 143 71 c 0,21,22
 143 101 143 101 164 121 c 256,23,24
 185 142 185 142 214 143 c 256,25,26
 244 143 244 143 265 121 c 256,27,28
 286 100 286 100 286 71 c 0,29,30
 286 42 286 42 265 21 c 0,31,32
 244 0 244 0 214 0 c 1,33,-1
 214 0 l 1,17,18
357 0 m 1,34,35
 327 0 327 0 306 21 c 0,36,37
 285 42 285 42 286 71 c 0,38,39
 286 101 286 101 306 121 c 256,40,41
 327 142 327 142 357 143 c 0,42,43
 386 143 386 143 407 121 c 256,44,45
 428 100 428 100 429 71 c 0,46,47
 429 42 429 42 407 21 c 0,48,49
 386 0 386 0 357 0 c 1,50,-1
 357 0 l 1,34,35
500 0 m 1,51,52
 470 0 470 0 449 21 c 0,53,54
 428 42 428 42 429 71 c 0,55,56
 429 101 429 101 449 121 c 256,57,58
 470 142 470 142 500 143 c 256,59,60
 530 143 530 143 551 121 c 256,61,62
 572 100 572 100 571 71 c 0,63,64
 571 42 571 42 551 21 c 0,65,66
 530 0 530 0 500 0 c 1,67,-1
 500 0 l 1,51,52
643 0 m 1,68,69
 613 0 613 0 592 21 c 0,70,71
 571 42 571 42 571 71 c 0,72,73
 571 101 571 101 592 121 c 256,74,75
 613 142 613 142 643 143 c 0,76,77
 672 143 672 143 694 121 c 0,78,79
 715 100 715 100 714 71 c 0,80,81
 714 42 714 42 694 21 c 0,82,83
 673 0 673 0 643 0 c 1,84,-1
 643 0 l 1,68,69
786 0 m 1,85,86
 757 0 757 0 735 21 c 0,87,88
 714 42 714 42 714 71 c 0,89,90
 714 101 714 101 735 121 c 0,91,92
 756 142 756 142 786 143 c 0,93,94
 816 143 816 143 836 121 c 256,95,96
 857 100 857 100 857 71 c 0,97,98
 857 42 857 42 836 21 c 0,99,100
 815 0 815 0 786 0 c 1,101,-1
 786 0 l 1,85,86
EndSplineSet
Validated: 37
EndChar

